<?xml version="1.0" encoding="utf-8" standalone="no"?>
<!DOCTYPE svg PUBLIC "-//W3C//DTD SVG 1.1//EN"
  "http://www.w3.org/Graphics/SVG/1.1/DTD/svg11.dtd">
<svg xmlns:xlink="http://www.w3.org/1999/xlink" width="597.191744pt" height="164.769095pt" viewBox="0 0 597.191744 164.769095" xmlns="http://www.w3.org/2000/svg" version="1.1">
 <metadata>
  <rdf:RDF xmlns:dc="http://purl.org/dc/elements/1.1/" xmlns:cc="http://creativecommons.org/ns#" xmlns:rdf="http://www.w3.org/1999/02/22-rdf-syntax-ns#">
   <cc:Work>
    <dc:type rdf:resource="http://purl.org/dc/dcmitype/StillImage"/>
    <dc:date>2023-08-13T10:17:43.752311</dc:date>
    <dc:format>image/svg+xml</dc:format>
    <dc:creator>
     <cc:Agent>
      <dc:title>Matplotlib v3.5.1, https://matplotlib.org/</dc:title>
     </cc:Agent>
    </dc:creator>
   </cc:Work>
  </rdf:RDF>
 </metadata>
 <defs>
  <style type="text/css">*{stroke-linejoin: round; stroke-linecap: butt}</style>
 </defs>
 <g id="figure_1">
  <g id="patch_1">
   <path d="M 0 164.769095 
L 597.191744 164.769095 
L 597.191744 0 
L 0 0 
L 0 164.769095 
z
" style="fill: none"/>
  </g>
  <g id="axes_1">
   <g id="patch_2">
    <path d="M 35.591744 139.5 
L 593.591744 139.5 
L 593.591744 3.6 
L 35.591744 3.6 
z
" style="fill: #ffffff"/>
   </g>
   <g id="PathCollection_1">
    <defs>
     <path id="md6ebd35bca" d="M 0 1.5 
C 0.397805 1.5 0.77937 1.341951 1.06066 1.06066 
C 1.341951 0.77937 1.5 0.397805 1.5 0 
C 1.5 -0.397805 1.341951 -0.77937 1.06066 -1.06066 
C 0.77937 -1.341951 0.397805 -1.5 0 -1.5 
C -0.397805 -1.5 -0.77937 -1.341951 -1.06066 -1.06066 
C -1.341951 -0.77937 -1.5 -0.397805 -1.5 0 
C -1.5 0.397805 -1.341951 0.77937 -1.06066 1.06066 
C -0.77937 1.341951 -0.397805 1.5 0 1.5 
z
" style="stroke: #0000ff"/>
    </defs>
    <g clip-path="url(#p0bc76b82d5)">
     <use xlink:href="#md6ebd35bca" x="60.95538" y="10.076981" style="fill: #0000ff; stroke: #0000ff"/>
     <use xlink:href="#md6ebd35bca" x="62.704596" y="11.990094" style="fill: #0000ff; stroke: #0000ff"/>
     <use xlink:href="#md6ebd35bca" x="64.453813" y="17.57353" style="fill: #0000ff; stroke: #0000ff"/>
     <use xlink:href="#md6ebd35bca" x="66.203029" y="26.437065" style="fill: #0000ff; stroke: #0000ff"/>
     <use xlink:href="#md6ebd35bca" x="67.952245" y="38.004792" style="fill: #0000ff; stroke: #0000ff"/>
     <use xlink:href="#md6ebd35bca" x="69.701462" y="51.551991" style="fill: #0000ff; stroke: #0000ff"/>
     <use xlink:href="#md6ebd35bca" x="71.450677" y="66.250261" style="fill: #0000ff; stroke: #0000ff"/>
     <use xlink:href="#md6ebd35bca" x="73.199894" y="81.21785" style="fill: #0000ff; stroke: #0000ff"/>
     <use xlink:href="#md6ebd35bca" x="74.94911" y="95.572271" style="fill: #0000ff; stroke: #0000ff"/>
     <use xlink:href="#md6ebd35bca" x="76.698326" y="108.482091" style="fill: #0000ff; stroke: #0000ff"/>
     <use xlink:href="#md6ebd35bca" x="78.447543" y="119.214819" style="fill: #0000ff; stroke: #0000ff"/>
     <use xlink:href="#md6ebd35bca" x="80.196759" y="127.178167" style="fill: #0000ff; stroke: #0000ff"/>
     <use xlink:href="#md6ebd35bca" x="81.945975" y="131.952407" style="fill: #0000ff; stroke: #0000ff"/>
     <use xlink:href="#md6ebd35bca" x="83.695192" y="133.312049" style="fill: #0000ff; stroke: #0000ff"/>
     <use xlink:href="#md6ebd35bca" x="85.444408" y="131.235694" style="fill: #0000ff; stroke: #0000ff"/>
     <use xlink:href="#md6ebd35bca" x="87.193623" y="125.903885" style="fill: #0000ff; stroke: #0000ff"/>
     <use xlink:href="#md6ebd35bca" x="88.942841" y="117.684955" style="fill: #0000ff; stroke: #0000ff"/>
     <use xlink:href="#md6ebd35bca" x="90.692058" y="107.110318" style="fill: #0000ff; stroke: #0000ff"/>
     <use xlink:href="#md6ebd35bca" x="92.441272" y="94.840515" style="fill: #0000ff; stroke: #0000ff"/>
     <use xlink:href="#md6ebd35bca" x="94.190489" y="81.624103" style="fill: #0000ff; stroke: #0000ff"/>
     <use xlink:href="#md6ebd35bca" x="95.939707" y="68.252465" style="fill: #0000ff; stroke: #0000ff"/>
     <use xlink:href="#md6ebd35bca" x="97.688921" y="55.512552" style="fill: #0000ff; stroke: #0000ff"/>
     <use xlink:href="#md6ebd35bca" x="99.438138" y="44.140732" style="fill: #0000ff; stroke: #0000ff"/>
     <use xlink:href="#md6ebd35bca" x="101.187355" y="34.780632" style="fill: #0000ff; stroke: #0000ff"/>
     <use xlink:href="#md6ebd35bca" x="102.936573" y="27.946845" style="fill: #0000ff; stroke: #0000ff"/>
     <use xlink:href="#md6ebd35bca" x="104.685787" y="23.997019" style="fill: #0000ff; stroke: #0000ff"/>
     <use xlink:href="#md6ebd35bca" x="106.435004" y="23.113494" style="fill: #0000ff; stroke: #0000ff"/>
     <use xlink:href="#md6ebd35bca" x="108.184221" y="25.295697" style="fill: #0000ff; stroke: #0000ff"/>
     <use xlink:href="#md6ebd35bca" x="109.933435" y="30.36322" style="fill: #0000ff; stroke: #0000ff"/>
     <use xlink:href="#md6ebd35bca" x="111.682653" y="37.969536" style="fill: #0000ff; stroke: #0000ff"/>
    </g>
   </g>
   <g id="matplotlib.axis_1">
    <g id="xtick_1">
     <g id="line2d_1">
      <path d="M 60.95538 139.5 
L 60.95538 3.6 
" clip-path="url(#p0bc76b82d5)" style="fill: none; stroke: #b0b0b0; stroke-width: 0.5; stroke-linecap: square"/>
     </g>
     <g id="line2d_2">
      <defs>
       <path id="m3caed78cd2" d="M 0 0 
L 0 -3 
" style="stroke: #000000; stroke-width: 0.5"/>
      </defs>
      <g>
       <use xlink:href="#m3caed78cd2" x="60.95538" y="139.5" style="stroke: #000000; stroke-width: 0.5"/>
      </g>
     </g>
     <g id="line2d_3">
      <defs>
       <path id="m0adaaf20c9" d="M 0 0 
L 0 3 
" style="stroke: #000000; stroke-width: 0.5"/>
      </defs>
      <g>
       <use xlink:href="#m0adaaf20c9" x="60.95538" y="3.6" style="stroke: #000000; stroke-width: 0.5"/>
      </g>
     </g>
     <g id="text_1">
      <!-- $\mathdefault{0}$ -->
      <g transform="translate(58.838289 148.534802)scale(0.08 -0.08)">
       <defs>
        <path id="CMR17-30" d="M 2688 2025 
C 2688 2416 2682 3080 2413 3591 
C 2176 4039 1798 4198 1466 4198 
C 1158 4198 768 4058 525 3597 
C 269 3118 243 2524 243 2025 
C 243 1661 250 1106 448 619 
C 723 -39 1216 -128 1466 -128 
C 1760 -128 2208 -7 2470 600 
C 2662 1042 2688 1559 2688 2025 
z
M 1466 -26 
C 1056 -26 813 325 723 812 
C 653 1188 653 1738 653 2096 
C 653 2588 653 2997 736 3387 
C 858 3929 1216 4096 1466 4096 
C 1728 4096 2067 3923 2189 3400 
C 2272 3036 2278 2607 2278 2096 
C 2278 1680 2278 1169 2202 792 
C 2067 95 1690 -26 1466 -26 
z
" transform="scale(0.015625)"/>
       </defs>
       <use xlink:href="#CMR17-30" transform="scale(0.996264)"/>
      </g>
     </g>
    </g>
    <g id="xtick_2">
     <g id="line2d_4">
      <path d="M 162.409925 139.5 
L 162.409925 3.6 
" clip-path="url(#p0bc76b82d5)" style="fill: none; stroke: #b0b0b0; stroke-width: 0.5; stroke-linecap: square"/>
     </g>
     <g id="line2d_5">
      <g>
       <use xlink:href="#m3caed78cd2" x="162.409925" y="139.5" style="stroke: #000000; stroke-width: 0.5"/>
      </g>
     </g>
     <g id="line2d_6">
      <g>
       <use xlink:href="#m0adaaf20c9" x="162.409925" y="3.6" style="stroke: #000000; stroke-width: 0.5"/>
      </g>
     </g>
     <g id="text_2">
      <!-- $\mathdefault{2}$ -->
      <g transform="translate(160.292834 148.534802)scale(0.08 -0.08)">
       <defs>
        <path id="CMR17-32" d="M 2669 989 
L 2554 989 
C 2490 536 2438 459 2413 420 
C 2381 369 1920 369 1830 369 
L 602 369 
C 832 619 1280 1072 1824 1597 
C 2214 1967 2669 2402 2669 3035 
C 2669 3790 2067 4224 1395 4224 
C 691 4224 262 3604 262 3030 
C 262 2780 448 2748 525 2748 
C 589 2748 781 2787 781 3010 
C 781 3207 614 3264 525 3264 
C 486 3264 448 3258 422 3245 
C 544 3790 915 4058 1306 4058 
C 1862 4058 2227 3617 2227 3035 
C 2227 2479 1901 2000 1536 1584 
L 262 146 
L 262 0 
L 2515 0 
L 2669 989 
z
" transform="scale(0.015625)"/>
       </defs>
       <use xlink:href="#CMR17-32" transform="scale(0.996264)"/>
      </g>
     </g>
    </g>
    <g id="xtick_3">
     <g id="line2d_7">
      <path d="M 263.864471 139.5 
L 263.864471 3.6 
" clip-path="url(#p0bc76b82d5)" style="fill: none; stroke: #b0b0b0; stroke-width: 0.5; stroke-linecap: square"/>
     </g>
     <g id="line2d_8">
      <g>
       <use xlink:href="#m3caed78cd2" x="263.864471" y="139.5" style="stroke: #000000; stroke-width: 0.5"/>
      </g>
     </g>
     <g id="line2d_9">
      <g>
       <use xlink:href="#m0adaaf20c9" x="263.864471" y="3.6" style="stroke: #000000; stroke-width: 0.5"/>
      </g>
     </g>
     <g id="text_3">
      <!-- $\mathdefault{4}$ -->
      <g transform="translate(261.747379 148.534802)scale(0.08 -0.08)">
       <defs>
        <path id="CMR17-34" d="M 2150 4122 
C 2150 4256 2144 4256 2029 4256 
L 128 1254 
L 128 1088 
L 1779 1088 
L 1779 457 
C 1779 224 1766 160 1318 160 
L 1197 160 
L 1197 0 
C 1402 0 1747 0 1965 0 
C 2182 0 2528 0 2733 0 
L 2733 160 
L 2611 160 
C 2163 160 2150 224 2150 457 
L 2150 1088 
L 2803 1088 
L 2803 1254 
L 2150 1254 
L 2150 4122 
z
M 1798 3703 
L 1798 1254 
L 256 1254 
L 1798 3703 
z
" transform="scale(0.015625)"/>
       </defs>
       <use xlink:href="#CMR17-34" transform="scale(0.996264)"/>
      </g>
     </g>
    </g>
    <g id="xtick_4">
     <g id="line2d_10">
      <path d="M 365.319016 139.5 
L 365.319016 3.6 
" clip-path="url(#p0bc76b82d5)" style="fill: none; stroke: #b0b0b0; stroke-width: 0.5; stroke-linecap: square"/>
     </g>
     <g id="line2d_11">
      <g>
       <use xlink:href="#m3caed78cd2" x="365.319016" y="139.5" style="stroke: #000000; stroke-width: 0.5"/>
      </g>
     </g>
     <g id="line2d_12">
      <g>
       <use xlink:href="#m0adaaf20c9" x="365.319016" y="3.6" style="stroke: #000000; stroke-width: 0.5"/>
      </g>
     </g>
     <g id="text_4">
      <!-- $\mathdefault{6}$ -->
      <g transform="translate(363.201925 148.534802)scale(0.08 -0.08)">
       <defs>
        <path id="CMR17-36" d="M 678 2176 
C 678 3690 1395 4032 1811 4032 
C 1946 4032 2272 4009 2400 3776 
C 2298 3776 2106 3776 2106 3553 
C 2106 3381 2246 3323 2336 3323 
C 2394 3323 2566 3348 2566 3560 
C 2566 3954 2246 4179 1805 4179 
C 1043 4179 243 3390 243 1984 
C 243 253 966 -128 1478 -128 
C 2099 -128 2688 427 2688 1283 
C 2688 2081 2170 2662 1517 2662 
C 1126 2662 838 2407 678 1960 
L 678 2176 
z
M 1478 25 
C 691 25 691 1200 691 1436 
C 691 1896 909 2560 1504 2560 
C 1613 2560 1926 2560 2138 2120 
C 2253 1870 2253 1609 2253 1289 
C 2253 944 2253 690 2118 434 
C 1978 171 1773 25 1478 25 
z
" transform="scale(0.015625)"/>
       </defs>
       <use xlink:href="#CMR17-36" transform="scale(0.996264)"/>
      </g>
     </g>
    </g>
    <g id="xtick_5">
     <g id="line2d_13">
      <path d="M 466.773562 139.5 
L 466.773562 3.6 
" clip-path="url(#p0bc76b82d5)" style="fill: none; stroke: #b0b0b0; stroke-width: 0.5; stroke-linecap: square"/>
     </g>
     <g id="line2d_14">
      <g>
       <use xlink:href="#m3caed78cd2" x="466.773562" y="139.5" style="stroke: #000000; stroke-width: 0.5"/>
      </g>
     </g>
     <g id="line2d_15">
      <g>
       <use xlink:href="#m0adaaf20c9" x="466.773562" y="3.6" style="stroke: #000000; stroke-width: 0.5"/>
      </g>
     </g>
     <g id="text_5">
      <!-- $\mathdefault{8}$ -->
      <g transform="translate(464.65647 148.534802)scale(0.08 -0.08)">
       <defs>
        <path id="CMR17-38" d="M 1741 2264 
C 2144 2467 2554 2773 2554 3263 
C 2554 3841 1990 4179 1472 4179 
C 890 4179 378 3759 378 3180 
C 378 3021 416 2747 666 2505 
C 730 2442 998 2251 1171 2130 
C 883 1983 211 1634 211 934 
C 211 279 838 -128 1459 -128 
C 2144 -128 2720 362 2720 1010 
C 2720 1590 2330 1857 2074 2029 
L 1741 2264 
z
M 902 2822 
C 851 2854 595 3051 595 3351 
C 595 3739 998 4032 1459 4032 
C 1965 4032 2336 3676 2336 3262 
C 2336 2669 1670 2331 1638 2331 
C 1632 2331 1626 2331 1574 2370 
L 902 2822 
z
M 2080 1519 
C 2176 1449 2483 1240 2483 851 
C 2483 381 2010 25 1472 25 
C 890 25 448 438 448 940 
C 448 1443 838 1862 1280 2060 
L 2080 1519 
z
" transform="scale(0.015625)"/>
       </defs>
       <use xlink:href="#CMR17-38" transform="scale(0.996264)"/>
      </g>
     </g>
    </g>
    <g id="xtick_6">
     <g id="line2d_16">
      <path d="M 568.228107 139.5 
L 568.228107 3.6 
" clip-path="url(#p0bc76b82d5)" style="fill: none; stroke: #b0b0b0; stroke-width: 0.5; stroke-linecap: square"/>
     </g>
     <g id="line2d_17">
      <g>
       <use xlink:href="#m3caed78cd2" x="568.228107" y="139.5" style="stroke: #000000; stroke-width: 0.5"/>
      </g>
     </g>
     <g id="line2d_18">
      <g>
       <use xlink:href="#m0adaaf20c9" x="568.228107" y="3.6" style="stroke: #000000; stroke-width: 0.5"/>
      </g>
     </g>
     <g id="text_6">
      <!-- $\mathdefault{10}$ -->
      <g transform="translate(563.993924 148.534802)scale(0.08 -0.08)">
       <defs>
        <path id="CMR17-31" d="M 1702 4058 
C 1702 4192 1696 4192 1606 4192 
C 1357 3916 979 3827 621 3827 
C 602 3827 570 3827 563 3808 
C 557 3795 557 3782 557 3648 
C 755 3648 1088 3686 1344 3839 
L 1344 461 
C 1344 236 1331 160 781 160 
L 589 160 
L 589 0 
C 896 0 1216 0 1523 0 
C 1830 0 2150 0 2458 0 
L 2458 160 
L 2266 160 
C 1715 160 1702 230 1702 458 
L 1702 4058 
z
" transform="scale(0.015625)"/>
       </defs>
       <use xlink:href="#CMR17-31" transform="scale(0.996264)"/>
       <use xlink:href="#CMR17-30" transform="translate(45.690477 0)scale(0.996264)"/>
      </g>
     </g>
    </g>
    <g id="xtick_7">
     <g id="line2d_19">
      <defs>
       <path id="mc6ca0f0fa7" d="M 0 0 
L 0 -1.5 
" style="stroke: #000000; stroke-width: 0.5"/>
      </defs>
      <g>
       <use xlink:href="#mc6ca0f0fa7" x="86.319016" y="139.5" style="stroke: #000000; stroke-width: 0.5"/>
      </g>
     </g>
     <g id="line2d_20">
      <defs>
       <path id="mb06d64495b" d="M 0 0 
L 0 1.5 
" style="stroke: #000000; stroke-width: 0.5"/>
      </defs>
      <g>
       <use xlink:href="#mb06d64495b" x="86.319016" y="3.6" style="stroke: #000000; stroke-width: 0.5"/>
      </g>
     </g>
    </g>
    <g id="xtick_8">
     <g id="line2d_21">
      <g>
       <use xlink:href="#mc6ca0f0fa7" x="111.682653" y="139.5" style="stroke: #000000; stroke-width: 0.5"/>
      </g>
     </g>
     <g id="line2d_22">
      <g>
       <use xlink:href="#mb06d64495b" x="111.682653" y="3.6" style="stroke: #000000; stroke-width: 0.5"/>
      </g>
     </g>
    </g>
    <g id="xtick_9">
     <g id="line2d_23">
      <g>
       <use xlink:href="#mc6ca0f0fa7" x="137.046289" y="139.5" style="stroke: #000000; stroke-width: 0.5"/>
      </g>
     </g>
     <g id="line2d_24">
      <g>
       <use xlink:href="#mb06d64495b" x="137.046289" y="3.6" style="stroke: #000000; stroke-width: 0.5"/>
      </g>
     </g>
    </g>
    <g id="xtick_10">
     <g id="line2d_25">
      <g>
       <use xlink:href="#mc6ca0f0fa7" x="187.773562" y="139.5" style="stroke: #000000; stroke-width: 0.5"/>
      </g>
     </g>
     <g id="line2d_26">
      <g>
       <use xlink:href="#mb06d64495b" x="187.773562" y="3.6" style="stroke: #000000; stroke-width: 0.5"/>
      </g>
     </g>
    </g>
    <g id="xtick_11">
     <g id="line2d_27">
      <g>
       <use xlink:href="#mc6ca0f0fa7" x="213.137198" y="139.5" style="stroke: #000000; stroke-width: 0.5"/>
      </g>
     </g>
     <g id="line2d_28">
      <g>
       <use xlink:href="#mb06d64495b" x="213.137198" y="3.6" style="stroke: #000000; stroke-width: 0.5"/>
      </g>
     </g>
    </g>
    <g id="xtick_12">
     <g id="line2d_29">
      <g>
       <use xlink:href="#mc6ca0f0fa7" x="238.500835" y="139.5" style="stroke: #000000; stroke-width: 0.5"/>
      </g>
     </g>
     <g id="line2d_30">
      <g>
       <use xlink:href="#mb06d64495b" x="238.500835" y="3.6" style="stroke: #000000; stroke-width: 0.5"/>
      </g>
     </g>
    </g>
    <g id="xtick_13">
     <g id="line2d_31">
      <g>
       <use xlink:href="#mc6ca0f0fa7" x="289.228107" y="139.5" style="stroke: #000000; stroke-width: 0.5"/>
      </g>
     </g>
     <g id="line2d_32">
      <g>
       <use xlink:href="#mb06d64495b" x="289.228107" y="3.6" style="stroke: #000000; stroke-width: 0.5"/>
      </g>
     </g>
    </g>
    <g id="xtick_14">
     <g id="line2d_33">
      <g>
       <use xlink:href="#mc6ca0f0fa7" x="314.591744" y="139.5" style="stroke: #000000; stroke-width: 0.5"/>
      </g>
     </g>
     <g id="line2d_34">
      <g>
       <use xlink:href="#mb06d64495b" x="314.591744" y="3.6" style="stroke: #000000; stroke-width: 0.5"/>
      </g>
     </g>
    </g>
    <g id="xtick_15">
     <g id="line2d_35">
      <g>
       <use xlink:href="#mc6ca0f0fa7" x="339.95538" y="139.5" style="stroke: #000000; stroke-width: 0.5"/>
      </g>
     </g>
     <g id="line2d_36">
      <g>
       <use xlink:href="#mb06d64495b" x="339.95538" y="3.6" style="stroke: #000000; stroke-width: 0.5"/>
      </g>
     </g>
    </g>
    <g id="xtick_16">
     <g id="line2d_37">
      <g>
       <use xlink:href="#mc6ca0f0fa7" x="390.682653" y="139.5" style="stroke: #000000; stroke-width: 0.5"/>
      </g>
     </g>
     <g id="line2d_38">
      <g>
       <use xlink:href="#mb06d64495b" x="390.682653" y="3.6" style="stroke: #000000; stroke-width: 0.5"/>
      </g>
     </g>
    </g>
    <g id="xtick_17">
     <g id="line2d_39">
      <g>
       <use xlink:href="#mc6ca0f0fa7" x="416.046289" y="139.5" style="stroke: #000000; stroke-width: 0.5"/>
      </g>
     </g>
     <g id="line2d_40">
      <g>
       <use xlink:href="#mb06d64495b" x="416.046289" y="3.6" style="stroke: #000000; stroke-width: 0.5"/>
      </g>
     </g>
    </g>
    <g id="xtick_18">
     <g id="line2d_41">
      <g>
       <use xlink:href="#mc6ca0f0fa7" x="441.409925" y="139.5" style="stroke: #000000; stroke-width: 0.5"/>
      </g>
     </g>
     <g id="line2d_42">
      <g>
       <use xlink:href="#mb06d64495b" x="441.409925" y="3.6" style="stroke: #000000; stroke-width: 0.5"/>
      </g>
     </g>
    </g>
    <g id="xtick_19">
     <g id="line2d_43">
      <g>
       <use xlink:href="#mc6ca0f0fa7" x="492.137198" y="139.5" style="stroke: #000000; stroke-width: 0.5"/>
      </g>
     </g>
     <g id="line2d_44">
      <g>
       <use xlink:href="#mb06d64495b" x="492.137198" y="3.6" style="stroke: #000000; stroke-width: 0.5"/>
      </g>
     </g>
    </g>
    <g id="xtick_20">
     <g id="line2d_45">
      <g>
       <use xlink:href="#mc6ca0f0fa7" x="517.500835" y="139.5" style="stroke: #000000; stroke-width: 0.5"/>
      </g>
     </g>
     <g id="line2d_46">
      <g>
       <use xlink:href="#mb06d64495b" x="517.500835" y="3.6" style="stroke: #000000; stroke-width: 0.5"/>
      </g>
     </g>
    </g>
    <g id="xtick_21">
     <g id="line2d_47">
      <g>
       <use xlink:href="#mc6ca0f0fa7" x="542.864471" y="139.5" style="stroke: #000000; stroke-width: 0.5"/>
      </g>
     </g>
     <g id="line2d_48">
      <g>
       <use xlink:href="#mb06d64495b" x="542.864471" y="3.6" style="stroke: #000000; stroke-width: 0.5"/>
      </g>
     </g>
    </g>
    <g id="xtick_22">
     <g id="line2d_49">
      <g>
       <use xlink:href="#mc6ca0f0fa7" x="593.591744" y="139.5" style="stroke: #000000; stroke-width: 0.5"/>
      </g>
     </g>
     <g id="line2d_50">
      <g>
       <use xlink:href="#mb06d64495b" x="593.591744" y="3.6" style="stroke: #000000; stroke-width: 0.5"/>
      </g>
     </g>
    </g>
    <g id="text_7">
     <!-- Time -->
     <g transform="translate(304.947216 159.619349)scale(0.08 -0.08)">
      <defs>
       <path id="CMR17-54" d="M 3981 4326 
L 288 4326 
L 179 2918 
L 294 2918 
C 378 3976 467 4160 1453 4160 
C 1568 4160 1754 4160 1805 4154 
C 1926 4135 1926 4058 1926 3912 
L 1926 459 
C 1926 230 1907 160 1376 160 
L 1197 160 
L 1197 0 
C 1504 0 1824 0 2138 0 
C 2451 0 2771 0 3078 0 
L 3078 160 
L 2899 160 
C 2368 160 2349 230 2349 459 
L 2349 3912 
C 2349 4052 2349 4129 2464 4154 
C 2515 4160 2701 4160 2816 4160 
C 3795 4160 3891 3976 3974 2918 
L 4090 2918 
L 3981 4326 
z
" transform="scale(0.015625)"/>
       <path id="CMR17-69" d="M 992 3909 
C 992 4049 877 4170 730 4170 
C 589 4170 467 4056 467 3909 
C 467 3769 582 3648 730 3648 
C 870 3648 992 3763 992 3909 
z
M 243 2706 
L 243 2541 
C 602 2541 653 2502 653 2197 
L 653 427 
C 653 184 627 153 218 153 
L 218 -13 
C 371 0 646 0 806 0 
C 960 0 1222 0 1370 -13 
L 1370 153 
C 992 153 979 191 979 420 
L 979 2776 
L 243 2706 
z
" transform="scale(0.015625)"/>
       <path id="CMR17-6d" d="M 4326 1933 
C 4326 2252 4269 2790 3507 2790 
C 3072 2790 2771 2496 2656 2151 
L 2650 2151 
C 2573 2676 2195 2790 1837 2790 
C 1331 2790 1069 2400 973 2144 
L 966 2144 
L 966 2790 
L 211 2720 
L 211 2554 
C 589 2554 646 2515 646 2208 
L 646 428 
C 646 184 621 153 211 153 
L 211 -13 
C 365 0 646 0 813 0 
C 979 0 1267 0 1421 -13 
L 1421 153 
C 1011 153 986 178 986 428 
L 986 1658 
C 986 2247 1344 2688 1792 2688 
C 2266 2688 2317 2266 2317 1958 
L 2317 428 
C 2317 184 2291 153 1882 153 
L 1882 -13 
C 2035 0 2317 0 2483 0 
C 2650 0 2938 0 3091 -13 
L 3091 153 
C 2682 153 2656 178 2656 428 
L 2656 1658 
C 2656 2247 3014 2688 3462 2688 
C 3936 2688 3987 2266 3987 1958 
L 3987 428 
C 3987 184 3962 153 3552 153 
L 3552 -13 
C 3706 0 3987 0 4154 0 
C 4320 0 4608 0 4762 -13 
L 4762 153 
C 4352 153 4326 178 4326 428 
L 4326 1933 
z
" transform="scale(0.015625)"/>
       <path id="CMR17-65" d="M 2438 1472 
C 2464 1498 2464 1511 2464 1576 
C 2464 2238 2118 2816 1389 2816 
C 710 2816 173 2169 173 1383 
C 173 551 781 -64 1459 -64 
C 2176 -64 2458 607 2458 740 
C 2458 784 2419 784 2406 784 
C 2362 784 2355 771 2330 696 
C 2189 265 1837 51 1504 51 
C 1229 51 954 203 781 480 
C 582 803 582 1176 582 1472 
L 2438 1472 
z
M 589 1568 
C 634 2505 1126 2714 1382 2714 
C 1818 2714 2112 2297 2118 1568 
L 589 1568 
z
" transform="scale(0.015625)"/>
      </defs>
      <use xlink:href="#CMR17-54" transform="scale(0.996264)"/>
      <use xlink:href="#CMR17-69" transform="translate(66.509881 0)scale(0.996264)"/>
      <use xlink:href="#CMR17-6d" transform="translate(91.380939 0)scale(0.996264)"/>
      <use xlink:href="#CMR17-65" transform="translate(168.300529 0)scale(0.996264)"/>
     </g>
    </g>
   </g>
   <g id="matplotlib.axis_2">
    <g id="ytick_1">
     <g id="line2d_51">
      <path d="M 35.591744 107.650042 
L 593.591744 107.650042 
" clip-path="url(#p0bc76b82d5)" style="fill: none; stroke: #b0b0b0; stroke-width: 0.5; stroke-linecap: square"/>
     </g>
     <g id="line2d_52">
      <defs>
       <path id="m6ff6051a60" d="M 0 0 
L 3 0 
" style="stroke: #000000; stroke-width: 0.5"/>
      </defs>
      <g>
       <use xlink:href="#m6ff6051a60" x="35.591744" y="107.650042" style="stroke: #000000; stroke-width: 0.5"/>
      </g>
     </g>
     <g id="line2d_53">
      <defs>
       <path id="ma049bdd4ae" d="M 0 0 
L -3 0 
" style="stroke: #000000; stroke-width: 0.5"/>
      </defs>
      <g>
       <use xlink:href="#ma049bdd4ae" x="593.591744" y="107.650042" style="stroke: #000000; stroke-width: 0.5"/>
      </g>
     </g>
     <g id="text_8">
      <!-- $\mathdefault{−0.5}$ -->
      <g transform="translate(14.684547 110.417443)scale(0.08 -0.08)">
       <defs>
        <path id="CMSY10-0" d="M 4218 1472 
C 4326 1472 4442 1472 4442 1600 
C 4442 1728 4326 1728 4218 1728 
L 755 1728 
C 646 1728 531 1728 531 1600 
C 531 1472 646 1472 755 1472 
L 4218 1472 
z
" transform="scale(0.015625)"/>
        <path id="CMMI12-3a" d="M 1178 307 
C 1178 492 1024 619 870 619 
C 685 619 557 466 557 313 
C 557 128 710 0 864 0 
C 1050 0 1178 153 1178 307 
z
" transform="scale(0.015625)"/>
        <path id="CMR17-35" d="M 730 3692 
C 794 3666 1056 3584 1325 3584 
C 1920 3584 2246 3911 2432 4100 
C 2432 4157 2432 4192 2394 4192 
C 2387 4192 2374 4192 2323 4163 
C 2099 4058 1837 3973 1517 3973 
C 1325 3973 1037 3999 723 4139 
C 653 4171 640 4171 634 4171 
C 602 4171 595 4164 595 4037 
L 595 2203 
C 595 2089 595 2057 659 2057 
C 691 2057 704 2070 736 2114 
C 941 2401 1222 2522 1542 2522 
C 1766 2522 2246 2382 2246 1289 
C 2246 1085 2246 715 2054 421 
C 1894 159 1645 25 1370 25 
C 947 25 518 320 403 814 
C 429 807 480 795 506 795 
C 589 795 749 840 749 1038 
C 749 1210 627 1280 506 1280 
C 358 1280 262 1190 262 1011 
C 262 454 704 -128 1382 -128 
C 2042 -128 2669 440 2669 1264 
C 2669 2030 2170 2624 1549 2624 
C 1222 2624 947 2503 730 2274 
L 730 3692 
z
" transform="scale(0.015625)"/>
       </defs>
       <use xlink:href="#CMSY10-0" transform="scale(0.996264)"/>
       <use xlink:href="#CMR17-30" transform="translate(77.487468 0)scale(0.996264)"/>
       <use xlink:href="#CMMI12-3a" transform="translate(123.177945 0)scale(0.996264)"/>
       <use xlink:href="#CMR17-35" transform="translate(150.275122 0)scale(0.996264)"/>
      </g>
     </g>
    </g>
    <g id="ytick_2">
     <g id="line2d_54">
      <path d="M 35.591744 75.125688 
L 593.591744 75.125688 
" clip-path="url(#p0bc76b82d5)" style="fill: none; stroke: #b0b0b0; stroke-width: 0.5; stroke-linecap: square"/>
     </g>
     <g id="line2d_55">
      <g>
       <use xlink:href="#m6ff6051a60" x="35.591744" y="75.125688" style="stroke: #000000; stroke-width: 0.5"/>
      </g>
     </g>
     <g id="line2d_56">
      <g>
       <use xlink:href="#ma049bdd4ae" x="593.591744" y="75.125688" style="stroke: #000000; stroke-width: 0.5"/>
      </g>
     </g>
     <g id="text_9">
      <!-- $\mathdefault{0.0}$ -->
      <g transform="translate(21.271054 77.893089)scale(0.08 -0.08)">
       <use xlink:href="#CMR17-30" transform="scale(0.996264)"/>
       <use xlink:href="#CMMI12-3a" transform="translate(45.690477 0)scale(0.996264)"/>
       <use xlink:href="#CMR17-30" transform="translate(72.787654 0)scale(0.996264)"/>
      </g>
     </g>
    </g>
    <g id="ytick_3">
     <g id="line2d_57">
      <path d="M 35.591744 42.601335 
L 593.591744 42.601335 
" clip-path="url(#p0bc76b82d5)" style="fill: none; stroke: #b0b0b0; stroke-width: 0.5; stroke-linecap: square"/>
     </g>
     <g id="line2d_58">
      <g>
       <use xlink:href="#m6ff6051a60" x="35.591744" y="42.601335" style="stroke: #000000; stroke-width: 0.5"/>
      </g>
     </g>
     <g id="line2d_59">
      <g>
       <use xlink:href="#ma049bdd4ae" x="593.591744" y="42.601335" style="stroke: #000000; stroke-width: 0.5"/>
      </g>
     </g>
     <g id="text_10">
      <!-- $\mathdefault{0.5}$ -->
      <g transform="translate(21.271054 45.368735)scale(0.08 -0.08)">
       <use xlink:href="#CMR17-30" transform="scale(0.996264)"/>
       <use xlink:href="#CMMI12-3a" transform="translate(45.690477 0)scale(0.996264)"/>
       <use xlink:href="#CMR17-35" transform="translate(72.787654 0)scale(0.996264)"/>
      </g>
     </g>
    </g>
    <g id="ytick_4">
     <g id="line2d_60">
      <path d="M 35.591744 10.076981 
L 593.591744 10.076981 
" clip-path="url(#p0bc76b82d5)" style="fill: none; stroke: #b0b0b0; stroke-width: 0.5; stroke-linecap: square"/>
     </g>
     <g id="line2d_61">
      <g>
       <use xlink:href="#m6ff6051a60" x="35.591744" y="10.076981" style="stroke: #000000; stroke-width: 0.5"/>
      </g>
     </g>
     <g id="line2d_62">
      <g>
       <use xlink:href="#ma049bdd4ae" x="593.591744" y="10.076981" style="stroke: #000000; stroke-width: 0.5"/>
      </g>
     </g>
     <g id="text_11">
      <!-- $\mathdefault{1.0}$ -->
      <g transform="translate(21.271054 12.844382)scale(0.08 -0.08)">
       <use xlink:href="#CMR17-31" transform="scale(0.996264)"/>
       <use xlink:href="#CMMI12-3a" transform="translate(45.690477 0)scale(0.996264)"/>
       <use xlink:href="#CMR17-30" transform="translate(72.787654 0)scale(0.996264)"/>
      </g>
     </g>
    </g>
    <g id="ytick_5">
     <g id="line2d_63">
      <defs>
       <path id="m41ae7dc7d2" d="M 0 0 
L 1.5 0 
" style="stroke: #000000; stroke-width: 0.5"/>
      </defs>
      <g>
       <use xlink:href="#m41ae7dc7d2" x="35.591744" y="133.669525" style="stroke: #000000; stroke-width: 0.5"/>
      </g>
     </g>
     <g id="line2d_64">
      <defs>
       <path id="mbad9eb9eeb" d="M 0 0 
L -1.5 0 
" style="stroke: #000000; stroke-width: 0.5"/>
      </defs>
      <g>
       <use xlink:href="#mbad9eb9eeb" x="593.591744" y="133.669525" style="stroke: #000000; stroke-width: 0.5"/>
      </g>
     </g>
    </g>
    <g id="ytick_6">
     <g id="line2d_65">
      <g>
       <use xlink:href="#m41ae7dc7d2" x="35.591744" y="127.164655" style="stroke: #000000; stroke-width: 0.5"/>
      </g>
     </g>
     <g id="line2d_66">
      <g>
       <use xlink:href="#mbad9eb9eeb" x="593.591744" y="127.164655" style="stroke: #000000; stroke-width: 0.5"/>
      </g>
     </g>
    </g>
    <g id="ytick_7">
     <g id="line2d_67">
      <g>
       <use xlink:href="#m41ae7dc7d2" x="35.591744" y="120.659784" style="stroke: #000000; stroke-width: 0.5"/>
      </g>
     </g>
     <g id="line2d_68">
      <g>
       <use xlink:href="#mbad9eb9eeb" x="593.591744" y="120.659784" style="stroke: #000000; stroke-width: 0.5"/>
      </g>
     </g>
    </g>
    <g id="ytick_8">
     <g id="line2d_69">
      <g>
       <use xlink:href="#m41ae7dc7d2" x="35.591744" y="114.154913" style="stroke: #000000; stroke-width: 0.5"/>
      </g>
     </g>
     <g id="line2d_70">
      <g>
       <use xlink:href="#mbad9eb9eeb" x="593.591744" y="114.154913" style="stroke: #000000; stroke-width: 0.5"/>
      </g>
     </g>
    </g>
    <g id="ytick_9">
     <g id="line2d_71">
      <g>
       <use xlink:href="#m41ae7dc7d2" x="35.591744" y="101.145172" style="stroke: #000000; stroke-width: 0.5"/>
      </g>
     </g>
     <g id="line2d_72">
      <g>
       <use xlink:href="#mbad9eb9eeb" x="593.591744" y="101.145172" style="stroke: #000000; stroke-width: 0.5"/>
      </g>
     </g>
    </g>
    <g id="ytick_10">
     <g id="line2d_73">
      <g>
       <use xlink:href="#m41ae7dc7d2" x="35.591744" y="94.640301" style="stroke: #000000; stroke-width: 0.5"/>
      </g>
     </g>
     <g id="line2d_74">
      <g>
       <use xlink:href="#mbad9eb9eeb" x="593.591744" y="94.640301" style="stroke: #000000; stroke-width: 0.5"/>
      </g>
     </g>
    </g>
    <g id="ytick_11">
     <g id="line2d_75">
      <g>
       <use xlink:href="#m41ae7dc7d2" x="35.591744" y="88.13543" style="stroke: #000000; stroke-width: 0.5"/>
      </g>
     </g>
     <g id="line2d_76">
      <g>
       <use xlink:href="#mbad9eb9eeb" x="593.591744" y="88.13543" style="stroke: #000000; stroke-width: 0.5"/>
      </g>
     </g>
    </g>
    <g id="ytick_12">
     <g id="line2d_77">
      <g>
       <use xlink:href="#m41ae7dc7d2" x="35.591744" y="81.630559" style="stroke: #000000; stroke-width: 0.5"/>
      </g>
     </g>
     <g id="line2d_78">
      <g>
       <use xlink:href="#mbad9eb9eeb" x="593.591744" y="81.630559" style="stroke: #000000; stroke-width: 0.5"/>
      </g>
     </g>
    </g>
    <g id="ytick_13">
     <g id="line2d_79">
      <g>
       <use xlink:href="#m41ae7dc7d2" x="35.591744" y="68.620818" style="stroke: #000000; stroke-width: 0.5"/>
      </g>
     </g>
     <g id="line2d_80">
      <g>
       <use xlink:href="#mbad9eb9eeb" x="593.591744" y="68.620818" style="stroke: #000000; stroke-width: 0.5"/>
      </g>
     </g>
    </g>
    <g id="ytick_14">
     <g id="line2d_81">
      <g>
       <use xlink:href="#m41ae7dc7d2" x="35.591744" y="62.115947" style="stroke: #000000; stroke-width: 0.5"/>
      </g>
     </g>
     <g id="line2d_82">
      <g>
       <use xlink:href="#mbad9eb9eeb" x="593.591744" y="62.115947" style="stroke: #000000; stroke-width: 0.5"/>
      </g>
     </g>
    </g>
    <g id="ytick_15">
     <g id="line2d_83">
      <g>
       <use xlink:href="#m41ae7dc7d2" x="35.591744" y="55.611076" style="stroke: #000000; stroke-width: 0.5"/>
      </g>
     </g>
     <g id="line2d_84">
      <g>
       <use xlink:href="#mbad9eb9eeb" x="593.591744" y="55.611076" style="stroke: #000000; stroke-width: 0.5"/>
      </g>
     </g>
    </g>
    <g id="ytick_16">
     <g id="line2d_85">
      <g>
       <use xlink:href="#m41ae7dc7d2" x="35.591744" y="49.106205" style="stroke: #000000; stroke-width: 0.5"/>
      </g>
     </g>
     <g id="line2d_86">
      <g>
       <use xlink:href="#mbad9eb9eeb" x="593.591744" y="49.106205" style="stroke: #000000; stroke-width: 0.5"/>
      </g>
     </g>
    </g>
    <g id="ytick_17">
     <g id="line2d_87">
      <g>
       <use xlink:href="#m41ae7dc7d2" x="35.591744" y="36.096464" style="stroke: #000000; stroke-width: 0.5"/>
      </g>
     </g>
     <g id="line2d_88">
      <g>
       <use xlink:href="#mbad9eb9eeb" x="593.591744" y="36.096464" style="stroke: #000000; stroke-width: 0.5"/>
      </g>
     </g>
    </g>
    <g id="ytick_18">
     <g id="line2d_89">
      <g>
       <use xlink:href="#m41ae7dc7d2" x="35.591744" y="29.591593" style="stroke: #000000; stroke-width: 0.5"/>
      </g>
     </g>
     <g id="line2d_90">
      <g>
       <use xlink:href="#mbad9eb9eeb" x="593.591744" y="29.591593" style="stroke: #000000; stroke-width: 0.5"/>
      </g>
     </g>
    </g>
    <g id="ytick_19">
     <g id="line2d_91">
      <g>
       <use xlink:href="#m41ae7dc7d2" x="35.591744" y="23.086722" style="stroke: #000000; stroke-width: 0.5"/>
      </g>
     </g>
     <g id="line2d_92">
      <g>
       <use xlink:href="#mbad9eb9eeb" x="593.591744" y="23.086722" style="stroke: #000000; stroke-width: 0.5"/>
      </g>
     </g>
    </g>
    <g id="ytick_20">
     <g id="line2d_93">
      <g>
       <use xlink:href="#m41ae7dc7d2" x="35.591744" y="16.581851" style="stroke: #000000; stroke-width: 0.5"/>
      </g>
     </g>
     <g id="line2d_94">
      <g>
       <use xlink:href="#mbad9eb9eeb" x="593.591744" y="16.581851" style="stroke: #000000; stroke-width: 0.5"/>
      </g>
     </g>
    </g>
    <g id="text_12">
     <!-- Displacement -->
     <g transform="translate(9.134802 96.329658)rotate(-90)scale(0.08 -0.08)">
      <defs>
       <path id="CMR17-44" d="M 333 4352 
L 333 4186 
C 774 4186 845 4186 845 3900 
L 845 452 
C 845 166 774 166 333 166 
L 333 0 
L 2368 0 
C 3398 0 4224 943 4224 2141 
C 4224 3346 3411 4352 2368 4352 
L 333 4352 
z
M 1523 166 
C 1267 166 1254 197 1254 414 
L 1254 3938 
C 1254 4155 1267 4186 1523 4186 
L 2240 4186 
C 2771 4186 3750 3874 3750 2141 
C 3750 1242 3488 879 3366 707 
C 3213 510 2848 166 2240 166 
L 1523 166 
z
" transform="scale(0.015625)"/>
       <path id="CMR17-73" d="M 1978 2697 
C 1978 2813 1971 2819 1933 2819 
C 1907 2819 1901 2813 1824 2717 
C 1805 2691 1747 2626 1728 2601 
C 1523 2819 1235 2819 1126 2819 
C 416 2819 160 2447 160 2076 
C 160 1498 813 1365 998 1325 
C 1402 1243 1542 1217 1677 1101 
C 1760 1025 1901 884 1901 654 
C 1901 384 1747 38 1158 38 
C 602 38 403 460 288 1021 
C 269 1110 269 1117 218 1117 
C 166 1117 160 1110 160 983 
L 160 63 
C 160 -51 166 -58 205 -58 
C 237 -58 243 -51 275 0 
C 314 57 410 211 448 276 
C 576 103 800 -64 1158 -64 
C 1792 -64 2131 283 2131 784 
C 2131 1112 1958 1285 1875 1362 
C 1683 1561 1459 1606 1190 1657 
C 838 1735 390 1825 390 2217 
C 390 2383 480 2737 1126 2737 
C 1811 2737 1850 2094 1862 1888 
C 1869 1856 1901 1849 1920 1849 
C 1978 1849 1978 1869 1978 1978 
L 1978 2697 
z
" transform="scale(0.015625)"/>
       <path id="CMR17-70" d="M 1408 -1063 
C 998 -1063 973 -1037 973 -789 
L 973 402 
C 1158 134 1427 -38 1766 -38 
C 2406 -38 3053 523 3053 1388 
C 3053 2191 2496 2802 1837 2802 
C 1453 2802 1139 2592 960 2338 
L 960 2802 
L 198 2732 
L 198 2567 
C 576 2567 634 2528 634 2223 
L 634 -789 
C 634 -1031 608 -1063 198 -1063 
L 198 -1228 
C 352 -1216 634 -1216 800 -1216 
C 966 -1216 1254 -1216 1408 -1228 
L 1408 -1063 
z
M 973 2012 
C 973 2102 973 2235 1222 2471 
C 1254 2497 1472 2688 1792 2688 
C 2259 2688 2643 2108 2643 1382 
C 2643 656 2234 64 1728 64 
C 1498 64 1248 172 1056 472 
C 973 612 973 650 973 752 
L 973 2012 
z
" transform="scale(0.015625)"/>
       <path id="CMR17-6c" d="M 979 4396 
L 218 4326 
L 218 4160 
C 595 4160 653 4122 653 3817 
L 653 426 
C 653 184 627 153 218 153 
L 218 -13 
C 371 0 653 0 813 0 
C 979 0 1261 0 1414 -13 
L 1414 153 
C 1005 153 979 178 979 426 
L 979 4396 
z
" transform="scale(0.015625)"/>
       <path id="CMR17-61" d="M 2304 1653 
C 2304 2072 2304 2294 2035 2543 
C 1798 2752 1523 2816 1306 2816 
C 800 2816 435 2407 435 1971 
C 435 1728 627 1728 666 1728 
C 749 1728 896 1778 896 1954 
C 896 2112 774 2181 666 2181 
C 640 2181 608 2174 589 2168 
C 723 2592 1069 2714 1293 2714 
C 1613 2714 1965 2429 1965 1885 
L 1965 1600 
C 1587 1600 1133 1549 774 1357 
C 371 1133 256 813 256 570 
C 256 77 832 -64 1171 -64 
C 1523 -64 1850 139 1990 511 
C 2003 233 2182 -18 2464 -18 
C 2598 -18 2938 70 2938 567 
L 2938 920 
L 2822 920 
L 2822 562 
C 2822 178 2650 128 2566 128 
C 2304 128 2304 458 2304 738 
L 2304 1653 
z
M 1965 870 
C 1965 317 1568 38 1216 38 
C 896 38 646 275 646 570 
C 646 761 730 1100 1101 1305 
C 1408 1478 1760 1504 1965 1504 
L 1965 870 
z
" transform="scale(0.015625)"/>
       <path id="CMR17-63" d="M 2234 2240 
C 2112 2240 1933 2240 1933 2017 
C 1933 1838 2080 1787 2163 1787 
C 2208 1787 2394 1807 2394 2024 
C 2394 2467 1958 2803 1466 2803 
C 787 2803 211 2178 211 1363 
C 211 516 813 -64 1466 -64 
C 2259 -64 2458 677 2458 748 
C 2458 774 2451 793 2406 793 
C 2362 793 2355 787 2330 703 
C 2163 180 1798 51 1523 51 
C 1114 51 621 427 621 1369 
C 621 2338 1094 2688 1472 2688 
C 1722 2688 2093 2573 2234 2240 
z
" transform="scale(0.015625)"/>
       <path id="CMR17-6e" d="M 2656 1933 
C 2656 2259 2592 2790 1837 2790 
C 1331 2790 1069 2400 973 2144 
L 966 2144 
L 966 2790 
L 211 2720 
L 211 2554 
C 589 2554 646 2515 646 2208 
L 646 428 
C 646 184 621 153 211 153 
L 211 -13 
C 365 0 646 0 813 0 
C 979 0 1267 0 1421 -13 
L 1421 153 
C 1011 153 986 178 986 428 
L 986 1658 
C 986 2247 1344 2688 1792 2688 
C 2266 2688 2317 2266 2317 1958 
L 2317 428 
C 2317 184 2291 153 1882 153 
L 1882 -13 
C 2035 0 2317 0 2483 0 
C 2650 0 2938 0 3091 -13 
L 3091 153 
C 2682 153 2656 178 2656 428 
L 2656 1933 
z
" transform="scale(0.015625)"/>
       <path id="CMR17-74" d="M 966 2560 
L 1862 2560 
L 1862 2725 
L 966 2725 
L 966 3904 
L 851 3904 
C 838 3245 614 2668 70 2668 
L 70 2560 
L 627 2560 
L 627 771 
C 627 650 627 -64 1370 -64 
C 1747 -64 1965 306 1965 777 
L 1965 1140 
L 1850 1140 
L 1850 783 
C 1850 344 1677 51 1408 51 
C 1222 51 966 178 966 758 
L 966 2560 
z
" transform="scale(0.015625)"/>
      </defs>
      <use xlink:href="#CMR17-44" transform="scale(0.996264)"/>
      <use xlink:href="#CMR17-69" transform="translate(70.393556 0)scale(0.996264)"/>
      <use xlink:href="#CMR17-73" transform="translate(95.264614 0)scale(0.996264)"/>
      <use xlink:href="#CMR17-70" transform="translate(131.065952 0)scale(0.996264)"/>
      <use xlink:href="#CMR17-6c" transform="translate(181.961322 0)scale(0.996264)"/>
      <use xlink:href="#CMR17-61" transform="translate(206.83238 0)scale(0.996264)"/>
      <use xlink:href="#CMR17-63" transform="translate(252.522857 0)scale(0.996264)"/>
      <use xlink:href="#CMR17-65" transform="translate(293.008518 0)scale(0.996264)"/>
      <use xlink:href="#CMR17-6d" transform="translate(333.494178 0)scale(0.996264)"/>
      <use xlink:href="#CMR17-65" transform="translate(410.413768 0)scale(0.996264)"/>
      <use xlink:href="#CMR17-6e" transform="translate(450.899429 0)scale(0.996264)"/>
      <use xlink:href="#CMR17-74" transform="translate(499.192345 0)scale(0.996264)"/>
     </g>
    </g>
   </g>
   <g id="line2d_95">
    <path d="M 60.95538 10.076981 
L 61.37846 10.1899 
L 61.80154 10.527683 
L 62.224619 11.088187 
L 63.070779 12.865172 
L 63.916939 15.488966 
L 64.763098 18.916221 
L 66.032338 25.442538 
L 67.301577 33.429201 
L 68.993897 45.884984 
L 71.532375 66.950266 
L 74.917014 95.319468 
L 76.609333 107.872179 
L 77.878573 116.002197 
L 79.147812 122.762895 
L 79.993972 126.412074 
L 80.840132 129.321242 
L 81.68629 131.45628 
L 82.53245 132.794078 
L 82.95553 133.159846 
L 83.378609 133.322727 
L 83.80169 133.283001 
L 84.224769 133.041657 
L 84.64785 132.600357 
L 85.49401 131.128031 
L 86.340169 128.892962 
L 87.186328 125.932429 
L 88.032489 122.293397 
L 89.301728 115.687446 
L 90.570967 107.905155 
L 92.263286 96.145305 
L 96.071006 67.264699 
L 98.186406 52.109027 
L 99.878725 41.570909 
L 101.147964 34.965261 
L 102.4172 29.687791 
L 103.263361 26.981936 
L 104.109519 24.964785 
L 104.955681 23.65852 
L 105.378761 23.276173 
L 105.801839 23.075322 
L 106.22492 23.055898 
L 106.648 23.21724 
L 107.071081 23.558027 
L 107.917239 24.769564 
L 108.7634 26.667879 
L 109.609559 29.221003 
L 110.45572 32.388152 
L 111.724959 38.181111 
L 112.994198 45.048281 
L 114.68652 55.480697 
L 117.648075 75.535511 
L 120.186553 92.338948 
L 121.878876 102.254235 
L 123.148114 108.63032 
L 124.417353 113.88762 
L 125.263515 116.695624 
L 126.109676 118.905038 
L 126.955831 120.490264 
L 127.801992 121.434581 
L 128.225076 121.663615 
L 128.648154 121.730217 
L 129.071231 121.634838 
L 129.494315 121.378473 
L 129.917392 120.962698 
L 130.763554 119.661837 
L 131.609715 117.755477 
L 132.45587 115.275055 
L 133.725109 110.565472 
L 134.994354 104.814857 
L 136.68667 95.862389 
L 139.225148 80.750426 
L 142.609781 60.443854 
L 144.302104 51.477469 
L 145.571342 45.679558 
L 146.840581 40.867324 
L 147.686743 38.275901 
L 148.532904 36.215938 
L 149.379059 34.71154 
L 150.22522 33.778875 
L 150.648298 33.529826 
L 151.071382 33.42613 
L 151.494459 33.467558 
L 151.917543 33.653366 
L 152.34062 33.982284 
L 153.186782 35.06209 
L 154.032937 36.687321 
L 154.879098 38.830985 
L 156.148337 42.942414 
L 157.417576 48.001242 
L 159.109898 55.925195 
L 161.225298 67.070767 
L 165.456099 89.735598 
L 167.148421 97.561999 
L 168.41766 102.55782 
L 169.686899 106.640399 
L 170.533054 108.796478 
L 171.379209 110.468708 
L 172.225377 111.637992 
L 173.071532 112.292278 
L 173.494603 112.424537 
L 173.917687 112.426833 
L 174.340771 112.299684 
L 175.186926 111.661441 
L 176.033093 110.522912 
L 176.879248 108.904004 
L 177.725416 106.831109 
L 178.994655 102.9431 
L 180.263881 98.24036 
L 181.956204 90.97518 
L 184.494694 78.810986 
L 187.879327 62.623641 
L 189.571649 55.542313 
L 190.840888 50.996172 
L 192.110127 47.255154 
L 192.956282 45.262074 
L 193.802437 43.698795 
L 194.648605 42.58334 
L 195.49476 41.927515 
L 196.340927 41.736528 
L 196.764011 41.815223 
L 197.610166 42.317228 
L 198.456321 43.269051 
L 199.302489 44.653846 
L 200.148644 46.448767 
L 201.417883 49.847069 
L 202.687121 53.98741 
L 204.379444 60.421669 
L 206.917922 71.262494 
L 210.302567 85.797516 
L 211.994877 92.201896 
L 213.264116 96.33648 
L 214.533355 99.761611 
L 215.37951 101.601649 
L 216.225677 103.060054 
L 217.071845 104.119799 
L 217.918 104.769484 
L 218.764155 105.003573 
L 219.610322 104.822255 
L 220.456478 104.231501 
L 221.302633 103.242895 
L 222.148788 101.873396 
L 222.994955 100.14513 
L 224.264182 96.940143 
L 225.533421 93.098155 
L 227.225756 87.206434 
L 230.187305 75.752422 
L 233.148866 64.524102 
L 234.841189 58.93551 
L 236.110428 55.374306 
L 237.379666 52.470182 
L 238.225822 50.940563 
L 239.071977 49.758347 
L 239.918144 48.936953 
L 240.764311 48.484807 
L 241.610467 48.40508 
L 242.456622 48.695774 
L 243.302789 49.349798 
L 244.148944 50.355078 
L 244.9951 51.694774 
L 246.264339 54.283608 
L 247.533589 57.486941 
L 249.2259 62.526688 
L 251.341294 69.645231 
L 255.572106 84.204049 
L 257.264417 89.261184 
L 258.533656 92.502413 
L 259.802894 95.164215 
L 260.649062 96.578794 
L 261.495217 97.684706 
L 262.341384 98.469292 
L 263.187539 98.924301 
L 264.033695 99.046214 
L 264.879862 98.836093 
L 265.726005 98.299621 
L 266.572172 97.446911 
L 267.41834 96.292398 
L 268.687591 94.036202 
L 269.956817 91.221358 
L 271.649152 86.764092 
L 273.764546 80.430252 
L 278.418418 66.168934 
L 280.110728 61.761678 
L 281.379979 58.974787 
L 282.649206 56.723698 
L 283.495373 55.552549 
L 284.341516 54.662029 
L 285.187684 54.062054 
L 286.033827 53.758549 
L 286.879994 53.753243 
L 287.726161 54.043742 
L 288.572329 54.623565 
L 289.418472 55.482267 
L 290.264639 56.605681 
L 291.53389 58.747432 
L 292.803117 61.370633 
L 294.495452 65.464654 
L 297.033929 72.393544 
L 300.841634 82.817236 
L 302.533968 86.807705 
L 303.803195 89.346109 
L 305.072446 91.411803 
L 306.341673 92.946486 
L 307.18784 93.65365 
L 308.034007 94.098538 
L 308.880175 94.277168 
L 309.726318 94.189303 
L 310.572485 93.838354 
L 311.418628 93.231383 
L 312.264796 92.378908 
L 313.534022 90.671002 
L 314.803298 88.501926 
L 316.495608 85.020545 
L 318.611002 80.011611 
L 323.687957 67.583741 
L 325.380292 64.110671 
L 326.649519 61.932087 
L 327.91877 60.18989 
L 328.764937 59.29553 
L 329.611104 58.627669 
L 330.457248 58.193676 
L 331.303415 57.997588 
L 332.149558 58.040144 
L 332.995725 58.318784 
L 333.841868 58.827659 
L 334.688036 59.557874 
L 335.957287 61.04125 
L 337.226513 62.943131 
L 338.918848 66.017634 
L 341.034242 70.469513 
L 346.534281 82.451325 
L 348.226592 85.466713 
L 349.495843 87.330078 
L 350.765069 88.791589 
L 351.611237 89.5222 
L 352.457404 90.047541 
L 353.303571 90.362021 
L 354.149714 90.463038 
L 354.995882 90.350977 
L 355.842049 90.029152 
L 356.688216 89.503756 
L 357.957443 88.354334 
L 359.22667 86.808776 
L 360.495897 84.919963 
L 362.188231 81.977385 
L 364.726709 77.00658 
L 368.534438 69.546423 
L 370.226772 66.69719 
L 371.495999 64.887909 
L 372.765226 63.418751 
L 374.034452 62.33105 
L 374.88062 61.832724 
L 375.726787 61.522473 
L 376.572954 61.40305 
L 377.419098 61.474513 
L 378.265265 61.734293 
L 379.111432 62.177237 
L 380.380683 63.167678 
L 381.64991 64.516791 
L 382.919137 66.178276 
L 384.611447 68.782648 
L 387.149949 73.210547 
L 390.957653 79.909637 
L 392.649988 82.488604 
L 394.342298 84.620454 
L 395.611549 85.858751 
L 396.880776 86.748628 
L 397.726919 87.136349 
L 398.573087 87.35465 
L 399.419254 87.401917 
L 400.265421 87.278902 
L 401.111564 86.988737 
L 402.380815 86.252483 
L 403.650066 85.180155 
L 404.919293 83.809236 
L 406.611628 81.597805 
L 408.727022 78.401701 
L 414.227061 69.824666 
L 415.919371 67.673039 
L 417.188622 66.346081 
L 418.457849 65.308041 
L 419.7271 64.58749 
L 420.996351 64.202862 
L 421.842494 64.137342 
L 422.688661 64.224425 
L 423.957888 64.635199 
L 425.227115 65.366338 
L 426.496366 66.391197 
L 427.765617 67.674319 
L 429.457927 69.711598 
L 431.996405 73.22137 
L 436.227193 79.171943 
L 437.919528 81.206287 
L 439.611838 82.872901 
L 440.881089 83.829237 
L 442.150316 84.503628 
L 443.419567 84.878687 
L 444.688818 84.946479 
L 445.958044 84.708732 
L 447.227271 84.176611 
L 448.496498 83.370302 
L 449.765749 82.318203 
L 451.458084 80.595696 
L 453.573478 78.07326 
L 459.4966 70.698571 
L 461.188911 69.007102 
L 462.458138 67.973343 
L 463.727389 67.17435 
L 464.996639 66.631992 
L 466.265866 66.359912 
L 467.535069 66.363174 
L 468.804344 66.638268 
L 470.073571 67.173262 
L 471.342846 67.948367 
L 473.03518 69.307633 
L 474.727467 70.963979 
L 477.265969 73.7931 
L 481.496757 78.536304 
L 483.189091 80.139781 
L 484.881378 81.441284 
L 486.150604 82.178479 
L 487.41988 82.687709 
L 488.689106 82.955968 
L 489.958381 82.977952 
L 491.22756 82.756051 
L 492.496835 82.300145 
L 493.766062 81.627334 
L 495.458348 80.434397 
L 497.150683 78.969562 
L 499.689185 76.450941 
L 503.919973 72.191691 
L 506.035367 70.414915 
L 507.727701 69.303931 
L 508.996928 68.690259 
L 510.266203 68.283866 
L 511.535382 68.09482 
L 512.804657 68.126252 
L 514.073884 68.374457 
L 515.343159 68.829057 
L 517.035493 69.726587 
L 518.72778 70.905798 
L 520.843174 72.669213 
L 528.035523 78.959604 
L 529.727858 80.042244 
L 531.420144 80.836871 
L 532.689371 81.219778 
L 533.958646 81.408857 
L 535.227873 81.400637 
L 536.497148 81.197824 
L 537.766375 80.809147 
L 539.458661 80.0274 
L 541.150995 78.989279 
L 543.266389 77.425485 
L 550.458739 71.777768 
L 552.151074 70.791312 
L 553.843408 70.059297 
L 555.535694 69.617686 
L 556.80497 69.489407 
L 558.074196 69.5376 
L 559.343423 69.758565 
L 561.035758 70.30568 
L 562.728092 71.108523 
L 564.843486 72.396963 
L 567.805048 74.518457 
L 568.228107 74.833454 
L 568.228107 74.833454 
" clip-path="url(#p0bc76b82d5)" style="fill: none; stroke: #000000; stroke-linecap: square"/>
   </g>
   <g id="line2d_96">
    <path d="M 60.95538 9.777273 
L 61.80154 10.853922 
L 62.647699 12.350609 
L 63.493859 14.411498 
L 64.340019 17.185608 
L 65.186178 20.786143 
L 66.032338 25.244495 
L 67.301577 33.367356 
L 68.993897 46.077951 
L 71.955455 70.663898 
L 75.340094 98.61243 
L 77.032414 110.818456 
L 78.301652 118.554205 
L 79.570893 124.793698 
L 80.417053 128.040187 
L 81.263211 130.521493 
L 82.109371 132.22133 
L 82.53245 132.775437 
L 82.95553 133.131697 
L 83.378609 133.290035 
L 83.80169 133.250681 
L 84.224769 133.014218 
L 84.64785 132.581568 
L 85.49401 131.133591 
L 86.340169 128.92417 
L 87.186328 125.981604 
L 88.032489 122.347321 
L 89.301728 115.723806 
L 90.570967 107.909517 
L 92.263286 96.122007 
L 99.032564 46.641603 
L 100.301806 39.233629 
L 101.571042 33.037394 
L 102.4172 29.673783 
L 103.263361 26.972321 
L 104.109519 24.960598 
L 104.955681 23.655957 
L 105.378761 23.272207 
L 105.801839 23.068673 
L 106.22492 23.045879 
L 106.648 23.204069 
L 107.071081 23.54308 
L 107.494158 24.062187 
L 108.34032 25.633782 
L 109.186478 27.892796 
L 110.032639 30.787277 
L 111.301878 36.124878 
L 113.417275 46.553106 
L 115.532675 56.881856 
L 117.224998 63.978398 
L 118.494237 68.430537 
L 119.763475 72.165119 
L 121.032714 75.266291 
L 122.301953 77.832903 
L 123.571192 79.95937 
L 124.840437 81.727905 
L 126.532753 83.645079 
L 128.225076 85.172217 
L 129.917392 86.403032 
L 132.032793 87.628262 
L 134.148193 88.593853 
L 136.68667 89.502865 
L 139.648232 90.316272 
L 143.032865 91.018317 
L 147.263659 91.664969 
L 152.763698 92.257616 
L 159.532976 92.75106 
L 168.840744 93.186165 
L 181.53312 93.538611 
L 200.571715 93.821352 
L 231.03346 94.026269 
L 288.995412 94.157407 
L 440.881089 94.218543 
L 568.228107 94.228453 
L 568.228107 94.228453 
" clip-path="url(#p0bc76b82d5)" style="fill: none; stroke-dasharray: 3.7,1.6; stroke-dashoffset: 0; stroke: #ff0000"/>
   </g>
   <g id="patch_3">
    <path d="M 35.591744 139.5 
L 35.591744 3.6 
" style="fill: none; stroke: #000000; stroke-width: 0.5; stroke-linejoin: miter; stroke-linecap: square"/>
   </g>
   <g id="patch_4">
    <path d="M 593.591744 139.5 
L 593.591744 3.6 
" style="fill: none; stroke: #000000; stroke-width: 0.5; stroke-linejoin: miter; stroke-linecap: square"/>
   </g>
   <g id="patch_5">
    <path d="M 35.591744 139.5 
L 593.591744 139.5 
" style="fill: none; stroke: #000000; stroke-width: 0.5; stroke-linejoin: miter; stroke-linecap: square"/>
   </g>
   <g id="patch_6">
    <path d="M 35.591744 3.6 
L 593.591744 3.6 
" style="fill: none; stroke: #000000; stroke-width: 0.5; stroke-linejoin: miter; stroke-linecap: square"/>
   </g>
   <g id="legend_1">
    <g id="line2d_97">
     <path d="M 495.418738 13.6 
L 503.418738 13.6 
L 511.418738 13.6 
" style="fill: none; stroke: #000000; stroke-linecap: square"/>
    </g>
    <g id="text_13">
     <!-- Original function -->
     <g transform="translate(517.818738 16.4)scale(0.08 -0.08)">
      <defs>
       <path id="CMR17-4f" d="M 4307 2135 
C 4307 3437 3366 4416 2304 4416 
C 1216 4416 294 3424 294 2135 
C 294 845 1229 -128 2298 -128 
C 3392 -128 4307 864 4307 2135 
z
M 2304 -13 
C 1574 -13 781 711 781 2217 
C 781 3716 1651 4301 2298 4301 
C 2976 4301 3821 3698 3821 2217 
C 3821 686 3008 -13 2304 -13 
z
" transform="scale(0.015625)"/>
       <path id="CMR17-72" d="M 960 1497 
C 960 2112 1222 2688 1702 2688 
C 1747 2688 1792 2682 1837 2662 
C 1837 2662 1696 2617 1696 2452 
C 1696 2298 1818 2234 1914 2234 
C 1990 2234 2131 2279 2131 2458 
C 2131 2663 1926 2790 1709 2790 
C 1222 2790 1011 2317 947 2093 
L 941 2093 
L 941 2790 
L 198 2720 
L 198 2554 
C 576 2554 634 2515 634 2208 
L 634 428 
C 634 184 608 153 198 153 
L 198 -13 
C 352 0 646 0 813 0 
C 998 0 1325 0 1498 -13 
L 1498 153 
C 1037 153 960 153 960 440 
L 960 1497 
z
" transform="scale(0.015625)"/>
       <path id="CMR17-67" d="M 710 1164 
C 832 1068 1043 960 1299 960 
C 1805 960 2240 1357 2240 1888 
C 2240 2054 2189 2310 1997 2509 
C 2176 2692 2438 2752 2586 2752 
C 2611 2752 2650 2752 2682 2734 
C 2656 2728 2598 2703 2598 2605 
C 2598 2527 2656 2471 2739 2471 
C 2835 2471 2886 2533 2886 2614 
C 2886 2731 2790 2854 2586 2854 
C 2330 2854 2106 2738 1926 2580 
C 1734 2753 1504 2816 1299 2816 
C 794 2816 358 2419 358 1888 
C 358 1522 570 1292 634 1228 
C 442 1004 442 743 442 711 
C 442 545 506 302 723 168 
C 390 85 128 -169 128 -486 
C 128 -943 736 -1280 1466 -1280 
C 2170 -1280 2803 -956 2803 -479 
C 2803 384 1856 384 1363 384 
C 1216 384 954 384 922 391 
C 723 423 589 602 589 826 
C 589 883 589 1024 710 1164 
z
M 1299 1068 
C 736 1068 736 1760 736 1889 
C 736 2016 736 2708 1299 2708 
C 1862 2708 1862 2016 1862 1889 
C 1862 1760 1862 1068 1299 1068 
z
M 1466 -1171 
C 826 -1171 384 -835 384 -486 
C 384 -289 493 -105 634 -4 
C 794 104 858 104 1293 104 
C 1818 104 2547 104 2547 -486 
C 2547 -835 2106 -1171 1466 -1171 
z
" transform="scale(0.015625)"/>
       <path id="CMR17-66" d="M 979 2560 
L 1709 2560 
L 1709 2725 
L 966 2725 
L 966 3494 
C 966 4022 1235 4352 1510 4352 
C 1594 4352 1690 4327 1754 4282 
C 1702 4269 1568 4225 1568 4067 
C 1568 3901 1696 3850 1786 3850 
C 1875 3850 2003 3901 2003 4067 
C 2003 4308 1773 4454 1517 4454 
C 1152 4454 653 4156 653 3481 
L 653 2725 
L 141 2725 
L 141 2560 
L 653 2560 
L 653 427 
C 653 184 627 153 218 153 
L 218 -13 
C 371 0 666 0 832 0 
C 1018 0 1344 0 1517 -13 
L 1517 153 
C 1056 153 979 153 979 439 
L 979 2560 
z
" transform="scale(0.015625)"/>
       <path id="CMR17-75" d="M 1882 2693 
L 1882 2528 
C 2259 2528 2317 2489 2317 2186 
L 2317 1032 
C 2317 500 2029 38 1555 38 
C 1030 38 986 348 986 678 
L 986 2763 
L 211 2693 
L 211 2528 
C 467 2528 640 2528 646 2274 
L 646 1058 
C 646 633 646 361 813 183 
C 896 101 1056 -64 1517 -64 
C 2061 -64 2272 377 2323 506 
L 2330 506 
L 2330 -63 
L 3091 -63 
L 3091 128 
C 2714 128 2656 166 2656 473 
L 2656 2763 
L 1882 2693 
z
" transform="scale(0.015625)"/>
       <path id="CMR17-6f" d="M 2758 1356 
C 2758 2176 2163 2816 1466 2816 
C 768 2816 173 2176 173 1356 
C 173 551 768 -64 1466 -64 
C 2163 -64 2758 551 2758 1356 
z
M 1466 51 
C 1165 51 909 230 762 480 
C 602 767 582 1126 582 1408 
C 582 1677 595 2010 762 2298 
C 890 2509 1139 2714 1466 2714 
C 1754 2714 1997 2554 2150 2330 
C 2349 2029 2349 1607 2349 1408 
C 2349 1158 2336 775 2163 467 
C 1984 173 1709 51 1466 51 
z
" transform="scale(0.015625)"/>
      </defs>
      <use xlink:href="#CMR17-4f" transform="scale(0.996264)"/>
      <use xlink:href="#CMR17-72" transform="translate(71.714788 0)scale(0.996264)"/>
      <use xlink:href="#CMR17-69" transform="translate(106.995556 0)scale(0.996264)"/>
      <use xlink:href="#CMR17-67" transform="translate(131.866615 0)scale(0.996264)"/>
      <use xlink:href="#CMR17-69" transform="translate(177.557092 0)scale(0.996264)"/>
      <use xlink:href="#CMR17-6e" transform="translate(202.42815 0)scale(0.996264)"/>
      <use xlink:href="#CMR17-61" transform="translate(253.32352 0)scale(0.996264)"/>
      <use xlink:href="#CMR17-6c" transform="translate(299.013997 0)scale(0.996264)"/>
      <use xlink:href="#CMR17-66" transform="translate(353.961022 0)scale(0.996264)"/>
      <use xlink:href="#CMR17-75" transform="translate(381.434534 0)scale(0.996264)"/>
      <use xlink:href="#CMR17-6e" transform="translate(432.329904 0)scale(0.996264)"/>
      <use xlink:href="#CMR17-63" transform="translate(483.225274 0)scale(0.996264)"/>
      <use xlink:href="#CMR17-74" transform="translate(523.710934 0)scale(0.996264)"/>
      <use xlink:href="#CMR17-69" transform="translate(558.991702 0)scale(0.996264)"/>
      <use xlink:href="#CMR17-6f" transform="translate(583.862761 0)scale(0.996264)"/>
      <use xlink:href="#CMR17-6e" transform="translate(629.553238 0)scale(0.996264)"/>
     </g>
    </g>
    <g id="line2d_98">
     <path d="M 495.418738 24.749746 
L 503.418738 24.749746 
L 511.418738 24.749746 
" style="fill: none; stroke-dasharray: 3.7,1.6; stroke-dashoffset: 0; stroke: #ff0000"/>
    </g>
    <g id="text_14">
     <!-- Predicted function -->
     <g transform="translate(517.818738 27.549746)scale(0.08 -0.08)">
      <defs>
       <path id="CMR17-50" d="M 1267 2042 
L 2291 2042 
C 3117 2042 3718 2578 3718 3184 
C 3718 3791 3130 4352 2291 4352 
L 333 4352 
L 333 4186 
C 774 4186 845 4186 845 3899 
L 845 446 
C 845 160 774 160 333 160 
L 333 0 
C 518 0 858 0 1056 0 
C 1254 0 1594 0 1779 0 
L 1779 160 
C 1338 160 1267 160 1267 446 
L 1267 2042 
z
M 1254 2176 
L 1254 3938 
C 1254 4155 1267 4186 1523 4186 
L 2170 4186 
C 2995 4186 3232 3714 3232 3184 
C 3232 2604 2950 2176 2170 2176 
L 1254 2176 
z
" transform="scale(0.015625)"/>
       <path id="CMR17-64" d="M 1869 4326 
L 1869 4160 
C 2246 4160 2304 4122 2304 3820 
L 2304 2345 
C 2278 2377 2016 2790 1498 2790 
C 845 2790 211 2208 211 1364 
C 211 525 806 -64 1434 -64 
C 1978 -64 2259 337 2291 380 
L 2291 -63 
L 3066 -63 
L 3066 128 
C 2688 128 2630 166 2630 473 
L 2630 4396 
L 1869 4326 
z
M 2291 755 
C 2291 563 2176 390 2029 262 
C 1811 70 1594 38 1472 38 
C 1286 38 621 134 621 1356 
C 621 2612 1363 2688 1530 2688 
C 1824 2688 2061 2522 2208 2291 
C 2291 2157 2291 2138 2291 2023 
L 2291 755 
z
" transform="scale(0.015625)"/>
      </defs>
      <use xlink:href="#CMR17-50" transform="scale(0.996264)"/>
      <use xlink:href="#CMR17-72" transform="translate(62.586301 0)scale(0.996264)"/>
      <use xlink:href="#CMR17-65" transform="translate(97.867068 0)scale(0.996264)"/>
      <use xlink:href="#CMR17-64" transform="translate(138.352729 0)scale(0.996264)"/>
      <use xlink:href="#CMR17-69" transform="translate(189.248099 0)scale(0.996264)"/>
      <use xlink:href="#CMR17-63" transform="translate(214.119157 0)scale(0.996264)"/>
      <use xlink:href="#CMR17-74" transform="translate(254.604818 0)scale(0.996264)"/>
      <use xlink:href="#CMR17-65" transform="translate(289.885585 0)scale(0.996264)"/>
      <use xlink:href="#CMR17-64" transform="translate(330.371246 0)scale(0.996264)"/>
      <use xlink:href="#CMR17-66" transform="translate(411.342582 0)scale(0.996264)"/>
      <use xlink:href="#CMR17-75" transform="translate(438.816094 0)scale(0.996264)"/>
      <use xlink:href="#CMR17-6e" transform="translate(489.711464 0)scale(0.996264)"/>
      <use xlink:href="#CMR17-63" transform="translate(540.606834 0)scale(0.996264)"/>
      <use xlink:href="#CMR17-74" transform="translate(581.092494 0)scale(0.996264)"/>
      <use xlink:href="#CMR17-69" transform="translate(616.373262 0)scale(0.996264)"/>
      <use xlink:href="#CMR17-6f" transform="translate(641.244321 0)scale(0.996264)"/>
      <use xlink:href="#CMR17-6e" transform="translate(686.934798 0)scale(0.996264)"/>
     </g>
    </g>
    <g id="PathCollection_2">
     <g>
      <use xlink:href="#md6ebd35bca" x="503.418738" y="36.599491" style="fill: #0000ff; stroke: #0000ff"/>
     </g>
    </g>
    <g id="text_15">
     <!-- Training points -->
     <g transform="translate(517.818738 38.699491)scale(0.08 -0.08)">
      <use xlink:href="#CMR17-54" transform="scale(0.996264)"/>
      <use xlink:href="#CMR17-72" transform="translate(58.702625 0)scale(0.996264)"/>
      <use xlink:href="#CMR17-61" transform="translate(93.983393 0)scale(0.996264)"/>
      <use xlink:href="#CMR17-69" transform="translate(139.67387 0)scale(0.996264)"/>
      <use xlink:href="#CMR17-6e" transform="translate(164.544929 0)scale(0.996264)"/>
      <use xlink:href="#CMR17-69" transform="translate(215.440298 0)scale(0.996264)"/>
      <use xlink:href="#CMR17-6e" transform="translate(240.311357 0)scale(0.996264)"/>
      <use xlink:href="#CMR17-67" transform="translate(291.206727 0)scale(0.996264)"/>
      <use xlink:href="#CMR17-70" transform="translate(366.97317 0)scale(0.996264)"/>
      <use xlink:href="#CMR17-6f" transform="translate(420.470979 0)scale(0.996264)"/>
      <use xlink:href="#CMR17-69" transform="translate(466.161456 0)scale(0.996264)"/>
      <use xlink:href="#CMR17-6e" transform="translate(491.032514 0)scale(0.996264)"/>
      <use xlink:href="#CMR17-74" transform="translate(539.32543 0)scale(0.996264)"/>
      <use xlink:href="#CMR17-73" transform="translate(574.606198 0)scale(0.996264)"/>
     </g>
    </g>
   </g>
  </g>
 </g>
 <defs>
  <clipPath id="p0bc76b82d5">
   <rect x="35.591744" y="3.6" width="558" height="135.9"/>
  </clipPath>
 </defs>
</svg>
