<?xml version="1.0" encoding="utf-8" standalone="no"?>
<!DOCTYPE svg PUBLIC "-//W3C//DTD SVG 1.1//EN"
  "http://www.w3.org/Graphics/SVG/1.1/DTD/svg11.dtd">
<svg xmlns:xlink="http://www.w3.org/1999/xlink" width="597.191744pt" height="164.769095pt" viewBox="0 0 597.191744 164.769095" xmlns="http://www.w3.org/2000/svg" version="1.1">
 <metadata>
  <rdf:RDF xmlns:dc="http://purl.org/dc/elements/1.1/" xmlns:cc="http://creativecommons.org/ns#" xmlns:rdf="http://www.w3.org/1999/02/22-rdf-syntax-ns#">
   <cc:Work>
    <dc:type rdf:resource="http://purl.org/dc/dcmitype/StillImage"/>
    <dc:date>2023-08-13T10:21:16.967004</dc:date>
    <dc:format>image/svg+xml</dc:format>
    <dc:creator>
     <cc:Agent>
      <dc:title>Matplotlib v3.5.1, https://matplotlib.org/</dc:title>
     </cc:Agent>
    </dc:creator>
   </cc:Work>
  </rdf:RDF>
 </metadata>
 <defs>
  <style type="text/css">*{stroke-linejoin: round; stroke-linecap: butt}</style>
 </defs>
 <g id="figure_1">
  <g id="patch_1">
   <path d="M 0 164.769095 
L 597.191744 164.769095 
L 597.191744 0 
L 0 0 
L 0 164.769095 
z
" style="fill: none"/>
  </g>
  <g id="axes_1">
   <g id="patch_2">
    <path d="M 35.591744 139.5 
L 593.591744 139.5 
L 593.591744 3.6 
L 35.591744 3.6 
z
" style="fill: #ffffff"/>
   </g>
   <g id="PathCollection_1">
    <defs>
     <path id="m403ae29574" d="M 0 1.5 
C 0.397805 1.5 0.77937 1.341951 1.06066 1.06066 
C 1.341951 0.77937 1.5 0.397805 1.5 0 
C 1.5 -0.397805 1.341951 -0.77937 1.06066 -1.06066 
C 0.77937 -1.341951 0.397805 -1.5 0 -1.5 
C -0.397805 -1.5 -0.77937 -1.341951 -1.06066 -1.06066 
C -1.341951 -0.77937 -1.5 -0.397805 -1.5 0 
C -1.5 0.397805 -1.341951 0.77937 -1.06066 1.06066 
C -0.77937 1.341951 -0.397805 1.5 0 1.5 
z
" style="stroke: #0000ff"/>
    </defs>
    <g clip-path="url(#p6d8b274360)">
     <use xlink:href="#m403ae29574" x="60.95538" y="9.777273" style="fill: #0000ff; stroke: #0000ff"/>
     <use xlink:href="#m403ae29574" x="62.704596" y="11.695039" style="fill: #0000ff; stroke: #0000ff"/>
     <use xlink:href="#m403ae29574" x="64.453813" y="17.292052" style="fill: #0000ff; stroke: #0000ff"/>
     <use xlink:href="#m403ae29574" x="66.203029" y="26.177141" style="fill: #0000ff; stroke: #0000ff"/>
     <use xlink:href="#m403ae29574" x="67.952245" y="37.772998" style="fill: #0000ff; stroke: #0000ff"/>
     <use xlink:href="#m403ae29574" x="69.701462" y="51.353141" style="fill: #0000ff; stroke: #0000ff"/>
     <use xlink:href="#m403ae29574" x="71.450677" y="66.087155" style="fill: #0000ff; stroke: #0000ff"/>
     <use xlink:href="#m403ae29574" x="73.199894" y="81.091142" style="fill: #0000ff; stroke: #0000ff"/>
     <use xlink:href="#m403ae29574" x="74.94911" y="95.48047" style="fill: #0000ff; stroke: #0000ff"/>
     <use xlink:href="#m403ae29574" x="76.698326" y="108.421683" style="fill: #0000ff; stroke: #0000ff"/>
     <use xlink:href="#m403ae29574" x="78.447543" y="119.180511" style="fill: #0000ff; stroke: #0000ff"/>
     <use xlink:href="#m403ae29574" x="80.196759" y="127.163225" style="fill: #0000ff; stroke: #0000ff"/>
     <use xlink:href="#m403ae29574" x="81.945975" y="131.949074" style="fill: #0000ff; stroke: #0000ff"/>
     <use xlink:href="#m403ae29574" x="83.695192" y="133.312023" style="fill: #0000ff; stroke: #0000ff"/>
     <use xlink:href="#m403ae29574" x="85.444408" y="131.230618" style="fill: #0000ff; stroke: #0000ff"/>
     <use xlink:href="#m403ae29574" x="87.193623" y="125.885844" style="fill: #0000ff; stroke: #0000ff"/>
     <use xlink:href="#m403ae29574" x="88.942841" y="117.646927" style="fill: #0000ff; stroke: #0000ff"/>
     <use xlink:href="#m403ae29574" x="90.692058" y="107.046575" style="fill: #0000ff; stroke: #0000ff"/>
     <use xlink:href="#m403ae29574" x="92.441272" y="94.746934" style="fill: #0000ff; stroke: #0000ff"/>
     <use xlink:href="#m403ae29574" x="94.190489" y="81.498383" style="fill: #0000ff; stroke: #0000ff"/>
     <use xlink:href="#m403ae29574" x="95.939707" y="68.094228" style="fill: #0000ff; stroke: #0000ff"/>
     <use xlink:href="#m403ae29574" x="97.688921" y="55.323334" style="fill: #0000ff; stroke: #0000ff"/>
     <use xlink:href="#m403ae29574" x="99.438138" y="43.92386" style="fill: #0000ff; stroke: #0000ff"/>
     <use xlink:href="#m403ae29574" x="101.187355" y="34.540998" style="fill: #0000ff; stroke: #0000ff"/>
     <use xlink:href="#m403ae29574" x="102.936573" y="27.690592" style="fill: #0000ff; stroke: #0000ff"/>
     <use xlink:href="#m403ae29574" x="104.685787" y="23.731162" style="fill: #0000ff; stroke: #0000ff"/>
     <use xlink:href="#m403ae29574" x="106.435004" y="22.845488" style="fill: #0000ff; stroke: #0000ff"/>
     <use xlink:href="#m403ae29574" x="108.184221" y="25.032998" style="fill: #0000ff; stroke: #0000ff"/>
     <use xlink:href="#m403ae29574" x="109.933435" y="30.112844" style="fill: #0000ff; stroke: #0000ff"/>
     <use xlink:href="#m403ae29574" x="111.682653" y="37.737657" style="fill: #0000ff; stroke: #0000ff"/>
    </g>
   </g>
   <g id="matplotlib.axis_1">
    <g id="xtick_1">
     <g id="line2d_1">
      <path d="M 60.95538 139.5 
L 60.95538 3.6 
" clip-path="url(#p6d8b274360)" style="fill: none; stroke: #b0b0b0; stroke-width: 0.5; stroke-linecap: square"/>
     </g>
     <g id="line2d_2">
      <defs>
       <path id="m5b26bf9a97" d="M 0 0 
L 0 -3 
" style="stroke: #000000; stroke-width: 0.5"/>
      </defs>
      <g>
       <use xlink:href="#m5b26bf9a97" x="60.95538" y="139.5" style="stroke: #000000; stroke-width: 0.5"/>
      </g>
     </g>
     <g id="line2d_3">
      <defs>
       <path id="m240e8c9c7d" d="M 0 0 
L 0 3 
" style="stroke: #000000; stroke-width: 0.5"/>
      </defs>
      <g>
       <use xlink:href="#m240e8c9c7d" x="60.95538" y="3.6" style="stroke: #000000; stroke-width: 0.5"/>
      </g>
     </g>
     <g id="text_1">
      <!-- $\mathdefault{0}$ -->
      <g transform="translate(58.838289 148.534802)scale(0.08 -0.08)">
       <defs>
        <path id="CMR17-30" d="M 2688 2025 
C 2688 2416 2682 3080 2413 3591 
C 2176 4039 1798 4198 1466 4198 
C 1158 4198 768 4058 525 3597 
C 269 3118 243 2524 243 2025 
C 243 1661 250 1106 448 619 
C 723 -39 1216 -128 1466 -128 
C 1760 -128 2208 -7 2470 600 
C 2662 1042 2688 1559 2688 2025 
z
M 1466 -26 
C 1056 -26 813 325 723 812 
C 653 1188 653 1738 653 2096 
C 653 2588 653 2997 736 3387 
C 858 3929 1216 4096 1466 4096 
C 1728 4096 2067 3923 2189 3400 
C 2272 3036 2278 2607 2278 2096 
C 2278 1680 2278 1169 2202 792 
C 2067 95 1690 -26 1466 -26 
z
" transform="scale(0.015625)"/>
       </defs>
       <use xlink:href="#CMR17-30" transform="scale(0.996264)"/>
      </g>
     </g>
    </g>
    <g id="xtick_2">
     <g id="line2d_4">
      <path d="M 162.409925 139.5 
L 162.409925 3.6 
" clip-path="url(#p6d8b274360)" style="fill: none; stroke: #b0b0b0; stroke-width: 0.5; stroke-linecap: square"/>
     </g>
     <g id="line2d_5">
      <g>
       <use xlink:href="#m5b26bf9a97" x="162.409925" y="139.5" style="stroke: #000000; stroke-width: 0.5"/>
      </g>
     </g>
     <g id="line2d_6">
      <g>
       <use xlink:href="#m240e8c9c7d" x="162.409925" y="3.6" style="stroke: #000000; stroke-width: 0.5"/>
      </g>
     </g>
     <g id="text_2">
      <!-- $\mathdefault{2}$ -->
      <g transform="translate(160.292834 148.534802)scale(0.08 -0.08)">
       <defs>
        <path id="CMR17-32" d="M 2669 989 
L 2554 989 
C 2490 536 2438 459 2413 420 
C 2381 369 1920 369 1830 369 
L 602 369 
C 832 619 1280 1072 1824 1597 
C 2214 1967 2669 2402 2669 3035 
C 2669 3790 2067 4224 1395 4224 
C 691 4224 262 3604 262 3030 
C 262 2780 448 2748 525 2748 
C 589 2748 781 2787 781 3010 
C 781 3207 614 3264 525 3264 
C 486 3264 448 3258 422 3245 
C 544 3790 915 4058 1306 4058 
C 1862 4058 2227 3617 2227 3035 
C 2227 2479 1901 2000 1536 1584 
L 262 146 
L 262 0 
L 2515 0 
L 2669 989 
z
" transform="scale(0.015625)"/>
       </defs>
       <use xlink:href="#CMR17-32" transform="scale(0.996264)"/>
      </g>
     </g>
    </g>
    <g id="xtick_3">
     <g id="line2d_7">
      <path d="M 263.864471 139.5 
L 263.864471 3.6 
" clip-path="url(#p6d8b274360)" style="fill: none; stroke: #b0b0b0; stroke-width: 0.5; stroke-linecap: square"/>
     </g>
     <g id="line2d_8">
      <g>
       <use xlink:href="#m5b26bf9a97" x="263.864471" y="139.5" style="stroke: #000000; stroke-width: 0.5"/>
      </g>
     </g>
     <g id="line2d_9">
      <g>
       <use xlink:href="#m240e8c9c7d" x="263.864471" y="3.6" style="stroke: #000000; stroke-width: 0.5"/>
      </g>
     </g>
     <g id="text_3">
      <!-- $\mathdefault{4}$ -->
      <g transform="translate(261.747379 148.534802)scale(0.08 -0.08)">
       <defs>
        <path id="CMR17-34" d="M 2150 4122 
C 2150 4256 2144 4256 2029 4256 
L 128 1254 
L 128 1088 
L 1779 1088 
L 1779 457 
C 1779 224 1766 160 1318 160 
L 1197 160 
L 1197 0 
C 1402 0 1747 0 1965 0 
C 2182 0 2528 0 2733 0 
L 2733 160 
L 2611 160 
C 2163 160 2150 224 2150 457 
L 2150 1088 
L 2803 1088 
L 2803 1254 
L 2150 1254 
L 2150 4122 
z
M 1798 3703 
L 1798 1254 
L 256 1254 
L 1798 3703 
z
" transform="scale(0.015625)"/>
       </defs>
       <use xlink:href="#CMR17-34" transform="scale(0.996264)"/>
      </g>
     </g>
    </g>
    <g id="xtick_4">
     <g id="line2d_10">
      <path d="M 365.319016 139.5 
L 365.319016 3.6 
" clip-path="url(#p6d8b274360)" style="fill: none; stroke: #b0b0b0; stroke-width: 0.5; stroke-linecap: square"/>
     </g>
     <g id="line2d_11">
      <g>
       <use xlink:href="#m5b26bf9a97" x="365.319016" y="139.5" style="stroke: #000000; stroke-width: 0.5"/>
      </g>
     </g>
     <g id="line2d_12">
      <g>
       <use xlink:href="#m240e8c9c7d" x="365.319016" y="3.6" style="stroke: #000000; stroke-width: 0.5"/>
      </g>
     </g>
     <g id="text_4">
      <!-- $\mathdefault{6}$ -->
      <g transform="translate(363.201925 148.534802)scale(0.08 -0.08)">
       <defs>
        <path id="CMR17-36" d="M 678 2176 
C 678 3690 1395 4032 1811 4032 
C 1946 4032 2272 4009 2400 3776 
C 2298 3776 2106 3776 2106 3553 
C 2106 3381 2246 3323 2336 3323 
C 2394 3323 2566 3348 2566 3560 
C 2566 3954 2246 4179 1805 4179 
C 1043 4179 243 3390 243 1984 
C 243 253 966 -128 1478 -128 
C 2099 -128 2688 427 2688 1283 
C 2688 2081 2170 2662 1517 2662 
C 1126 2662 838 2407 678 1960 
L 678 2176 
z
M 1478 25 
C 691 25 691 1200 691 1436 
C 691 1896 909 2560 1504 2560 
C 1613 2560 1926 2560 2138 2120 
C 2253 1870 2253 1609 2253 1289 
C 2253 944 2253 690 2118 434 
C 1978 171 1773 25 1478 25 
z
" transform="scale(0.015625)"/>
       </defs>
       <use xlink:href="#CMR17-36" transform="scale(0.996264)"/>
      </g>
     </g>
    </g>
    <g id="xtick_5">
     <g id="line2d_13">
      <path d="M 466.773562 139.5 
L 466.773562 3.6 
" clip-path="url(#p6d8b274360)" style="fill: none; stroke: #b0b0b0; stroke-width: 0.5; stroke-linecap: square"/>
     </g>
     <g id="line2d_14">
      <g>
       <use xlink:href="#m5b26bf9a97" x="466.773562" y="139.5" style="stroke: #000000; stroke-width: 0.5"/>
      </g>
     </g>
     <g id="line2d_15">
      <g>
       <use xlink:href="#m240e8c9c7d" x="466.773562" y="3.6" style="stroke: #000000; stroke-width: 0.5"/>
      </g>
     </g>
     <g id="text_5">
      <!-- $\mathdefault{8}$ -->
      <g transform="translate(464.65647 148.534802)scale(0.08 -0.08)">
       <defs>
        <path id="CMR17-38" d="M 1741 2264 
C 2144 2467 2554 2773 2554 3263 
C 2554 3841 1990 4179 1472 4179 
C 890 4179 378 3759 378 3180 
C 378 3021 416 2747 666 2505 
C 730 2442 998 2251 1171 2130 
C 883 1983 211 1634 211 934 
C 211 279 838 -128 1459 -128 
C 2144 -128 2720 362 2720 1010 
C 2720 1590 2330 1857 2074 2029 
L 1741 2264 
z
M 902 2822 
C 851 2854 595 3051 595 3351 
C 595 3739 998 4032 1459 4032 
C 1965 4032 2336 3676 2336 3262 
C 2336 2669 1670 2331 1638 2331 
C 1632 2331 1626 2331 1574 2370 
L 902 2822 
z
M 2080 1519 
C 2176 1449 2483 1240 2483 851 
C 2483 381 2010 25 1472 25 
C 890 25 448 438 448 940 
C 448 1443 838 1862 1280 2060 
L 2080 1519 
z
" transform="scale(0.015625)"/>
       </defs>
       <use xlink:href="#CMR17-38" transform="scale(0.996264)"/>
      </g>
     </g>
    </g>
    <g id="xtick_6">
     <g id="line2d_16">
      <path d="M 568.228107 139.5 
L 568.228107 3.6 
" clip-path="url(#p6d8b274360)" style="fill: none; stroke: #b0b0b0; stroke-width: 0.5; stroke-linecap: square"/>
     </g>
     <g id="line2d_17">
      <g>
       <use xlink:href="#m5b26bf9a97" x="568.228107" y="139.5" style="stroke: #000000; stroke-width: 0.5"/>
      </g>
     </g>
     <g id="line2d_18">
      <g>
       <use xlink:href="#m240e8c9c7d" x="568.228107" y="3.6" style="stroke: #000000; stroke-width: 0.5"/>
      </g>
     </g>
     <g id="text_6">
      <!-- $\mathdefault{10}$ -->
      <g transform="translate(563.993924 148.534802)scale(0.08 -0.08)">
       <defs>
        <path id="CMR17-31" d="M 1702 4058 
C 1702 4192 1696 4192 1606 4192 
C 1357 3916 979 3827 621 3827 
C 602 3827 570 3827 563 3808 
C 557 3795 557 3782 557 3648 
C 755 3648 1088 3686 1344 3839 
L 1344 461 
C 1344 236 1331 160 781 160 
L 589 160 
L 589 0 
C 896 0 1216 0 1523 0 
C 1830 0 2150 0 2458 0 
L 2458 160 
L 2266 160 
C 1715 160 1702 230 1702 458 
L 1702 4058 
z
" transform="scale(0.015625)"/>
       </defs>
       <use xlink:href="#CMR17-31" transform="scale(0.996264)"/>
       <use xlink:href="#CMR17-30" transform="translate(45.690477 0)scale(0.996264)"/>
      </g>
     </g>
    </g>
    <g id="xtick_7">
     <g id="line2d_19">
      <defs>
       <path id="m771401cbe7" d="M 0 0 
L 0 -1.5 
" style="stroke: #000000; stroke-width: 0.5"/>
      </defs>
      <g>
       <use xlink:href="#m771401cbe7" x="86.319016" y="139.5" style="stroke: #000000; stroke-width: 0.5"/>
      </g>
     </g>
     <g id="line2d_20">
      <defs>
       <path id="m8944a8dbb6" d="M 0 0 
L 0 1.5 
" style="stroke: #000000; stroke-width: 0.5"/>
      </defs>
      <g>
       <use xlink:href="#m8944a8dbb6" x="86.319016" y="3.6" style="stroke: #000000; stroke-width: 0.5"/>
      </g>
     </g>
    </g>
    <g id="xtick_8">
     <g id="line2d_21">
      <g>
       <use xlink:href="#m771401cbe7" x="111.682653" y="139.5" style="stroke: #000000; stroke-width: 0.5"/>
      </g>
     </g>
     <g id="line2d_22">
      <g>
       <use xlink:href="#m8944a8dbb6" x="111.682653" y="3.6" style="stroke: #000000; stroke-width: 0.5"/>
      </g>
     </g>
    </g>
    <g id="xtick_9">
     <g id="line2d_23">
      <g>
       <use xlink:href="#m771401cbe7" x="137.046289" y="139.5" style="stroke: #000000; stroke-width: 0.5"/>
      </g>
     </g>
     <g id="line2d_24">
      <g>
       <use xlink:href="#m8944a8dbb6" x="137.046289" y="3.6" style="stroke: #000000; stroke-width: 0.5"/>
      </g>
     </g>
    </g>
    <g id="xtick_10">
     <g id="line2d_25">
      <g>
       <use xlink:href="#m771401cbe7" x="187.773562" y="139.5" style="stroke: #000000; stroke-width: 0.5"/>
      </g>
     </g>
     <g id="line2d_26">
      <g>
       <use xlink:href="#m8944a8dbb6" x="187.773562" y="3.6" style="stroke: #000000; stroke-width: 0.5"/>
      </g>
     </g>
    </g>
    <g id="xtick_11">
     <g id="line2d_27">
      <g>
       <use xlink:href="#m771401cbe7" x="213.137198" y="139.5" style="stroke: #000000; stroke-width: 0.5"/>
      </g>
     </g>
     <g id="line2d_28">
      <g>
       <use xlink:href="#m8944a8dbb6" x="213.137198" y="3.6" style="stroke: #000000; stroke-width: 0.5"/>
      </g>
     </g>
    </g>
    <g id="xtick_12">
     <g id="line2d_29">
      <g>
       <use xlink:href="#m771401cbe7" x="238.500835" y="139.5" style="stroke: #000000; stroke-width: 0.5"/>
      </g>
     </g>
     <g id="line2d_30">
      <g>
       <use xlink:href="#m8944a8dbb6" x="238.500835" y="3.6" style="stroke: #000000; stroke-width: 0.5"/>
      </g>
     </g>
    </g>
    <g id="xtick_13">
     <g id="line2d_31">
      <g>
       <use xlink:href="#m771401cbe7" x="289.228107" y="139.5" style="stroke: #000000; stroke-width: 0.5"/>
      </g>
     </g>
     <g id="line2d_32">
      <g>
       <use xlink:href="#m8944a8dbb6" x="289.228107" y="3.6" style="stroke: #000000; stroke-width: 0.5"/>
      </g>
     </g>
    </g>
    <g id="xtick_14">
     <g id="line2d_33">
      <g>
       <use xlink:href="#m771401cbe7" x="314.591744" y="139.5" style="stroke: #000000; stroke-width: 0.5"/>
      </g>
     </g>
     <g id="line2d_34">
      <g>
       <use xlink:href="#m8944a8dbb6" x="314.591744" y="3.6" style="stroke: #000000; stroke-width: 0.5"/>
      </g>
     </g>
    </g>
    <g id="xtick_15">
     <g id="line2d_35">
      <g>
       <use xlink:href="#m771401cbe7" x="339.95538" y="139.5" style="stroke: #000000; stroke-width: 0.5"/>
      </g>
     </g>
     <g id="line2d_36">
      <g>
       <use xlink:href="#m8944a8dbb6" x="339.95538" y="3.6" style="stroke: #000000; stroke-width: 0.5"/>
      </g>
     </g>
    </g>
    <g id="xtick_16">
     <g id="line2d_37">
      <g>
       <use xlink:href="#m771401cbe7" x="390.682653" y="139.5" style="stroke: #000000; stroke-width: 0.5"/>
      </g>
     </g>
     <g id="line2d_38">
      <g>
       <use xlink:href="#m8944a8dbb6" x="390.682653" y="3.6" style="stroke: #000000; stroke-width: 0.5"/>
      </g>
     </g>
    </g>
    <g id="xtick_17">
     <g id="line2d_39">
      <g>
       <use xlink:href="#m771401cbe7" x="416.046289" y="139.5" style="stroke: #000000; stroke-width: 0.5"/>
      </g>
     </g>
     <g id="line2d_40">
      <g>
       <use xlink:href="#m8944a8dbb6" x="416.046289" y="3.6" style="stroke: #000000; stroke-width: 0.5"/>
      </g>
     </g>
    </g>
    <g id="xtick_18">
     <g id="line2d_41">
      <g>
       <use xlink:href="#m771401cbe7" x="441.409925" y="139.5" style="stroke: #000000; stroke-width: 0.5"/>
      </g>
     </g>
     <g id="line2d_42">
      <g>
       <use xlink:href="#m8944a8dbb6" x="441.409925" y="3.6" style="stroke: #000000; stroke-width: 0.5"/>
      </g>
     </g>
    </g>
    <g id="xtick_19">
     <g id="line2d_43">
      <g>
       <use xlink:href="#m771401cbe7" x="492.137198" y="139.5" style="stroke: #000000; stroke-width: 0.5"/>
      </g>
     </g>
     <g id="line2d_44">
      <g>
       <use xlink:href="#m8944a8dbb6" x="492.137198" y="3.6" style="stroke: #000000; stroke-width: 0.5"/>
      </g>
     </g>
    </g>
    <g id="xtick_20">
     <g id="line2d_45">
      <g>
       <use xlink:href="#m771401cbe7" x="517.500835" y="139.5" style="stroke: #000000; stroke-width: 0.5"/>
      </g>
     </g>
     <g id="line2d_46">
      <g>
       <use xlink:href="#m8944a8dbb6" x="517.500835" y="3.6" style="stroke: #000000; stroke-width: 0.5"/>
      </g>
     </g>
    </g>
    <g id="xtick_21">
     <g id="line2d_47">
      <g>
       <use xlink:href="#m771401cbe7" x="542.864471" y="139.5" style="stroke: #000000; stroke-width: 0.5"/>
      </g>
     </g>
     <g id="line2d_48">
      <g>
       <use xlink:href="#m8944a8dbb6" x="542.864471" y="3.6" style="stroke: #000000; stroke-width: 0.5"/>
      </g>
     </g>
    </g>
    <g id="xtick_22">
     <g id="line2d_49">
      <g>
       <use xlink:href="#m771401cbe7" x="593.591744" y="139.5" style="stroke: #000000; stroke-width: 0.5"/>
      </g>
     </g>
     <g id="line2d_50">
      <g>
       <use xlink:href="#m8944a8dbb6" x="593.591744" y="3.6" style="stroke: #000000; stroke-width: 0.5"/>
      </g>
     </g>
    </g>
    <g id="text_7">
     <!-- Time -->
     <g transform="translate(304.947216 159.619349)scale(0.08 -0.08)">
      <defs>
       <path id="CMR17-54" d="M 3981 4326 
L 288 4326 
L 179 2918 
L 294 2918 
C 378 3976 467 4160 1453 4160 
C 1568 4160 1754 4160 1805 4154 
C 1926 4135 1926 4058 1926 3912 
L 1926 459 
C 1926 230 1907 160 1376 160 
L 1197 160 
L 1197 0 
C 1504 0 1824 0 2138 0 
C 2451 0 2771 0 3078 0 
L 3078 160 
L 2899 160 
C 2368 160 2349 230 2349 459 
L 2349 3912 
C 2349 4052 2349 4129 2464 4154 
C 2515 4160 2701 4160 2816 4160 
C 3795 4160 3891 3976 3974 2918 
L 4090 2918 
L 3981 4326 
z
" transform="scale(0.015625)"/>
       <path id="CMR17-69" d="M 992 3909 
C 992 4049 877 4170 730 4170 
C 589 4170 467 4056 467 3909 
C 467 3769 582 3648 730 3648 
C 870 3648 992 3763 992 3909 
z
M 243 2706 
L 243 2541 
C 602 2541 653 2502 653 2197 
L 653 427 
C 653 184 627 153 218 153 
L 218 -13 
C 371 0 646 0 806 0 
C 960 0 1222 0 1370 -13 
L 1370 153 
C 992 153 979 191 979 420 
L 979 2776 
L 243 2706 
z
" transform="scale(0.015625)"/>
       <path id="CMR17-6d" d="M 4326 1933 
C 4326 2252 4269 2790 3507 2790 
C 3072 2790 2771 2496 2656 2151 
L 2650 2151 
C 2573 2676 2195 2790 1837 2790 
C 1331 2790 1069 2400 973 2144 
L 966 2144 
L 966 2790 
L 211 2720 
L 211 2554 
C 589 2554 646 2515 646 2208 
L 646 428 
C 646 184 621 153 211 153 
L 211 -13 
C 365 0 646 0 813 0 
C 979 0 1267 0 1421 -13 
L 1421 153 
C 1011 153 986 178 986 428 
L 986 1658 
C 986 2247 1344 2688 1792 2688 
C 2266 2688 2317 2266 2317 1958 
L 2317 428 
C 2317 184 2291 153 1882 153 
L 1882 -13 
C 2035 0 2317 0 2483 0 
C 2650 0 2938 0 3091 -13 
L 3091 153 
C 2682 153 2656 178 2656 428 
L 2656 1658 
C 2656 2247 3014 2688 3462 2688 
C 3936 2688 3987 2266 3987 1958 
L 3987 428 
C 3987 184 3962 153 3552 153 
L 3552 -13 
C 3706 0 3987 0 4154 0 
C 4320 0 4608 0 4762 -13 
L 4762 153 
C 4352 153 4326 178 4326 428 
L 4326 1933 
z
" transform="scale(0.015625)"/>
       <path id="CMR17-65" d="M 2438 1472 
C 2464 1498 2464 1511 2464 1576 
C 2464 2238 2118 2816 1389 2816 
C 710 2816 173 2169 173 1383 
C 173 551 781 -64 1459 -64 
C 2176 -64 2458 607 2458 740 
C 2458 784 2419 784 2406 784 
C 2362 784 2355 771 2330 696 
C 2189 265 1837 51 1504 51 
C 1229 51 954 203 781 480 
C 582 803 582 1176 582 1472 
L 2438 1472 
z
M 589 1568 
C 634 2505 1126 2714 1382 2714 
C 1818 2714 2112 2297 2118 1568 
L 589 1568 
z
" transform="scale(0.015625)"/>
      </defs>
      <use xlink:href="#CMR17-54" transform="scale(0.996264)"/>
      <use xlink:href="#CMR17-69" transform="translate(66.509881 0)scale(0.996264)"/>
      <use xlink:href="#CMR17-6d" transform="translate(91.380939 0)scale(0.996264)"/>
      <use xlink:href="#CMR17-65" transform="translate(168.300529 0)scale(0.996264)"/>
     </g>
    </g>
   </g>
   <g id="matplotlib.axis_2">
    <g id="ytick_1">
     <g id="line2d_51">
      <path d="M 35.591744 107.587612 
L 593.591744 107.587612 
" clip-path="url(#p6d8b274360)" style="fill: none; stroke: #b0b0b0; stroke-width: 0.5; stroke-linecap: square"/>
     </g>
     <g id="line2d_52">
      <defs>
       <path id="m540ff9ff67" d="M 0 0 
L 3 0 
" style="stroke: #000000; stroke-width: 0.5"/>
      </defs>
      <g>
       <use xlink:href="#m540ff9ff67" x="35.591744" y="107.587612" style="stroke: #000000; stroke-width: 0.5"/>
      </g>
     </g>
     <g id="line2d_53">
      <defs>
       <path id="md48554f5f5" d="M 0 0 
L -3 0 
" style="stroke: #000000; stroke-width: 0.5"/>
      </defs>
      <g>
       <use xlink:href="#md48554f5f5" x="593.591744" y="107.587612" style="stroke: #000000; stroke-width: 0.5"/>
      </g>
     </g>
     <g id="text_8">
      <!-- $\mathdefault{−0.5}$ -->
      <g transform="translate(14.684547 110.355013)scale(0.08 -0.08)">
       <defs>
        <path id="CMSY10-0" d="M 4218 1472 
C 4326 1472 4442 1472 4442 1600 
C 4442 1728 4326 1728 4218 1728 
L 755 1728 
C 646 1728 531 1728 531 1600 
C 531 1472 646 1472 755 1472 
L 4218 1472 
z
" transform="scale(0.015625)"/>
        <path id="CMMI12-3a" d="M 1178 307 
C 1178 492 1024 619 870 619 
C 685 619 557 466 557 313 
C 557 128 710 0 864 0 
C 1050 0 1178 153 1178 307 
z
" transform="scale(0.015625)"/>
        <path id="CMR17-35" d="M 730 3692 
C 794 3666 1056 3584 1325 3584 
C 1920 3584 2246 3911 2432 4100 
C 2432 4157 2432 4192 2394 4192 
C 2387 4192 2374 4192 2323 4163 
C 2099 4058 1837 3973 1517 3973 
C 1325 3973 1037 3999 723 4139 
C 653 4171 640 4171 634 4171 
C 602 4171 595 4164 595 4037 
L 595 2203 
C 595 2089 595 2057 659 2057 
C 691 2057 704 2070 736 2114 
C 941 2401 1222 2522 1542 2522 
C 1766 2522 2246 2382 2246 1289 
C 2246 1085 2246 715 2054 421 
C 1894 159 1645 25 1370 25 
C 947 25 518 320 403 814 
C 429 807 480 795 506 795 
C 589 795 749 840 749 1038 
C 749 1210 627 1280 506 1280 
C 358 1280 262 1190 262 1011 
C 262 454 704 -128 1382 -128 
C 2042 -128 2669 440 2669 1264 
C 2669 2030 2170 2624 1549 2624 
C 1222 2624 947 2503 730 2274 
L 730 3692 
z
" transform="scale(0.015625)"/>
       </defs>
       <use xlink:href="#CMSY10-0" transform="scale(0.996264)"/>
       <use xlink:href="#CMR17-30" transform="translate(77.487468 0)scale(0.996264)"/>
       <use xlink:href="#CMMI12-3a" transform="translate(123.177945 0)scale(0.996264)"/>
       <use xlink:href="#CMR17-35" transform="translate(150.275122 0)scale(0.996264)"/>
      </g>
     </g>
    </g>
    <g id="ytick_2">
     <g id="line2d_54">
      <path d="M 35.591744 74.984165 
L 593.591744 74.984165 
" clip-path="url(#p6d8b274360)" style="fill: none; stroke: #b0b0b0; stroke-width: 0.5; stroke-linecap: square"/>
     </g>
     <g id="line2d_55">
      <g>
       <use xlink:href="#m540ff9ff67" x="35.591744" y="74.984165" style="stroke: #000000; stroke-width: 0.5"/>
      </g>
     </g>
     <g id="line2d_56">
      <g>
       <use xlink:href="#md48554f5f5" x="593.591744" y="74.984165" style="stroke: #000000; stroke-width: 0.5"/>
      </g>
     </g>
     <g id="text_9">
      <!-- $\mathdefault{0.0}$ -->
      <g transform="translate(21.271054 77.751566)scale(0.08 -0.08)">
       <use xlink:href="#CMR17-30" transform="scale(0.996264)"/>
       <use xlink:href="#CMMI12-3a" transform="translate(45.690477 0)scale(0.996264)"/>
       <use xlink:href="#CMR17-30" transform="translate(72.787654 0)scale(0.996264)"/>
      </g>
     </g>
    </g>
    <g id="ytick_3">
     <g id="line2d_57">
      <path d="M 35.591744 42.380719 
L 593.591744 42.380719 
" clip-path="url(#p6d8b274360)" style="fill: none; stroke: #b0b0b0; stroke-width: 0.5; stroke-linecap: square"/>
     </g>
     <g id="line2d_58">
      <g>
       <use xlink:href="#m540ff9ff67" x="35.591744" y="42.380719" style="stroke: #000000; stroke-width: 0.5"/>
      </g>
     </g>
     <g id="line2d_59">
      <g>
       <use xlink:href="#md48554f5f5" x="593.591744" y="42.380719" style="stroke: #000000; stroke-width: 0.5"/>
      </g>
     </g>
     <g id="text_10">
      <!-- $\mathdefault{0.5}$ -->
      <g transform="translate(21.271054 45.14812)scale(0.08 -0.08)">
       <use xlink:href="#CMR17-30" transform="scale(0.996264)"/>
       <use xlink:href="#CMMI12-3a" transform="translate(45.690477 0)scale(0.996264)"/>
       <use xlink:href="#CMR17-35" transform="translate(72.787654 0)scale(0.996264)"/>
      </g>
     </g>
    </g>
    <g id="ytick_4">
     <g id="line2d_60">
      <path d="M 35.591744 9.777273 
L 593.591744 9.777273 
" clip-path="url(#p6d8b274360)" style="fill: none; stroke: #b0b0b0; stroke-width: 0.5; stroke-linecap: square"/>
     </g>
     <g id="line2d_61">
      <g>
       <use xlink:href="#m540ff9ff67" x="35.591744" y="9.777273" style="stroke: #000000; stroke-width: 0.5"/>
      </g>
     </g>
     <g id="line2d_62">
      <g>
       <use xlink:href="#md48554f5f5" x="593.591744" y="9.777273" style="stroke: #000000; stroke-width: 0.5"/>
      </g>
     </g>
     <g id="text_11">
      <!-- $\mathdefault{1.0}$ -->
      <g transform="translate(21.271054 12.544674)scale(0.08 -0.08)">
       <use xlink:href="#CMR17-31" transform="scale(0.996264)"/>
       <use xlink:href="#CMMI12-3a" transform="translate(45.690477 0)scale(0.996264)"/>
       <use xlink:href="#CMR17-30" transform="translate(72.787654 0)scale(0.996264)"/>
      </g>
     </g>
    </g>
    <g id="ytick_5">
     <g id="line2d_63">
      <defs>
       <path id="mf87c1e98d2" d="M 0 0 
L 1.5 0 
" style="stroke: #000000; stroke-width: 0.5"/>
      </defs>
      <g>
       <use xlink:href="#mf87c1e98d2" x="35.591744" y="133.670369" style="stroke: #000000; stroke-width: 0.5"/>
      </g>
     </g>
     <g id="line2d_64">
      <defs>
       <path id="mb96536be65" d="M 0 0 
L -1.5 0 
" style="stroke: #000000; stroke-width: 0.5"/>
      </defs>
      <g>
       <use xlink:href="#mb96536be65" x="593.591744" y="133.670369" style="stroke: #000000; stroke-width: 0.5"/>
      </g>
     </g>
    </g>
    <g id="ytick_6">
     <g id="line2d_65">
      <g>
       <use xlink:href="#mf87c1e98d2" x="35.591744" y="127.14968" style="stroke: #000000; stroke-width: 0.5"/>
      </g>
     </g>
     <g id="line2d_66">
      <g>
       <use xlink:href="#mb96536be65" x="593.591744" y="127.14968" style="stroke: #000000; stroke-width: 0.5"/>
      </g>
     </g>
    </g>
    <g id="ytick_7">
     <g id="line2d_67">
      <g>
       <use xlink:href="#mf87c1e98d2" x="35.591744" y="120.62899" style="stroke: #000000; stroke-width: 0.5"/>
      </g>
     </g>
     <g id="line2d_68">
      <g>
       <use xlink:href="#mb96536be65" x="593.591744" y="120.62899" style="stroke: #000000; stroke-width: 0.5"/>
      </g>
     </g>
    </g>
    <g id="ytick_8">
     <g id="line2d_69">
      <g>
       <use xlink:href="#mf87c1e98d2" x="35.591744" y="114.108301" style="stroke: #000000; stroke-width: 0.5"/>
      </g>
     </g>
     <g id="line2d_70">
      <g>
       <use xlink:href="#mb96536be65" x="593.591744" y="114.108301" style="stroke: #000000; stroke-width: 0.5"/>
      </g>
     </g>
    </g>
    <g id="ytick_9">
     <g id="line2d_71">
      <g>
       <use xlink:href="#mf87c1e98d2" x="35.591744" y="101.066922" style="stroke: #000000; stroke-width: 0.5"/>
      </g>
     </g>
     <g id="line2d_72">
      <g>
       <use xlink:href="#mb96536be65" x="593.591744" y="101.066922" style="stroke: #000000; stroke-width: 0.5"/>
      </g>
     </g>
    </g>
    <g id="ytick_10">
     <g id="line2d_73">
      <g>
       <use xlink:href="#mf87c1e98d2" x="35.591744" y="94.546233" style="stroke: #000000; stroke-width: 0.5"/>
      </g>
     </g>
     <g id="line2d_74">
      <g>
       <use xlink:href="#mb96536be65" x="593.591744" y="94.546233" style="stroke: #000000; stroke-width: 0.5"/>
      </g>
     </g>
    </g>
    <g id="ytick_11">
     <g id="line2d_75">
      <g>
       <use xlink:href="#mf87c1e98d2" x="35.591744" y="88.025544" style="stroke: #000000; stroke-width: 0.5"/>
      </g>
     </g>
     <g id="line2d_76">
      <g>
       <use xlink:href="#mb96536be65" x="593.591744" y="88.025544" style="stroke: #000000; stroke-width: 0.5"/>
      </g>
     </g>
    </g>
    <g id="ytick_12">
     <g id="line2d_77">
      <g>
       <use xlink:href="#mf87c1e98d2" x="35.591744" y="81.504855" style="stroke: #000000; stroke-width: 0.5"/>
      </g>
     </g>
     <g id="line2d_78">
      <g>
       <use xlink:href="#mb96536be65" x="593.591744" y="81.504855" style="stroke: #000000; stroke-width: 0.5"/>
      </g>
     </g>
    </g>
    <g id="ytick_13">
     <g id="line2d_79">
      <g>
       <use xlink:href="#mf87c1e98d2" x="35.591744" y="68.463476" style="stroke: #000000; stroke-width: 0.5"/>
      </g>
     </g>
     <g id="line2d_80">
      <g>
       <use xlink:href="#mb96536be65" x="593.591744" y="68.463476" style="stroke: #000000; stroke-width: 0.5"/>
      </g>
     </g>
    </g>
    <g id="ytick_14">
     <g id="line2d_81">
      <g>
       <use xlink:href="#mf87c1e98d2" x="35.591744" y="61.942787" style="stroke: #000000; stroke-width: 0.5"/>
      </g>
     </g>
     <g id="line2d_82">
      <g>
       <use xlink:href="#mb96536be65" x="593.591744" y="61.942787" style="stroke: #000000; stroke-width: 0.5"/>
      </g>
     </g>
    </g>
    <g id="ytick_15">
     <g id="line2d_83">
      <g>
       <use xlink:href="#mf87c1e98d2" x="35.591744" y="55.422098" style="stroke: #000000; stroke-width: 0.5"/>
      </g>
     </g>
     <g id="line2d_84">
      <g>
       <use xlink:href="#mb96536be65" x="593.591744" y="55.422098" style="stroke: #000000; stroke-width: 0.5"/>
      </g>
     </g>
    </g>
    <g id="ytick_16">
     <g id="line2d_85">
      <g>
       <use xlink:href="#mf87c1e98d2" x="35.591744" y="48.901408" style="stroke: #000000; stroke-width: 0.5"/>
      </g>
     </g>
     <g id="line2d_86">
      <g>
       <use xlink:href="#mb96536be65" x="593.591744" y="48.901408" style="stroke: #000000; stroke-width: 0.5"/>
      </g>
     </g>
    </g>
    <g id="ytick_17">
     <g id="line2d_87">
      <g>
       <use xlink:href="#mf87c1e98d2" x="35.591744" y="35.86003" style="stroke: #000000; stroke-width: 0.5"/>
      </g>
     </g>
     <g id="line2d_88">
      <g>
       <use xlink:href="#mb96536be65" x="593.591744" y="35.86003" style="stroke: #000000; stroke-width: 0.5"/>
      </g>
     </g>
    </g>
    <g id="ytick_18">
     <g id="line2d_89">
      <g>
       <use xlink:href="#mf87c1e98d2" x="35.591744" y="29.339341" style="stroke: #000000; stroke-width: 0.5"/>
      </g>
     </g>
     <g id="line2d_90">
      <g>
       <use xlink:href="#mb96536be65" x="593.591744" y="29.339341" style="stroke: #000000; stroke-width: 0.5"/>
      </g>
     </g>
    </g>
    <g id="ytick_19">
     <g id="line2d_91">
      <g>
       <use xlink:href="#mf87c1e98d2" x="35.591744" y="22.818651" style="stroke: #000000; stroke-width: 0.5"/>
      </g>
     </g>
     <g id="line2d_92">
      <g>
       <use xlink:href="#mb96536be65" x="593.591744" y="22.818651" style="stroke: #000000; stroke-width: 0.5"/>
      </g>
     </g>
    </g>
    <g id="ytick_20">
     <g id="line2d_93">
      <g>
       <use xlink:href="#mf87c1e98d2" x="35.591744" y="16.297962" style="stroke: #000000; stroke-width: 0.5"/>
      </g>
     </g>
     <g id="line2d_94">
      <g>
       <use xlink:href="#mb96536be65" x="593.591744" y="16.297962" style="stroke: #000000; stroke-width: 0.5"/>
      </g>
     </g>
    </g>
    <g id="text_12">
     <!-- Displacement -->
     <g transform="translate(9.134802 96.329658)rotate(-90)scale(0.08 -0.08)">
      <defs>
       <path id="CMR17-44" d="M 333 4352 
L 333 4186 
C 774 4186 845 4186 845 3900 
L 845 452 
C 845 166 774 166 333 166 
L 333 0 
L 2368 0 
C 3398 0 4224 943 4224 2141 
C 4224 3346 3411 4352 2368 4352 
L 333 4352 
z
M 1523 166 
C 1267 166 1254 197 1254 414 
L 1254 3938 
C 1254 4155 1267 4186 1523 4186 
L 2240 4186 
C 2771 4186 3750 3874 3750 2141 
C 3750 1242 3488 879 3366 707 
C 3213 510 2848 166 2240 166 
L 1523 166 
z
" transform="scale(0.015625)"/>
       <path id="CMR17-73" d="M 1978 2697 
C 1978 2813 1971 2819 1933 2819 
C 1907 2819 1901 2813 1824 2717 
C 1805 2691 1747 2626 1728 2601 
C 1523 2819 1235 2819 1126 2819 
C 416 2819 160 2447 160 2076 
C 160 1498 813 1365 998 1325 
C 1402 1243 1542 1217 1677 1101 
C 1760 1025 1901 884 1901 654 
C 1901 384 1747 38 1158 38 
C 602 38 403 460 288 1021 
C 269 1110 269 1117 218 1117 
C 166 1117 160 1110 160 983 
L 160 63 
C 160 -51 166 -58 205 -58 
C 237 -58 243 -51 275 0 
C 314 57 410 211 448 276 
C 576 103 800 -64 1158 -64 
C 1792 -64 2131 283 2131 784 
C 2131 1112 1958 1285 1875 1362 
C 1683 1561 1459 1606 1190 1657 
C 838 1735 390 1825 390 2217 
C 390 2383 480 2737 1126 2737 
C 1811 2737 1850 2094 1862 1888 
C 1869 1856 1901 1849 1920 1849 
C 1978 1849 1978 1869 1978 1978 
L 1978 2697 
z
" transform="scale(0.015625)"/>
       <path id="CMR17-70" d="M 1408 -1063 
C 998 -1063 973 -1037 973 -789 
L 973 402 
C 1158 134 1427 -38 1766 -38 
C 2406 -38 3053 523 3053 1388 
C 3053 2191 2496 2802 1837 2802 
C 1453 2802 1139 2592 960 2338 
L 960 2802 
L 198 2732 
L 198 2567 
C 576 2567 634 2528 634 2223 
L 634 -789 
C 634 -1031 608 -1063 198 -1063 
L 198 -1228 
C 352 -1216 634 -1216 800 -1216 
C 966 -1216 1254 -1216 1408 -1228 
L 1408 -1063 
z
M 973 2012 
C 973 2102 973 2235 1222 2471 
C 1254 2497 1472 2688 1792 2688 
C 2259 2688 2643 2108 2643 1382 
C 2643 656 2234 64 1728 64 
C 1498 64 1248 172 1056 472 
C 973 612 973 650 973 752 
L 973 2012 
z
" transform="scale(0.015625)"/>
       <path id="CMR17-6c" d="M 979 4396 
L 218 4326 
L 218 4160 
C 595 4160 653 4122 653 3817 
L 653 426 
C 653 184 627 153 218 153 
L 218 -13 
C 371 0 653 0 813 0 
C 979 0 1261 0 1414 -13 
L 1414 153 
C 1005 153 979 178 979 426 
L 979 4396 
z
" transform="scale(0.015625)"/>
       <path id="CMR17-61" d="M 2304 1653 
C 2304 2072 2304 2294 2035 2543 
C 1798 2752 1523 2816 1306 2816 
C 800 2816 435 2407 435 1971 
C 435 1728 627 1728 666 1728 
C 749 1728 896 1778 896 1954 
C 896 2112 774 2181 666 2181 
C 640 2181 608 2174 589 2168 
C 723 2592 1069 2714 1293 2714 
C 1613 2714 1965 2429 1965 1885 
L 1965 1600 
C 1587 1600 1133 1549 774 1357 
C 371 1133 256 813 256 570 
C 256 77 832 -64 1171 -64 
C 1523 -64 1850 139 1990 511 
C 2003 233 2182 -18 2464 -18 
C 2598 -18 2938 70 2938 567 
L 2938 920 
L 2822 920 
L 2822 562 
C 2822 178 2650 128 2566 128 
C 2304 128 2304 458 2304 738 
L 2304 1653 
z
M 1965 870 
C 1965 317 1568 38 1216 38 
C 896 38 646 275 646 570 
C 646 761 730 1100 1101 1305 
C 1408 1478 1760 1504 1965 1504 
L 1965 870 
z
" transform="scale(0.015625)"/>
       <path id="CMR17-63" d="M 2234 2240 
C 2112 2240 1933 2240 1933 2017 
C 1933 1838 2080 1787 2163 1787 
C 2208 1787 2394 1807 2394 2024 
C 2394 2467 1958 2803 1466 2803 
C 787 2803 211 2178 211 1363 
C 211 516 813 -64 1466 -64 
C 2259 -64 2458 677 2458 748 
C 2458 774 2451 793 2406 793 
C 2362 793 2355 787 2330 703 
C 2163 180 1798 51 1523 51 
C 1114 51 621 427 621 1369 
C 621 2338 1094 2688 1472 2688 
C 1722 2688 2093 2573 2234 2240 
z
" transform="scale(0.015625)"/>
       <path id="CMR17-6e" d="M 2656 1933 
C 2656 2259 2592 2790 1837 2790 
C 1331 2790 1069 2400 973 2144 
L 966 2144 
L 966 2790 
L 211 2720 
L 211 2554 
C 589 2554 646 2515 646 2208 
L 646 428 
C 646 184 621 153 211 153 
L 211 -13 
C 365 0 646 0 813 0 
C 979 0 1267 0 1421 -13 
L 1421 153 
C 1011 153 986 178 986 428 
L 986 1658 
C 986 2247 1344 2688 1792 2688 
C 2266 2688 2317 2266 2317 1958 
L 2317 428 
C 2317 184 2291 153 1882 153 
L 1882 -13 
C 2035 0 2317 0 2483 0 
C 2650 0 2938 0 3091 -13 
L 3091 153 
C 2682 153 2656 178 2656 428 
L 2656 1933 
z
" transform="scale(0.015625)"/>
       <path id="CMR17-74" d="M 966 2560 
L 1862 2560 
L 1862 2725 
L 966 2725 
L 966 3904 
L 851 3904 
C 838 3245 614 2668 70 2668 
L 70 2560 
L 627 2560 
L 627 771 
C 627 650 627 -64 1370 -64 
C 1747 -64 1965 306 1965 777 
L 1965 1140 
L 1850 1140 
L 1850 783 
C 1850 344 1677 51 1408 51 
C 1222 51 966 178 966 758 
L 966 2560 
z
" transform="scale(0.015625)"/>
      </defs>
      <use xlink:href="#CMR17-44" transform="scale(0.996264)"/>
      <use xlink:href="#CMR17-69" transform="translate(70.393556 0)scale(0.996264)"/>
      <use xlink:href="#CMR17-73" transform="translate(95.264614 0)scale(0.996264)"/>
      <use xlink:href="#CMR17-70" transform="translate(131.065952 0)scale(0.996264)"/>
      <use xlink:href="#CMR17-6c" transform="translate(181.961322 0)scale(0.996264)"/>
      <use xlink:href="#CMR17-61" transform="translate(206.83238 0)scale(0.996264)"/>
      <use xlink:href="#CMR17-63" transform="translate(252.522857 0)scale(0.996264)"/>
      <use xlink:href="#CMR17-65" transform="translate(293.008518 0)scale(0.996264)"/>
      <use xlink:href="#CMR17-6d" transform="translate(333.494178 0)scale(0.996264)"/>
      <use xlink:href="#CMR17-65" transform="translate(410.413768 0)scale(0.996264)"/>
      <use xlink:href="#CMR17-6e" transform="translate(450.899429 0)scale(0.996264)"/>
      <use xlink:href="#CMR17-74" transform="translate(499.192345 0)scale(0.996264)"/>
     </g>
    </g>
   </g>
   <g id="line2d_95">
    <path d="M 60.95538 9.777273 
L 61.37846 9.890467 
L 61.80154 10.229071 
L 62.224619 10.790938 
L 63.070779 12.572244 
L 63.916939 15.202419 
L 64.763098 18.638009 
L 66.032338 25.180196 
L 67.301577 33.186281 
L 68.993897 45.672354 
L 71.532375 66.788862 
L 74.917014 95.227052 
L 76.609333 107.810289 
L 77.878573 115.960077 
L 79.147812 122.737216 
L 79.993972 126.395269 
L 80.840132 129.311511 
L 81.68629 131.451741 
L 82.53245 132.792793 
L 82.95553 133.15945 
L 83.378609 133.322727 
L 83.80169 133.282905 
L 84.224769 133.040974 
L 84.64785 132.598601 
L 85.49401 131.122694 
L 86.340169 128.88219 
L 87.186328 125.914458 
L 88.032489 122.266576 
L 89.301728 115.644561 
L 90.570967 107.843344 
L 92.263286 96.054897 
L 96.071006 67.10406 
L 98.186406 51.911532 
L 99.878725 41.347788 
L 101.147964 34.726076 
L 102.4172 29.435773 
L 103.263361 26.723338 
L 104.109519 24.701281 
L 104.955681 23.39184 
L 105.378761 23.008563 
L 105.801839 22.807224 
L 106.22492 22.787752 
L 106.648 22.949486 
L 107.071081 23.291102 
L 107.917239 24.505586 
L 108.7634 26.408516 
L 109.609559 28.967849 
L 110.45572 32.1427 
L 111.724959 37.949747 
L 112.994198 44.833616 
L 114.68652 55.291401 
L 117.648075 75.394984 
L 120.186553 92.239284 
L 121.878876 102.178683 
L 123.148114 108.570273 
L 124.417353 113.840358 
L 125.263515 116.65519 
L 126.109676 118.869977 
L 126.955831 120.459058 
L 127.801992 121.405671 
L 128.225076 121.635262 
L 128.648154 121.702027 
L 129.071231 121.606416 
L 129.494315 121.349428 
L 129.917392 120.93264 
L 130.763554 119.628617 
L 131.609715 117.717621 
L 132.45587 115.231167 
L 133.725109 110.510131 
L 134.994354 104.745532 
L 136.68667 95.771293 
L 139.225148 80.622581 
L 142.609781 60.266628 
L 144.302104 51.278438 
L 145.571342 45.466428 
L 146.840581 40.642492 
L 147.686743 38.044767 
L 148.532904 35.979795 
L 149.379059 34.471738 
L 150.22522 33.536805 
L 150.648298 33.287151 
L 151.071382 33.183203 
L 151.494459 33.224731 
L 151.917543 33.41099 
L 152.34062 33.740709 
L 153.186782 34.82314 
L 154.032937 36.452324 
L 154.879098 38.601201 
L 156.148337 42.722628 
L 157.417576 47.793758 
L 159.109898 55.73698 
L 161.225298 66.909656 
L 165.456099 89.629603 
L 167.148421 97.475036 
L 168.41766 102.483006 
L 169.686899 106.575513 
L 170.533054 108.736835 
L 171.379209 110.413132 
L 172.225377 111.585259 
L 173.071532 112.241137 
L 173.494603 112.373717 
L 173.917687 112.376018 
L 174.340771 112.24856 
L 175.186926 111.608766 
L 176.033093 110.467467 
L 176.879248 108.844623 
L 177.725416 106.766687 
L 178.994655 102.869223 
L 180.263881 98.155047 
L 181.956204 90.872199 
L 184.494694 78.678425 
L 187.879327 62.451715 
L 189.571649 55.353167 
L 190.840888 50.795971 
L 192.110127 47.045855 
L 192.956282 45.047929 
L 193.802437 43.480848 
L 194.648605 42.362681 
L 195.49476 41.705261 
L 196.340927 41.513809 
L 196.764011 41.592696 
L 197.610166 42.095922 
L 198.456321 43.05006 
L 199.302489 44.438221 
L 200.148644 46.237507 
L 201.417883 49.644074 
L 202.687121 53.794483 
L 204.379444 60.244389 
L 206.917922 71.111577 
L 210.302567 85.681945 
L 211.994877 92.101899 
L 213.264116 96.246537 
L 214.533355 99.679997 
L 215.37951 101.52451 
L 216.225677 102.986461 
L 217.071845 104.048783 
L 217.918 104.700049 
L 218.764155 104.934706 
L 219.610322 104.752948 
L 220.456478 104.160757 
L 221.302633 103.169747 
L 222.148788 101.796918 
L 222.994955 100.064449 
L 224.264182 96.851668 
L 225.533421 93.000337 
L 227.225756 87.094289 
L 230.187305 75.612423 
L 233.148866 64.356798 
L 234.841189 58.754616 
L 236.110428 55.184752 
L 237.379666 52.273566 
L 238.225822 50.740227 
L 239.071977 49.555136 
L 239.918144 48.731745 
L 240.764311 48.278499 
L 241.610467 48.198578 
L 242.456622 48.489979 
L 243.302789 49.145593 
L 244.148944 50.153318 
L 244.9951 51.496272 
L 246.264339 54.091401 
L 247.533589 57.302524 
L 249.2259 62.354527 
L 251.341294 69.490381 
L 255.572106 84.084603 
L 257.264417 89.154036 
L 258.533656 92.403146 
L 259.802894 95.071421 
L 260.649062 96.48944 
L 261.495217 97.598042 
L 262.341384 98.384535 
L 263.187539 98.840651 
L 264.033695 98.962861 
L 264.879862 98.752228 
L 265.726005 98.214452 
L 266.572172 97.359669 
L 267.41834 96.202348 
L 268.687591 93.940665 
L 269.956817 91.118976 
L 271.649152 86.650871 
L 273.764546 80.301628 
L 278.418418 66.00563 
L 280.110728 61.587656 
L 281.379979 58.793989 
L 282.649206 56.537425 
L 283.495373 55.363428 
L 284.341516 54.470742 
L 285.187684 53.869309 
L 286.033827 53.565065 
L 286.879994 53.559746 
L 287.726161 53.850952 
L 288.572329 54.432185 
L 289.418472 55.292975 
L 290.264639 56.419121 
L 291.53389 58.56608 
L 292.803117 61.195661 
L 294.495452 65.299637 
L 297.033929 72.245377 
L 300.841634 82.694417 
L 302.533968 86.69459 
L 303.803195 89.239167 
L 305.072446 91.309885 
L 306.341673 92.8483 
L 307.18784 93.557183 
L 308.034007 94.003153 
L 308.880175 94.182218 
L 309.726318 94.094139 
L 310.572485 93.742336 
L 311.418628 93.13389 
L 312.264796 92.279341 
L 313.534022 90.567282 
L 314.803298 88.392931 
L 316.495608 84.903084 
L 318.611002 79.881969 
L 323.687957 67.423877 
L 325.380292 63.942362 
L 326.649519 61.75848 
L 327.91877 60.012046 
L 328.764937 59.115511 
L 329.611104 58.446026 
L 330.457248 58.010978 
L 331.303415 57.814413 
L 332.149558 57.857073 
L 332.995725 58.13639 
L 333.841868 58.646503 
L 334.688036 59.378494 
L 335.957287 60.865477 
L 337.226513 62.771982 
L 338.918848 65.853962 
L 341.034242 70.316667 
L 346.534281 82.327616 
L 348.226592 85.350337 
L 349.495843 87.218234 
L 350.765069 88.683299 
L 351.611237 89.415686 
L 352.457404 89.942305 
L 353.303571 90.257549 
L 354.149714 90.358812 
L 354.995882 90.246478 
L 355.842049 89.923871 
L 356.688216 89.397197 
L 357.957443 88.244981 
L 359.22667 86.695663 
L 360.495897 84.802258 
L 362.188231 81.852524 
L 364.726709 76.869631 
L 368.534438 69.391333 
L 370.226772 66.535171 
L 371.495999 64.72149 
L 372.765226 63.248759 
L 374.034452 62.158413 
L 374.88062 61.658875 
L 375.726787 61.347869 
L 376.572954 61.228156 
L 377.419098 61.299793 
L 378.265265 61.560205 
L 379.111432 62.004226 
L 380.380683 62.997076 
L 381.64991 64.349469 
L 382.919137 66.014994 
L 384.611447 68.6257 
L 387.149949 73.064366 
L 390.957653 79.779747 
L 392.649988 82.364986 
L 394.342298 84.50202 
L 395.611549 85.743328 
L 396.880776 86.635369 
L 397.726919 87.024033 
L 398.573087 87.242865 
L 399.419254 87.290247 
L 400.265421 87.166933 
L 401.111564 86.876062 
L 402.380815 86.138018 
L 403.650066 85.063082 
L 404.919293 83.68883 
L 406.611628 81.47202 
L 408.727022 78.268144 
L 414.227061 69.670252 
L 415.919371 67.513392 
L 417.188622 66.183208 
L 418.457849 65.142643 
L 419.7271 64.420341 
L 420.996351 64.034777 
L 421.842494 63.969098 
L 422.688661 64.056392 
L 423.957888 64.468166 
L 425.227115 65.201082 
L 426.496366 66.228434 
L 427.765617 67.514675 
L 429.457927 69.556909 
L 431.996405 73.075216 
L 436.227193 79.04026 
L 437.919528 81.079551 
L 439.611838 82.750218 
L 440.881089 83.708879 
L 442.150316 84.38491 
L 443.419567 84.760882 
L 444.688818 84.828838 
L 445.958044 84.590513 
L 447.227271 84.057098 
L 448.496498 83.248829 
L 449.765749 82.194171 
L 451.458084 80.467475 
L 453.573478 77.938905 
L 459.4966 70.546282 
L 461.188911 68.850699 
L 462.458138 67.814427 
L 463.727389 67.013491 
L 464.996639 66.469814 
L 466.265866 66.197073 
L 467.535069 66.200342 
L 468.804344 66.476106 
L 470.073571 67.0124 
L 471.342846 67.78939 
L 473.03518 69.151962 
L 474.727467 70.812335 
L 477.265969 73.648336 
L 481.496757 78.403075 
L 483.189091 80.010451 
L 484.881378 81.315119 
L 486.150604 82.054107 
L 487.41988 82.564575 
L 488.689106 82.833487 
L 489.958381 82.855524 
L 491.22756 82.633083 
L 492.496835 82.176069 
L 493.766062 81.501622 
L 495.458348 80.305784 
L 497.150683 78.837387 
L 499.689185 76.31264 
L 503.919973 72.043033 
L 506.035367 70.261937 
L 507.727701 69.14825 
L 508.996928 68.533087 
L 510.266203 68.125705 
L 511.535382 67.936199 
L 512.804657 67.967708 
L 514.073884 68.216516 
L 515.343159 68.672222 
L 517.035493 69.571934 
L 518.72778 70.754013 
L 520.843174 72.521716 
L 527.612464 78.517191 
L 529.30475 79.666489 
L 530.997084 80.539599 
L 532.266311 80.986368 
L 533.535538 81.241361 
L 534.804813 81.299053 
L 536.07404 81.160098 
L 537.343315 80.831243 
L 539.035601 80.119907 
L 540.727936 79.13823 
L 542.843282 77.621006 
L 546.651059 74.501955 
L 549.612572 72.202745 
L 551.728014 70.864299 
L 553.420349 70.062725 
L 555.112635 69.544774 
L 556.381862 69.357358 
L 557.651137 69.346848 
L 558.920315 69.511363 
L 560.61265 69.989661 
L 562.304984 70.734422 
L 564.420427 71.969892 
L 566.95888 73.747436 
L 568.228107 74.69122 
L 568.228107 74.69122 
" clip-path="url(#p6d8b274360)" style="fill: none; stroke: #000000; stroke-linecap: square"/>
   </g>
   <g id="patch_3">
    <path d="M 35.591744 139.5 
L 35.591744 3.6 
" style="fill: none; stroke: #000000; stroke-width: 0.5; stroke-linejoin: miter; stroke-linecap: square"/>
   </g>
   <g id="patch_4">
    <path d="M 593.591744 139.5 
L 593.591744 3.6 
" style="fill: none; stroke: #000000; stroke-width: 0.5; stroke-linejoin: miter; stroke-linecap: square"/>
   </g>
   <g id="patch_5">
    <path d="M 35.591744 139.5 
L 593.591744 139.5 
" style="fill: none; stroke: #000000; stroke-width: 0.5; stroke-linejoin: miter; stroke-linecap: square"/>
   </g>
   <g id="patch_6">
    <path d="M 35.591744 3.6 
L 593.591744 3.6 
" style="fill: none; stroke: #000000; stroke-width: 0.5; stroke-linejoin: miter; stroke-linecap: square"/>
   </g>
   <g id="legend_1">
    <g id="line2d_96">
     <path d="M 500.707316 13.6 
L 508.707316 13.6 
L 516.707316 13.6 
" style="fill: none; stroke: #000000; stroke-linecap: square"/>
    </g>
    <g id="text_13">
     <!-- Original function -->
     <g transform="translate(523.107316 16.4)scale(0.08 -0.08)">
      <defs>
       <path id="CMR17-4f" d="M 4307 2135 
C 4307 3437 3366 4416 2304 4416 
C 1216 4416 294 3424 294 2135 
C 294 845 1229 -128 2298 -128 
C 3392 -128 4307 864 4307 2135 
z
M 2304 -13 
C 1574 -13 781 711 781 2217 
C 781 3716 1651 4301 2298 4301 
C 2976 4301 3821 3698 3821 2217 
C 3821 686 3008 -13 2304 -13 
z
" transform="scale(0.015625)"/>
       <path id="CMR17-72" d="M 960 1497 
C 960 2112 1222 2688 1702 2688 
C 1747 2688 1792 2682 1837 2662 
C 1837 2662 1696 2617 1696 2452 
C 1696 2298 1818 2234 1914 2234 
C 1990 2234 2131 2279 2131 2458 
C 2131 2663 1926 2790 1709 2790 
C 1222 2790 1011 2317 947 2093 
L 941 2093 
L 941 2790 
L 198 2720 
L 198 2554 
C 576 2554 634 2515 634 2208 
L 634 428 
C 634 184 608 153 198 153 
L 198 -13 
C 352 0 646 0 813 0 
C 998 0 1325 0 1498 -13 
L 1498 153 
C 1037 153 960 153 960 440 
L 960 1497 
z
" transform="scale(0.015625)"/>
       <path id="CMR17-67" d="M 710 1164 
C 832 1068 1043 960 1299 960 
C 1805 960 2240 1357 2240 1888 
C 2240 2054 2189 2310 1997 2509 
C 2176 2692 2438 2752 2586 2752 
C 2611 2752 2650 2752 2682 2734 
C 2656 2728 2598 2703 2598 2605 
C 2598 2527 2656 2471 2739 2471 
C 2835 2471 2886 2533 2886 2614 
C 2886 2731 2790 2854 2586 2854 
C 2330 2854 2106 2738 1926 2580 
C 1734 2753 1504 2816 1299 2816 
C 794 2816 358 2419 358 1888 
C 358 1522 570 1292 634 1228 
C 442 1004 442 743 442 711 
C 442 545 506 302 723 168 
C 390 85 128 -169 128 -486 
C 128 -943 736 -1280 1466 -1280 
C 2170 -1280 2803 -956 2803 -479 
C 2803 384 1856 384 1363 384 
C 1216 384 954 384 922 391 
C 723 423 589 602 589 826 
C 589 883 589 1024 710 1164 
z
M 1299 1068 
C 736 1068 736 1760 736 1889 
C 736 2016 736 2708 1299 2708 
C 1862 2708 1862 2016 1862 1889 
C 1862 1760 1862 1068 1299 1068 
z
M 1466 -1171 
C 826 -1171 384 -835 384 -486 
C 384 -289 493 -105 634 -4 
C 794 104 858 104 1293 104 
C 1818 104 2547 104 2547 -486 
C 2547 -835 2106 -1171 1466 -1171 
z
" transform="scale(0.015625)"/>
       <path id="CMR17-66" d="M 979 2560 
L 1709 2560 
L 1709 2725 
L 966 2725 
L 966 3494 
C 966 4022 1235 4352 1510 4352 
C 1594 4352 1690 4327 1754 4282 
C 1702 4269 1568 4225 1568 4067 
C 1568 3901 1696 3850 1786 3850 
C 1875 3850 2003 3901 2003 4067 
C 2003 4308 1773 4454 1517 4454 
C 1152 4454 653 4156 653 3481 
L 653 2725 
L 141 2725 
L 141 2560 
L 653 2560 
L 653 427 
C 653 184 627 153 218 153 
L 218 -13 
C 371 0 666 0 832 0 
C 1018 0 1344 0 1517 -13 
L 1517 153 
C 1056 153 979 153 979 439 
L 979 2560 
z
" transform="scale(0.015625)"/>
       <path id="CMR17-75" d="M 1882 2693 
L 1882 2528 
C 2259 2528 2317 2489 2317 2186 
L 2317 1032 
C 2317 500 2029 38 1555 38 
C 1030 38 986 348 986 678 
L 986 2763 
L 211 2693 
L 211 2528 
C 467 2528 640 2528 646 2274 
L 646 1058 
C 646 633 646 361 813 183 
C 896 101 1056 -64 1517 -64 
C 2061 -64 2272 377 2323 506 
L 2330 506 
L 2330 -63 
L 3091 -63 
L 3091 128 
C 2714 128 2656 166 2656 473 
L 2656 2763 
L 1882 2693 
z
" transform="scale(0.015625)"/>
       <path id="CMR17-6f" d="M 2758 1356 
C 2758 2176 2163 2816 1466 2816 
C 768 2816 173 2176 173 1356 
C 173 551 768 -64 1466 -64 
C 2163 -64 2758 551 2758 1356 
z
M 1466 51 
C 1165 51 909 230 762 480 
C 602 767 582 1126 582 1408 
C 582 1677 595 2010 762 2298 
C 890 2509 1139 2714 1466 2714 
C 1754 2714 1997 2554 2150 2330 
C 2349 2029 2349 1607 2349 1408 
C 2349 1158 2336 775 2163 467 
C 1984 173 1709 51 1466 51 
z
" transform="scale(0.015625)"/>
      </defs>
      <use xlink:href="#CMR17-4f" transform="scale(0.996264)"/>
      <use xlink:href="#CMR17-72" transform="translate(71.714788 0)scale(0.996264)"/>
      <use xlink:href="#CMR17-69" transform="translate(106.995556 0)scale(0.996264)"/>
      <use xlink:href="#CMR17-67" transform="translate(131.866615 0)scale(0.996264)"/>
      <use xlink:href="#CMR17-69" transform="translate(177.557092 0)scale(0.996264)"/>
      <use xlink:href="#CMR17-6e" transform="translate(202.42815 0)scale(0.996264)"/>
      <use xlink:href="#CMR17-61" transform="translate(253.32352 0)scale(0.996264)"/>
      <use xlink:href="#CMR17-6c" transform="translate(299.013997 0)scale(0.996264)"/>
      <use xlink:href="#CMR17-66" transform="translate(353.961022 0)scale(0.996264)"/>
      <use xlink:href="#CMR17-75" transform="translate(381.434534 0)scale(0.996264)"/>
      <use xlink:href="#CMR17-6e" transform="translate(432.329904 0)scale(0.996264)"/>
      <use xlink:href="#CMR17-63" transform="translate(483.225274 0)scale(0.996264)"/>
      <use xlink:href="#CMR17-74" transform="translate(523.710934 0)scale(0.996264)"/>
      <use xlink:href="#CMR17-69" transform="translate(558.991702 0)scale(0.996264)"/>
      <use xlink:href="#CMR17-6f" transform="translate(583.862761 0)scale(0.996264)"/>
      <use xlink:href="#CMR17-6e" transform="translate(629.553238 0)scale(0.996264)"/>
     </g>
    </g>
    <g id="PathCollection_2">
     <g>
      <use xlink:href="#m403ae29574" x="508.707316" y="25.449746" style="fill: #0000ff; stroke: #0000ff"/>
     </g>
    </g>
    <g id="text_14">
     <!-- Training points -->
     <g transform="translate(523.107316 27.549746)scale(0.08 -0.08)">
      <use xlink:href="#CMR17-54" transform="scale(0.996264)"/>
      <use xlink:href="#CMR17-72" transform="translate(58.702625 0)scale(0.996264)"/>
      <use xlink:href="#CMR17-61" transform="translate(93.983393 0)scale(0.996264)"/>
      <use xlink:href="#CMR17-69" transform="translate(139.67387 0)scale(0.996264)"/>
      <use xlink:href="#CMR17-6e" transform="translate(164.544929 0)scale(0.996264)"/>
      <use xlink:href="#CMR17-69" transform="translate(215.440298 0)scale(0.996264)"/>
      <use xlink:href="#CMR17-6e" transform="translate(240.311357 0)scale(0.996264)"/>
      <use xlink:href="#CMR17-67" transform="translate(291.206727 0)scale(0.996264)"/>
      <use xlink:href="#CMR17-70" transform="translate(366.97317 0)scale(0.996264)"/>
      <use xlink:href="#CMR17-6f" transform="translate(420.470979 0)scale(0.996264)"/>
      <use xlink:href="#CMR17-69" transform="translate(466.161456 0)scale(0.996264)"/>
      <use xlink:href="#CMR17-6e" transform="translate(491.032514 0)scale(0.996264)"/>
      <use xlink:href="#CMR17-74" transform="translate(539.32543 0)scale(0.996264)"/>
      <use xlink:href="#CMR17-73" transform="translate(574.606198 0)scale(0.996264)"/>
     </g>
    </g>
   </g>
  </g>
 </g>
 <defs>
  <clipPath id="p6d8b274360">
   <rect x="35.591744" y="3.6" width="558" height="135.9"/>
  </clipPath>
 </defs>
</svg>
