<?xml version="1.0" encoding="utf-8" standalone="no"?>
<!DOCTYPE svg PUBLIC "-//W3C//DTD SVG 1.1//EN"
  "http://www.w3.org/Graphics/SVG/1.1/DTD/svg11.dtd">
<svg xmlns:xlink="http://www.w3.org/1999/xlink" width="601.425926pt" height="164.769095pt" viewBox="0 0 601.425926 164.769095" xmlns="http://www.w3.org/2000/svg" version="1.1">
 <metadata>
  <rdf:RDF xmlns:dc="http://purl.org/dc/elements/1.1/" xmlns:cc="http://creativecommons.org/ns#" xmlns:rdf="http://www.w3.org/1999/02/22-rdf-syntax-ns#">
   <cc:Work>
    <dc:type rdf:resource="http://purl.org/dc/dcmitype/StillImage"/>
    <dc:date>2023-08-12T03:38:14.102815</dc:date>
    <dc:format>image/svg+xml</dc:format>
    <dc:creator>
     <cc:Agent>
      <dc:title>Matplotlib v3.5.1, https://matplotlib.org/</dc:title>
     </cc:Agent>
    </dc:creator>
   </cc:Work>
  </rdf:RDF>
 </metadata>
 <defs>
  <style type="text/css">*{stroke-linejoin: round; stroke-linecap: butt}</style>
 </defs>
 <g id="figure_1">
  <g id="patch_1">
   <path d="M 0 164.769095 
L 601.425926 164.769095 
L 601.425926 0 
L 0 0 
L 0 164.769095 
z
" style="fill: none"/>
  </g>
  <g id="axes_1">
   <g id="patch_2">
    <path d="M 39.825926 139.5 
L 597.825926 139.5 
L 597.825926 3.6 
L 39.825926 3.6 
z
" style="fill: #ffffff"/>
   </g>
   <g id="PathCollection_1">
    <defs>
     <path id="m5ec116b37f" d="M 0 1.5 
C 0.397805 1.5 0.77937 1.341951 1.06066 1.06066 
C 1.341951 0.77937 1.5 0.397805 1.5 0 
C 1.5 -0.397805 1.341951 -0.77937 1.06066 -1.06066 
C 0.77937 -1.341951 0.397805 -1.5 0 -1.5 
C -0.397805 -1.5 -0.77937 -1.341951 -1.06066 -1.06066 
C -1.341951 -0.77937 -1.5 -0.397805 -1.5 0 
C -1.5 0.397805 -1.341951 0.77937 -1.06066 1.06066 
C -0.77937 1.341951 -0.397805 1.5 0 1.5 
z
" style="stroke: #ffa500"/>
    </defs>
    <g clip-path="url(#p11a6e917f3)">
     <use xlink:href="#m5ec116b37f" x="65.189563" y="81.236269" style="fill: #ffa500; stroke: #ffa500"/>
     <use xlink:href="#m5ec116b37f" x="82.681726" y="81.236269" style="fill: #ffa500; stroke: #ffa500"/>
     <use xlink:href="#m5ec116b37f" x="100.173889" y="81.236269" style="fill: #ffa500; stroke: #ffa500"/>
     <use xlink:href="#m5ec116b37f" x="117.66605" y="81.236269" style="fill: #ffa500; stroke: #ffa500"/>
     <use xlink:href="#m5ec116b37f" x="135.158215" y="81.236269" style="fill: #ffa500; stroke: #ffa500"/>
     <use xlink:href="#m5ec116b37f" x="152.650379" y="81.236269" style="fill: #ffa500; stroke: #ffa500"/>
     <use xlink:href="#m5ec116b37f" x="170.142537" y="81.236269" style="fill: #ffa500; stroke: #ffa500"/>
     <use xlink:href="#m5ec116b37f" x="187.634702" y="81.236269" style="fill: #ffa500; stroke: #ffa500"/>
     <use xlink:href="#m5ec116b37f" x="205.126866" y="81.236269" style="fill: #ffa500; stroke: #ffa500"/>
     <use xlink:href="#m5ec116b37f" x="222.619024" y="81.236269" style="fill: #ffa500; stroke: #ffa500"/>
     <use xlink:href="#m5ec116b37f" x="240.111196" y="81.236269" style="fill: #ffa500; stroke: #ffa500"/>
     <use xlink:href="#m5ec116b37f" x="257.603353" y="81.236269" style="fill: #ffa500; stroke: #ffa500"/>
     <use xlink:href="#m5ec116b37f" x="275.095511" y="81.236269" style="fill: #ffa500; stroke: #ffa500"/>
     <use xlink:href="#m5ec116b37f" x="292.587683" y="81.236269" style="fill: #ffa500; stroke: #ffa500"/>
     <use xlink:href="#m5ec116b37f" x="310.07984" y="81.236269" style="fill: #ffa500; stroke: #ffa500"/>
     <use xlink:href="#m5ec116b37f" x="327.571998" y="81.236269" style="fill: #ffa500; stroke: #ffa500"/>
     <use xlink:href="#m5ec116b37f" x="345.06417" y="81.236269" style="fill: #ffa500; stroke: #ffa500"/>
     <use xlink:href="#m5ec116b37f" x="362.556342" y="81.236269" style="fill: #ffa500; stroke: #ffa500"/>
     <use xlink:href="#m5ec116b37f" x="380.048484" y="81.236269" style="fill: #ffa500; stroke: #ffa500"/>
     <use xlink:href="#m5ec116b37f" x="397.540657" y="81.236269" style="fill: #ffa500; stroke: #ffa500"/>
     <use xlink:href="#m5ec116b37f" x="415.032829" y="81.236269" style="fill: #ffa500; stroke: #ffa500"/>
     <use xlink:href="#m5ec116b37f" x="432.524971" y="81.236269" style="fill: #ffa500; stroke: #ffa500"/>
     <use xlink:href="#m5ec116b37f" x="450.017144" y="81.236269" style="fill: #ffa500; stroke: #ffa500"/>
     <use xlink:href="#m5ec116b37f" x="467.509316" y="81.236269" style="fill: #ffa500; stroke: #ffa500"/>
     <use xlink:href="#m5ec116b37f" x="485.001489" y="81.236269" style="fill: #ffa500; stroke: #ffa500"/>
     <use xlink:href="#m5ec116b37f" x="502.493631" y="81.236269" style="fill: #ffa500; stroke: #ffa500"/>
     <use xlink:href="#m5ec116b37f" x="519.985803" y="81.236269" style="fill: #ffa500; stroke: #ffa500"/>
     <use xlink:href="#m5ec116b37f" x="537.477976" y="81.236269" style="fill: #ffa500; stroke: #ffa500"/>
     <use xlink:href="#m5ec116b37f" x="554.970118" y="81.236269" style="fill: #ffa500; stroke: #ffa500"/>
     <use xlink:href="#m5ec116b37f" x="572.46229" y="81.236269" style="fill: #ffa500; stroke: #ffa500"/>
    </g>
   </g>
   <g id="PathCollection_2">
    <defs>
     <path id="m876d7f6d29" d="M 0 1.5 
C 0.397805 1.5 0.77937 1.341951 1.06066 1.06066 
C 1.341951 0.77937 1.5 0.397805 1.5 0 
C 1.5 -0.397805 1.341951 -0.77937 1.06066 -1.06066 
C 0.77937 -1.341951 0.397805 -1.5 0 -1.5 
C -0.397805 -1.5 -0.77937 -1.341951 -1.06066 -1.06066 
C -1.341951 -0.77937 -1.5 -0.397805 -1.5 0 
C -1.5 0.397805 -1.341951 0.77937 -1.06066 1.06066 
C -0.77937 1.341951 -0.397805 1.5 0 1.5 
z
" style="stroke: #0000ff"/>
    </defs>
    <g clip-path="url(#p11a6e917f3)">
     <use xlink:href="#m876d7f6d29" x="65.189563" y="9.810518" style="fill: #0000ff; stroke: #0000ff"/>
     <use xlink:href="#m876d7f6d29" x="69.562604" y="10.857449" style="fill: #0000ff; stroke: #0000ff"/>
     <use xlink:href="#m876d7f6d29" x="73.935644" y="13.920258" style="fill: #0000ff; stroke: #0000ff"/>
     <use xlink:href="#m876d7f6d29" x="78.308685" y="18.841351" style="fill: #0000ff; stroke: #0000ff"/>
     <use xlink:href="#m876d7f6d29" x="82.681726" y="25.414297" style="fill: #0000ff; stroke: #0000ff"/>
     <use xlink:href="#m876d7f6d29" x="87.054767" y="33.391536" style="fill: #0000ff; stroke: #0000ff"/>
     <use xlink:href="#m876d7f6d29" x="91.427806" y="42.49293" style="fill: #0000ff; stroke: #0000ff"/>
     <use xlink:href="#m876d7f6d29" x="95.800848" y="52.415107" style="fill: #0000ff; stroke: #0000ff"/>
     <use xlink:href="#m876d7f6d29" x="100.173889" y="62.841036" style="fill: #0000ff; stroke: #0000ff"/>
     <use xlink:href="#m876d7f6d29" x="104.546928" y="73.449757" style="fill: #0000ff; stroke: #0000ff"/>
     <use xlink:href="#m876d7f6d29" x="108.919971" y="83.92586" style="fill: #0000ff; stroke: #0000ff"/>
     <use xlink:href="#m876d7f6d29" x="113.29301" y="93.968467" style="fill: #0000ff; stroke: #0000ff"/>
     <use xlink:href="#m876d7f6d29" x="117.66605" y="103.299563" style="fill: #0000ff; stroke: #0000ff"/>
     <use xlink:href="#m876d7f6d29" x="122.039093" y="111.67131" style="fill: #0000ff; stroke: #0000ff"/>
     <use xlink:href="#m876d7f6d29" x="126.412132" y="118.872172" style="fill: #0000ff; stroke: #0000ff"/>
     <use xlink:href="#m876d7f6d29" x="130.785171" y="124.731976" style="fill: #0000ff; stroke: #0000ff"/>
     <use xlink:href="#m876d7f6d29" x="135.158215" y="129.125372" style="fill: #0000ff; stroke: #0000ff"/>
     <use xlink:href="#m876d7f6d29" x="139.531258" y="131.974008" style="fill: #0000ff; stroke: #0000ff"/>
     <use xlink:href="#m876d7f6d29" x="143.904293" y="133.247211" style="fill: #0000ff; stroke: #0000ff"/>
     <use xlink:href="#m876d7f6d29" x="148.277336" y="132.961261" style="fill: #0000ff; stroke: #0000ff"/>
     <use xlink:href="#m876d7f6d29" x="152.650379" y="131.177347" style="fill: #0000ff; stroke: #0000ff"/>
     <use xlink:href="#m876d7f6d29" x="157.023415" y="127.998254" style="fill: #0000ff; stroke: #0000ff"/>
     <use xlink:href="#m876d7f6d29" x="161.396458" y="123.563916" style="fill: #0000ff; stroke: #0000ff"/>
     <use xlink:href="#m876d7f6d29" x="165.769501" y="118.046127" style="fill: #0000ff; stroke: #0000ff"/>
     <use xlink:href="#m876d7f6d29" x="170.142544" y="111.642431" style="fill: #0000ff; stroke: #0000ff"/>
     <use xlink:href="#m876d7f6d29" x="174.51558" y="104.56955" style="fill: #0000ff; stroke: #0000ff"/>
     <use xlink:href="#m876d7f6d29" x="178.888623" y="97.056282" style="fill: #0000ff; stroke: #0000ff"/>
     <use xlink:href="#m876d7f6d29" x="183.261666" y="89.336577" style="fill: #0000ff; stroke: #0000ff"/>
     <use xlink:href="#m876d7f6d29" x="187.634702" y="81.64243" style="fill: #0000ff; stroke: #0000ff"/>
     <use xlink:href="#m876d7f6d29" x="192.007745" y="74.197216" style="fill: #0000ff; stroke: #0000ff"/>
    </g>
   </g>
   <g id="matplotlib.axis_1">
    <g id="xtick_1">
     <g id="line2d_1">
      <path d="M 65.189563 139.5 
L 65.189563 3.6 
" clip-path="url(#p11a6e917f3)" style="fill: none; stroke: #b0b0b0; stroke-width: 0.5; stroke-linecap: square"/>
     </g>
     <g id="line2d_2">
      <defs>
       <path id="m2e5510d7b3" d="M 0 0 
L 0 -3 
" style="stroke: #000000; stroke-width: 0.5"/>
      </defs>
      <g>
       <use xlink:href="#m2e5510d7b3" x="65.189563" y="139.5" style="stroke: #000000; stroke-width: 0.5"/>
      </g>
     </g>
     <g id="line2d_3">
      <defs>
       <path id="med5ccc040a" d="M 0 0 
L 0 3 
" style="stroke: #000000; stroke-width: 0.5"/>
      </defs>
      <g>
       <use xlink:href="#med5ccc040a" x="65.189563" y="3.6" style="stroke: #000000; stroke-width: 0.5"/>
      </g>
     </g>
     <g id="text_1">
      <!-- $\mathdefault{0.0}$ -->
      <g transform="translate(59.779218 148.534802)scale(0.08 -0.08)">
       <defs>
        <path id="CMR17-30" d="M 2688 2025 
C 2688 2416 2682 3080 2413 3591 
C 2176 4039 1798 4198 1466 4198 
C 1158 4198 768 4058 525 3597 
C 269 3118 243 2524 243 2025 
C 243 1661 250 1106 448 619 
C 723 -39 1216 -128 1466 -128 
C 1760 -128 2208 -7 2470 600 
C 2662 1042 2688 1559 2688 2025 
z
M 1466 -26 
C 1056 -26 813 325 723 812 
C 653 1188 653 1738 653 2096 
C 653 2588 653 2997 736 3387 
C 858 3929 1216 4096 1466 4096 
C 1728 4096 2067 3923 2189 3400 
C 2272 3036 2278 2607 2278 2096 
C 2278 1680 2278 1169 2202 792 
C 2067 95 1690 -26 1466 -26 
z
" transform="scale(0.015625)"/>
        <path id="CMMI12-3a" d="M 1178 307 
C 1178 492 1024 619 870 619 
C 685 619 557 466 557 313 
C 557 128 710 0 864 0 
C 1050 0 1178 153 1178 307 
z
" transform="scale(0.015625)"/>
       </defs>
       <use xlink:href="#CMR17-30" transform="scale(0.996264)"/>
       <use xlink:href="#CMMI12-3a" transform="translate(45.690477 0)scale(0.996264)"/>
       <use xlink:href="#CMR17-30" transform="translate(72.787654 0)scale(0.996264)"/>
      </g>
     </g>
    </g>
    <g id="xtick_2">
     <g id="line2d_4">
      <path d="M 166.644108 139.5 
L 166.644108 3.6 
" clip-path="url(#p11a6e917f3)" style="fill: none; stroke: #b0b0b0; stroke-width: 0.5; stroke-linecap: square"/>
     </g>
     <g id="line2d_5">
      <g>
       <use xlink:href="#m2e5510d7b3" x="166.644108" y="139.5" style="stroke: #000000; stroke-width: 0.5"/>
      </g>
     </g>
     <g id="line2d_6">
      <g>
       <use xlink:href="#med5ccc040a" x="166.644108" y="3.6" style="stroke: #000000; stroke-width: 0.5"/>
      </g>
     </g>
     <g id="text_2">
      <!-- $\mathdefault{0.2}$ -->
      <g transform="translate(161.233764 148.534802)scale(0.08 -0.08)">
       <defs>
        <path id="CMR17-32" d="M 2669 989 
L 2554 989 
C 2490 536 2438 459 2413 420 
C 2381 369 1920 369 1830 369 
L 602 369 
C 832 619 1280 1072 1824 1597 
C 2214 1967 2669 2402 2669 3035 
C 2669 3790 2067 4224 1395 4224 
C 691 4224 262 3604 262 3030 
C 262 2780 448 2748 525 2748 
C 589 2748 781 2787 781 3010 
C 781 3207 614 3264 525 3264 
C 486 3264 448 3258 422 3245 
C 544 3790 915 4058 1306 4058 
C 1862 4058 2227 3617 2227 3035 
C 2227 2479 1901 2000 1536 1584 
L 262 146 
L 262 0 
L 2515 0 
L 2669 989 
z
" transform="scale(0.015625)"/>
       </defs>
       <use xlink:href="#CMR17-30" transform="scale(0.996264)"/>
       <use xlink:href="#CMMI12-3a" transform="translate(45.690477 0)scale(0.996264)"/>
       <use xlink:href="#CMR17-32" transform="translate(72.787654 0)scale(0.996264)"/>
      </g>
     </g>
    </g>
    <g id="xtick_3">
     <g id="line2d_7">
      <path d="M 268.098654 139.5 
L 268.098654 3.6 
" clip-path="url(#p11a6e917f3)" style="fill: none; stroke: #b0b0b0; stroke-width: 0.5; stroke-linecap: square"/>
     </g>
     <g id="line2d_8">
      <g>
       <use xlink:href="#m2e5510d7b3" x="268.098654" y="139.5" style="stroke: #000000; stroke-width: 0.5"/>
      </g>
     </g>
     <g id="line2d_9">
      <g>
       <use xlink:href="#med5ccc040a" x="268.098654" y="3.6" style="stroke: #000000; stroke-width: 0.5"/>
      </g>
     </g>
     <g id="text_3">
      <!-- $\mathdefault{0.4}$ -->
      <g transform="translate(262.688309 148.534802)scale(0.08 -0.08)">
       <defs>
        <path id="CMR17-34" d="M 2150 4122 
C 2150 4256 2144 4256 2029 4256 
L 128 1254 
L 128 1088 
L 1779 1088 
L 1779 457 
C 1779 224 1766 160 1318 160 
L 1197 160 
L 1197 0 
C 1402 0 1747 0 1965 0 
C 2182 0 2528 0 2733 0 
L 2733 160 
L 2611 160 
C 2163 160 2150 224 2150 457 
L 2150 1088 
L 2803 1088 
L 2803 1254 
L 2150 1254 
L 2150 4122 
z
M 1798 3703 
L 1798 1254 
L 256 1254 
L 1798 3703 
z
" transform="scale(0.015625)"/>
       </defs>
       <use xlink:href="#CMR17-30" transform="scale(0.996264)"/>
       <use xlink:href="#CMMI12-3a" transform="translate(45.690477 0)scale(0.996264)"/>
       <use xlink:href="#CMR17-34" transform="translate(72.787654 0)scale(0.996264)"/>
      </g>
     </g>
    </g>
    <g id="xtick_4">
     <g id="line2d_10">
      <path d="M 369.553199 139.5 
L 369.553199 3.6 
" clip-path="url(#p11a6e917f3)" style="fill: none; stroke: #b0b0b0; stroke-width: 0.5; stroke-linecap: square"/>
     </g>
     <g id="line2d_11">
      <g>
       <use xlink:href="#m2e5510d7b3" x="369.553199" y="139.5" style="stroke: #000000; stroke-width: 0.5"/>
      </g>
     </g>
     <g id="line2d_12">
      <g>
       <use xlink:href="#med5ccc040a" x="369.553199" y="3.6" style="stroke: #000000; stroke-width: 0.5"/>
      </g>
     </g>
     <g id="text_4">
      <!-- $\mathdefault{0.6}$ -->
      <g transform="translate(364.142854 148.534802)scale(0.08 -0.08)">
       <defs>
        <path id="CMR17-36" d="M 678 2176 
C 678 3690 1395 4032 1811 4032 
C 1946 4032 2272 4009 2400 3776 
C 2298 3776 2106 3776 2106 3553 
C 2106 3381 2246 3323 2336 3323 
C 2394 3323 2566 3348 2566 3560 
C 2566 3954 2246 4179 1805 4179 
C 1043 4179 243 3390 243 1984 
C 243 253 966 -128 1478 -128 
C 2099 -128 2688 427 2688 1283 
C 2688 2081 2170 2662 1517 2662 
C 1126 2662 838 2407 678 1960 
L 678 2176 
z
M 1478 25 
C 691 25 691 1200 691 1436 
C 691 1896 909 2560 1504 2560 
C 1613 2560 1926 2560 2138 2120 
C 2253 1870 2253 1609 2253 1289 
C 2253 944 2253 690 2118 434 
C 1978 171 1773 25 1478 25 
z
" transform="scale(0.015625)"/>
       </defs>
       <use xlink:href="#CMR17-30" transform="scale(0.996264)"/>
       <use xlink:href="#CMMI12-3a" transform="translate(45.690477 0)scale(0.996264)"/>
       <use xlink:href="#CMR17-36" transform="translate(72.787654 0)scale(0.996264)"/>
      </g>
     </g>
    </g>
    <g id="xtick_5">
     <g id="line2d_13">
      <path d="M 471.007745 139.5 
L 471.007745 3.6 
" clip-path="url(#p11a6e917f3)" style="fill: none; stroke: #b0b0b0; stroke-width: 0.5; stroke-linecap: square"/>
     </g>
     <g id="line2d_14">
      <g>
       <use xlink:href="#m2e5510d7b3" x="471.007745" y="139.5" style="stroke: #000000; stroke-width: 0.5"/>
      </g>
     </g>
     <g id="line2d_15">
      <g>
       <use xlink:href="#med5ccc040a" x="471.007745" y="3.6" style="stroke: #000000; stroke-width: 0.5"/>
      </g>
     </g>
     <g id="text_5">
      <!-- $\mathdefault{0.8}$ -->
      <g transform="translate(465.5974 148.534802)scale(0.08 -0.08)">
       <defs>
        <path id="CMR17-38" d="M 1741 2264 
C 2144 2467 2554 2773 2554 3263 
C 2554 3841 1990 4179 1472 4179 
C 890 4179 378 3759 378 3180 
C 378 3021 416 2747 666 2505 
C 730 2442 998 2251 1171 2130 
C 883 1983 211 1634 211 934 
C 211 279 838 -128 1459 -128 
C 2144 -128 2720 362 2720 1010 
C 2720 1590 2330 1857 2074 2029 
L 1741 2264 
z
M 902 2822 
C 851 2854 595 3051 595 3351 
C 595 3739 998 4032 1459 4032 
C 1965 4032 2336 3676 2336 3262 
C 2336 2669 1670 2331 1638 2331 
C 1632 2331 1626 2331 1574 2370 
L 902 2822 
z
M 2080 1519 
C 2176 1449 2483 1240 2483 851 
C 2483 381 2010 25 1472 25 
C 890 25 448 438 448 940 
C 448 1443 838 1862 1280 2060 
L 2080 1519 
z
" transform="scale(0.015625)"/>
       </defs>
       <use xlink:href="#CMR17-30" transform="scale(0.996264)"/>
       <use xlink:href="#CMMI12-3a" transform="translate(45.690477 0)scale(0.996264)"/>
       <use xlink:href="#CMR17-38" transform="translate(72.787654 0)scale(0.996264)"/>
      </g>
     </g>
    </g>
    <g id="xtick_6">
     <g id="line2d_16">
      <path d="M 572.46229 139.5 
L 572.46229 3.6 
" clip-path="url(#p11a6e917f3)" style="fill: none; stroke: #b0b0b0; stroke-width: 0.5; stroke-linecap: square"/>
     </g>
     <g id="line2d_17">
      <g>
       <use xlink:href="#m2e5510d7b3" x="572.46229" y="139.5" style="stroke: #000000; stroke-width: 0.5"/>
      </g>
     </g>
     <g id="line2d_18">
      <g>
       <use xlink:href="#med5ccc040a" x="572.46229" y="3.6" style="stroke: #000000; stroke-width: 0.5"/>
      </g>
     </g>
     <g id="text_6">
      <!-- $\mathdefault{1.0}$ -->
      <g transform="translate(567.051945 148.534802)scale(0.08 -0.08)">
       <defs>
        <path id="CMR17-31" d="M 1702 4058 
C 1702 4192 1696 4192 1606 4192 
C 1357 3916 979 3827 621 3827 
C 602 3827 570 3827 563 3808 
C 557 3795 557 3782 557 3648 
C 755 3648 1088 3686 1344 3839 
L 1344 461 
C 1344 236 1331 160 781 160 
L 589 160 
L 589 0 
C 896 0 1216 0 1523 0 
C 1830 0 2150 0 2458 0 
L 2458 160 
L 2266 160 
C 1715 160 1702 230 1702 458 
L 1702 4058 
z
" transform="scale(0.015625)"/>
       </defs>
       <use xlink:href="#CMR17-31" transform="scale(0.996264)"/>
       <use xlink:href="#CMMI12-3a" transform="translate(45.690477 0)scale(0.996264)"/>
       <use xlink:href="#CMR17-30" transform="translate(72.787654 0)scale(0.996264)"/>
      </g>
     </g>
    </g>
    <g id="xtick_7">
     <g id="line2d_19">
      <defs>
       <path id="m1aecc12f64" d="M 0 0 
L 0 -1.5 
" style="stroke: #000000; stroke-width: 0.5"/>
      </defs>
      <g>
       <use xlink:href="#m1aecc12f64" x="90.553199" y="139.5" style="stroke: #000000; stroke-width: 0.5"/>
      </g>
     </g>
     <g id="line2d_20">
      <defs>
       <path id="mcb3aa25eaa" d="M 0 0 
L 0 1.5 
" style="stroke: #000000; stroke-width: 0.5"/>
      </defs>
      <g>
       <use xlink:href="#mcb3aa25eaa" x="90.553199" y="3.6" style="stroke: #000000; stroke-width: 0.5"/>
      </g>
     </g>
    </g>
    <g id="xtick_8">
     <g id="line2d_21">
      <g>
       <use xlink:href="#m1aecc12f64" x="115.916836" y="139.5" style="stroke: #000000; stroke-width: 0.5"/>
      </g>
     </g>
     <g id="line2d_22">
      <g>
       <use xlink:href="#mcb3aa25eaa" x="115.916836" y="3.6" style="stroke: #000000; stroke-width: 0.5"/>
      </g>
     </g>
    </g>
    <g id="xtick_9">
     <g id="line2d_23">
      <g>
       <use xlink:href="#m1aecc12f64" x="141.280472" y="139.5" style="stroke: #000000; stroke-width: 0.5"/>
      </g>
     </g>
     <g id="line2d_24">
      <g>
       <use xlink:href="#mcb3aa25eaa" x="141.280472" y="3.6" style="stroke: #000000; stroke-width: 0.5"/>
      </g>
     </g>
    </g>
    <g id="xtick_10">
     <g id="line2d_25">
      <g>
       <use xlink:href="#m1aecc12f64" x="192.007745" y="139.5" style="stroke: #000000; stroke-width: 0.5"/>
      </g>
     </g>
     <g id="line2d_26">
      <g>
       <use xlink:href="#mcb3aa25eaa" x="192.007745" y="3.6" style="stroke: #000000; stroke-width: 0.5"/>
      </g>
     </g>
    </g>
    <g id="xtick_11">
     <g id="line2d_27">
      <g>
       <use xlink:href="#m1aecc12f64" x="217.371381" y="139.5" style="stroke: #000000; stroke-width: 0.5"/>
      </g>
     </g>
     <g id="line2d_28">
      <g>
       <use xlink:href="#mcb3aa25eaa" x="217.371381" y="3.6" style="stroke: #000000; stroke-width: 0.5"/>
      </g>
     </g>
    </g>
    <g id="xtick_12">
     <g id="line2d_29">
      <g>
       <use xlink:href="#m1aecc12f64" x="242.735017" y="139.5" style="stroke: #000000; stroke-width: 0.5"/>
      </g>
     </g>
     <g id="line2d_30">
      <g>
       <use xlink:href="#mcb3aa25eaa" x="242.735017" y="3.6" style="stroke: #000000; stroke-width: 0.5"/>
      </g>
     </g>
    </g>
    <g id="xtick_13">
     <g id="line2d_31">
      <g>
       <use xlink:href="#m1aecc12f64" x="293.46229" y="139.5" style="stroke: #000000; stroke-width: 0.5"/>
      </g>
     </g>
     <g id="line2d_32">
      <g>
       <use xlink:href="#mcb3aa25eaa" x="293.46229" y="3.6" style="stroke: #000000; stroke-width: 0.5"/>
      </g>
     </g>
    </g>
    <g id="xtick_14">
     <g id="line2d_33">
      <g>
       <use xlink:href="#m1aecc12f64" x="318.825926" y="139.5" style="stroke: #000000; stroke-width: 0.5"/>
      </g>
     </g>
     <g id="line2d_34">
      <g>
       <use xlink:href="#mcb3aa25eaa" x="318.825926" y="3.6" style="stroke: #000000; stroke-width: 0.5"/>
      </g>
     </g>
    </g>
    <g id="xtick_15">
     <g id="line2d_35">
      <g>
       <use xlink:href="#m1aecc12f64" x="344.189563" y="139.5" style="stroke: #000000; stroke-width: 0.5"/>
      </g>
     </g>
     <g id="line2d_36">
      <g>
       <use xlink:href="#mcb3aa25eaa" x="344.189563" y="3.6" style="stroke: #000000; stroke-width: 0.5"/>
      </g>
     </g>
    </g>
    <g id="xtick_16">
     <g id="line2d_37">
      <g>
       <use xlink:href="#m1aecc12f64" x="394.916836" y="139.5" style="stroke: #000000; stroke-width: 0.5"/>
      </g>
     </g>
     <g id="line2d_38">
      <g>
       <use xlink:href="#mcb3aa25eaa" x="394.916836" y="3.6" style="stroke: #000000; stroke-width: 0.5"/>
      </g>
     </g>
    </g>
    <g id="xtick_17">
     <g id="line2d_39">
      <g>
       <use xlink:href="#m1aecc12f64" x="420.280472" y="139.5" style="stroke: #000000; stroke-width: 0.5"/>
      </g>
     </g>
     <g id="line2d_40">
      <g>
       <use xlink:href="#mcb3aa25eaa" x="420.280472" y="3.6" style="stroke: #000000; stroke-width: 0.5"/>
      </g>
     </g>
    </g>
    <g id="xtick_18">
     <g id="line2d_41">
      <g>
       <use xlink:href="#m1aecc12f64" x="445.644108" y="139.5" style="stroke: #000000; stroke-width: 0.5"/>
      </g>
     </g>
     <g id="line2d_42">
      <g>
       <use xlink:href="#mcb3aa25eaa" x="445.644108" y="3.6" style="stroke: #000000; stroke-width: 0.5"/>
      </g>
     </g>
    </g>
    <g id="xtick_19">
     <g id="line2d_43">
      <g>
       <use xlink:href="#m1aecc12f64" x="496.371381" y="139.5" style="stroke: #000000; stroke-width: 0.5"/>
      </g>
     </g>
     <g id="line2d_44">
      <g>
       <use xlink:href="#mcb3aa25eaa" x="496.371381" y="3.6" style="stroke: #000000; stroke-width: 0.5"/>
      </g>
     </g>
    </g>
    <g id="xtick_20">
     <g id="line2d_45">
      <g>
       <use xlink:href="#m1aecc12f64" x="521.735017" y="139.5" style="stroke: #000000; stroke-width: 0.5"/>
      </g>
     </g>
     <g id="line2d_46">
      <g>
       <use xlink:href="#mcb3aa25eaa" x="521.735017" y="3.6" style="stroke: #000000; stroke-width: 0.5"/>
      </g>
     </g>
    </g>
    <g id="xtick_21">
     <g id="line2d_47">
      <g>
       <use xlink:href="#m1aecc12f64" x="547.098654" y="139.5" style="stroke: #000000; stroke-width: 0.5"/>
      </g>
     </g>
     <g id="line2d_48">
      <g>
       <use xlink:href="#mcb3aa25eaa" x="547.098654" y="3.6" style="stroke: #000000; stroke-width: 0.5"/>
      </g>
     </g>
    </g>
    <g id="text_7">
     <!-- Time -->
     <g transform="translate(309.181399 159.619349)scale(0.08 -0.08)">
      <defs>
       <path id="CMR17-54" d="M 3981 4326 
L 288 4326 
L 179 2918 
L 294 2918 
C 378 3976 467 4160 1453 4160 
C 1568 4160 1754 4160 1805 4154 
C 1926 4135 1926 4058 1926 3912 
L 1926 459 
C 1926 230 1907 160 1376 160 
L 1197 160 
L 1197 0 
C 1504 0 1824 0 2138 0 
C 2451 0 2771 0 3078 0 
L 3078 160 
L 2899 160 
C 2368 160 2349 230 2349 459 
L 2349 3912 
C 2349 4052 2349 4129 2464 4154 
C 2515 4160 2701 4160 2816 4160 
C 3795 4160 3891 3976 3974 2918 
L 4090 2918 
L 3981 4326 
z
" transform="scale(0.015625)"/>
       <path id="CMR17-69" d="M 992 3909 
C 992 4049 877 4170 730 4170 
C 589 4170 467 4056 467 3909 
C 467 3769 582 3648 730 3648 
C 870 3648 992 3763 992 3909 
z
M 243 2706 
L 243 2541 
C 602 2541 653 2502 653 2197 
L 653 427 
C 653 184 627 153 218 153 
L 218 -13 
C 371 0 646 0 806 0 
C 960 0 1222 0 1370 -13 
L 1370 153 
C 992 153 979 191 979 420 
L 979 2776 
L 243 2706 
z
" transform="scale(0.015625)"/>
       <path id="CMR17-6d" d="M 4326 1933 
C 4326 2252 4269 2790 3507 2790 
C 3072 2790 2771 2496 2656 2151 
L 2650 2151 
C 2573 2676 2195 2790 1837 2790 
C 1331 2790 1069 2400 973 2144 
L 966 2144 
L 966 2790 
L 211 2720 
L 211 2554 
C 589 2554 646 2515 646 2208 
L 646 428 
C 646 184 621 153 211 153 
L 211 -13 
C 365 0 646 0 813 0 
C 979 0 1267 0 1421 -13 
L 1421 153 
C 1011 153 986 178 986 428 
L 986 1658 
C 986 2247 1344 2688 1792 2688 
C 2266 2688 2317 2266 2317 1958 
L 2317 428 
C 2317 184 2291 153 1882 153 
L 1882 -13 
C 2035 0 2317 0 2483 0 
C 2650 0 2938 0 3091 -13 
L 3091 153 
C 2682 153 2656 178 2656 428 
L 2656 1658 
C 2656 2247 3014 2688 3462 2688 
C 3936 2688 3987 2266 3987 1958 
L 3987 428 
C 3987 184 3962 153 3552 153 
L 3552 -13 
C 3706 0 3987 0 4154 0 
C 4320 0 4608 0 4762 -13 
L 4762 153 
C 4352 153 4326 178 4326 428 
L 4326 1933 
z
" transform="scale(0.015625)"/>
       <path id="CMR17-65" d="M 2438 1472 
C 2464 1498 2464 1511 2464 1576 
C 2464 2238 2118 2816 1389 2816 
C 710 2816 173 2169 173 1383 
C 173 551 781 -64 1459 -64 
C 2176 -64 2458 607 2458 740 
C 2458 784 2419 784 2406 784 
C 2362 784 2355 771 2330 696 
C 2189 265 1837 51 1504 51 
C 1229 51 954 203 781 480 
C 582 803 582 1176 582 1472 
L 2438 1472 
z
M 589 1568 
C 634 2505 1126 2714 1382 2714 
C 1818 2714 2112 2297 2118 1568 
L 589 1568 
z
" transform="scale(0.015625)"/>
      </defs>
      <use xlink:href="#CMR17-54" transform="scale(0.996264)"/>
      <use xlink:href="#CMR17-69" transform="translate(66.509881 0)scale(0.996264)"/>
      <use xlink:href="#CMR17-6d" transform="translate(91.380939 0)scale(0.996264)"/>
      <use xlink:href="#CMR17-65" transform="translate(168.300529 0)scale(0.996264)"/>
     </g>
    </g>
   </g>
   <g id="matplotlib.axis_2">
    <g id="ytick_1">
     <g id="line2d_49">
      <path d="M 39.825926 134.805586 
L 597.825926 134.805586 
" clip-path="url(#p11a6e917f3)" style="fill: none; stroke: #b0b0b0; stroke-width: 0.5; stroke-linecap: square"/>
     </g>
     <g id="line2d_50">
      <defs>
       <path id="m76d8bebb9a" d="M 0 0 
L 3 0 
" style="stroke: #000000; stroke-width: 0.5"/>
      </defs>
      <g>
       <use xlink:href="#m76d8bebb9a" x="39.825926" y="134.805586" style="stroke: #000000; stroke-width: 0.5"/>
      </g>
     </g>
     <g id="line2d_51">
      <defs>
       <path id="maa72a10561" d="M 0 0 
L -3 0 
" style="stroke: #000000; stroke-width: 0.5"/>
      </defs>
      <g>
       <use xlink:href="#maa72a10561" x="597.825926" y="134.805586" style="stroke: #000000; stroke-width: 0.5"/>
      </g>
     </g>
     <g id="text_8">
      <!-- $\mathdefault{−0.75}$ -->
      <g transform="translate(14.684547 137.572986)scale(0.08 -0.08)">
       <defs>
        <path id="CMSY10-0" d="M 4218 1472 
C 4326 1472 4442 1472 4442 1600 
C 4442 1728 4326 1728 4218 1728 
L 755 1728 
C 646 1728 531 1728 531 1600 
C 531 1472 646 1472 755 1472 
L 4218 1472 
z
" transform="scale(0.015625)"/>
        <path id="CMR17-37" d="M 2886 3941 
L 2886 4081 
L 1382 4081 
C 634 4081 621 4165 595 4288 
L 480 4288 
L 294 3094 
L 410 3094 
C 429 3215 474 3540 550 3661 
C 589 3712 1062 3712 1171 3712 
L 2579 3712 
L 1869 2661 
C 1395 1954 1069 999 1069 165 
C 1069 89 1069 -128 1299 -128 
C 1530 -128 1530 89 1530 171 
L 1530 465 
C 1530 1508 1709 2196 2003 2636 
L 2886 3941 
z
" transform="scale(0.015625)"/>
        <path id="CMR17-35" d="M 730 3692 
C 794 3666 1056 3584 1325 3584 
C 1920 3584 2246 3911 2432 4100 
C 2432 4157 2432 4192 2394 4192 
C 2387 4192 2374 4192 2323 4163 
C 2099 4058 1837 3973 1517 3973 
C 1325 3973 1037 3999 723 4139 
C 653 4171 640 4171 634 4171 
C 602 4171 595 4164 595 4037 
L 595 2203 
C 595 2089 595 2057 659 2057 
C 691 2057 704 2070 736 2114 
C 941 2401 1222 2522 1542 2522 
C 1766 2522 2246 2382 2246 1289 
C 2246 1085 2246 715 2054 421 
C 1894 159 1645 25 1370 25 
C 947 25 518 320 403 814 
C 429 807 480 795 506 795 
C 589 795 749 840 749 1038 
C 749 1210 627 1280 506 1280 
C 358 1280 262 1190 262 1011 
C 262 454 704 -128 1382 -128 
C 2042 -128 2669 440 2669 1264 
C 2669 2030 2170 2624 1549 2624 
C 1222 2624 947 2503 730 2274 
L 730 3692 
z
" transform="scale(0.015625)"/>
       </defs>
       <use xlink:href="#CMSY10-0" transform="scale(0.996264)"/>
       <use xlink:href="#CMR17-30" transform="translate(77.487468 0)scale(0.996264)"/>
       <use xlink:href="#CMMI12-3a" transform="translate(123.177945 0)scale(0.996264)"/>
       <use xlink:href="#CMR17-37" transform="translate(150.275122 0)scale(0.996264)"/>
       <use xlink:href="#CMR17-35" transform="translate(195.965599 0)scale(0.996264)"/>
      </g>
     </g>
    </g>
    <g id="ytick_2">
     <g id="line2d_52">
      <path d="M 39.825926 116.949147 
L 597.825926 116.949147 
" clip-path="url(#p11a6e917f3)" style="fill: none; stroke: #b0b0b0; stroke-width: 0.5; stroke-linecap: square"/>
     </g>
     <g id="line2d_53">
      <g>
       <use xlink:href="#m76d8bebb9a" x="39.825926" y="116.949147" style="stroke: #000000; stroke-width: 0.5"/>
      </g>
     </g>
     <g id="line2d_54">
      <g>
       <use xlink:href="#maa72a10561" x="597.825926" y="116.949147" style="stroke: #000000; stroke-width: 0.5"/>
      </g>
     </g>
     <g id="text_9">
      <!-- $\mathdefault{−0.50}$ -->
      <g transform="translate(14.684547 119.716548)scale(0.08 -0.08)">
       <use xlink:href="#CMSY10-0" transform="scale(0.996264)"/>
       <use xlink:href="#CMR17-30" transform="translate(77.487468 0)scale(0.996264)"/>
       <use xlink:href="#CMMI12-3a" transform="translate(123.177945 0)scale(0.996264)"/>
       <use xlink:href="#CMR17-35" transform="translate(150.275122 0)scale(0.996264)"/>
       <use xlink:href="#CMR17-30" transform="translate(195.965599 0)scale(0.996264)"/>
      </g>
     </g>
    </g>
    <g id="ytick_3">
     <g id="line2d_55">
      <path d="M 39.825926 99.092708 
L 597.825926 99.092708 
" clip-path="url(#p11a6e917f3)" style="fill: none; stroke: #b0b0b0; stroke-width: 0.5; stroke-linecap: square"/>
     </g>
     <g id="line2d_56">
      <g>
       <use xlink:href="#m76d8bebb9a" x="39.825926" y="99.092708" style="stroke: #000000; stroke-width: 0.5"/>
      </g>
     </g>
     <g id="line2d_57">
      <g>
       <use xlink:href="#maa72a10561" x="597.825926" y="99.092708" style="stroke: #000000; stroke-width: 0.5"/>
      </g>
     </g>
     <g id="text_10">
      <!-- $\mathdefault{−0.25}$ -->
      <g transform="translate(14.684547 101.860109)scale(0.08 -0.08)">
       <use xlink:href="#CMSY10-0" transform="scale(0.996264)"/>
       <use xlink:href="#CMR17-30" transform="translate(77.487468 0)scale(0.996264)"/>
       <use xlink:href="#CMMI12-3a" transform="translate(123.177945 0)scale(0.996264)"/>
       <use xlink:href="#CMR17-32" transform="translate(150.275122 0)scale(0.996264)"/>
       <use xlink:href="#CMR17-35" transform="translate(195.965599 0)scale(0.996264)"/>
      </g>
     </g>
    </g>
    <g id="ytick_4">
     <g id="line2d_58">
      <path d="M 39.825926 81.236269 
L 597.825926 81.236269 
" clip-path="url(#p11a6e917f3)" style="fill: none; stroke: #b0b0b0; stroke-width: 0.5; stroke-linecap: square"/>
     </g>
     <g id="line2d_59">
      <g>
       <use xlink:href="#m76d8bebb9a" x="39.825926" y="81.236269" style="stroke: #000000; stroke-width: 0.5"/>
      </g>
     </g>
     <g id="line2d_60">
      <g>
       <use xlink:href="#maa72a10561" x="597.825926" y="81.236269" style="stroke: #000000; stroke-width: 0.5"/>
      </g>
     </g>
     <g id="text_11">
      <!-- $\mathdefault{0.00}$ -->
      <g transform="translate(21.271054 84.00367)scale(0.08 -0.08)">
       <use xlink:href="#CMR17-30" transform="scale(0.996264)"/>
       <use xlink:href="#CMMI12-3a" transform="translate(45.690477 0)scale(0.996264)"/>
       <use xlink:href="#CMR17-30" transform="translate(72.787654 0)scale(0.996264)"/>
       <use xlink:href="#CMR17-30" transform="translate(118.478131 0)scale(0.996264)"/>
      </g>
     </g>
    </g>
    <g id="ytick_5">
     <g id="line2d_61">
      <path d="M 39.825926 63.37983 
L 597.825926 63.37983 
" clip-path="url(#p11a6e917f3)" style="fill: none; stroke: #b0b0b0; stroke-width: 0.5; stroke-linecap: square"/>
     </g>
     <g id="line2d_62">
      <g>
       <use xlink:href="#m76d8bebb9a" x="39.825926" y="63.37983" style="stroke: #000000; stroke-width: 0.5"/>
      </g>
     </g>
     <g id="line2d_63">
      <g>
       <use xlink:href="#maa72a10561" x="597.825926" y="63.37983" style="stroke: #000000; stroke-width: 0.5"/>
      </g>
     </g>
     <g id="text_12">
      <!-- $\mathdefault{0.25}$ -->
      <g transform="translate(21.271054 66.147231)scale(0.08 -0.08)">
       <use xlink:href="#CMR17-30" transform="scale(0.996264)"/>
       <use xlink:href="#CMMI12-3a" transform="translate(45.690477 0)scale(0.996264)"/>
       <use xlink:href="#CMR17-32" transform="translate(72.787654 0)scale(0.996264)"/>
       <use xlink:href="#CMR17-35" transform="translate(118.478131 0)scale(0.996264)"/>
      </g>
     </g>
    </g>
    <g id="ytick_6">
     <g id="line2d_64">
      <path d="M 39.825926 45.523391 
L 597.825926 45.523391 
" clip-path="url(#p11a6e917f3)" style="fill: none; stroke: #b0b0b0; stroke-width: 0.5; stroke-linecap: square"/>
     </g>
     <g id="line2d_65">
      <g>
       <use xlink:href="#m76d8bebb9a" x="39.825926" y="45.523391" style="stroke: #000000; stroke-width: 0.5"/>
      </g>
     </g>
     <g id="line2d_66">
      <g>
       <use xlink:href="#maa72a10561" x="597.825926" y="45.523391" style="stroke: #000000; stroke-width: 0.5"/>
      </g>
     </g>
     <g id="text_13">
      <!-- $\mathdefault{0.50}$ -->
      <g transform="translate(21.271054 48.290792)scale(0.08 -0.08)">
       <use xlink:href="#CMR17-30" transform="scale(0.996264)"/>
       <use xlink:href="#CMMI12-3a" transform="translate(45.690477 0)scale(0.996264)"/>
       <use xlink:href="#CMR17-35" transform="translate(72.787654 0)scale(0.996264)"/>
       <use xlink:href="#CMR17-30" transform="translate(118.478131 0)scale(0.996264)"/>
      </g>
     </g>
    </g>
    <g id="ytick_7">
     <g id="line2d_67">
      <path d="M 39.825926 27.666953 
L 597.825926 27.666953 
" clip-path="url(#p11a6e917f3)" style="fill: none; stroke: #b0b0b0; stroke-width: 0.5; stroke-linecap: square"/>
     </g>
     <g id="line2d_68">
      <g>
       <use xlink:href="#m76d8bebb9a" x="39.825926" y="27.666953" style="stroke: #000000; stroke-width: 0.5"/>
      </g>
     </g>
     <g id="line2d_69">
      <g>
       <use xlink:href="#maa72a10561" x="597.825926" y="27.666953" style="stroke: #000000; stroke-width: 0.5"/>
      </g>
     </g>
     <g id="text_14">
      <!-- $\mathdefault{0.75}$ -->
      <g transform="translate(21.271054 30.434353)scale(0.08 -0.08)">
       <use xlink:href="#CMR17-30" transform="scale(0.996264)"/>
       <use xlink:href="#CMMI12-3a" transform="translate(45.690477 0)scale(0.996264)"/>
       <use xlink:href="#CMR17-37" transform="translate(72.787654 0)scale(0.996264)"/>
       <use xlink:href="#CMR17-35" transform="translate(118.478131 0)scale(0.996264)"/>
      </g>
     </g>
    </g>
    <g id="ytick_8">
     <g id="line2d_70">
      <path d="M 39.825926 9.810514 
L 597.825926 9.810514 
" clip-path="url(#p11a6e917f3)" style="fill: none; stroke: #b0b0b0; stroke-width: 0.5; stroke-linecap: square"/>
     </g>
     <g id="line2d_71">
      <g>
       <use xlink:href="#m76d8bebb9a" x="39.825926" y="9.810514" style="stroke: #000000; stroke-width: 0.5"/>
      </g>
     </g>
     <g id="line2d_72">
      <g>
       <use xlink:href="#maa72a10561" x="597.825926" y="9.810514" style="stroke: #000000; stroke-width: 0.5"/>
      </g>
     </g>
     <g id="text_15">
      <!-- $\mathdefault{1.00}$ -->
      <g transform="translate(21.271054 12.577915)scale(0.08 -0.08)">
       <use xlink:href="#CMR17-31" transform="scale(0.996264)"/>
       <use xlink:href="#CMMI12-3a" transform="translate(45.690477 0)scale(0.996264)"/>
       <use xlink:href="#CMR17-30" transform="translate(72.787654 0)scale(0.996264)"/>
       <use xlink:href="#CMR17-30" transform="translate(118.478131 0)scale(0.996264)"/>
      </g>
     </g>
    </g>
    <g id="ytick_9">
     <g id="line2d_73">
      <defs>
       <path id="m50cd72bd54" d="M 0 0 
L 1.5 0 
" style="stroke: #000000; stroke-width: 0.5"/>
      </defs>
      <g>
       <use xlink:href="#m50cd72bd54" x="39.825926" y="138.376873" style="stroke: #000000; stroke-width: 0.5"/>
      </g>
     </g>
     <g id="line2d_74">
      <defs>
       <path id="m883bff2339" d="M 0 0 
L -1.5 0 
" style="stroke: #000000; stroke-width: 0.5"/>
      </defs>
      <g>
       <use xlink:href="#m883bff2339" x="597.825926" y="138.376873" style="stroke: #000000; stroke-width: 0.5"/>
      </g>
     </g>
    </g>
    <g id="ytick_10">
     <g id="line2d_75">
      <g>
       <use xlink:href="#m50cd72bd54" x="39.825926" y="131.234298" style="stroke: #000000; stroke-width: 0.5"/>
      </g>
     </g>
     <g id="line2d_76">
      <g>
       <use xlink:href="#m883bff2339" x="597.825926" y="131.234298" style="stroke: #000000; stroke-width: 0.5"/>
      </g>
     </g>
    </g>
    <g id="ytick_11">
     <g id="line2d_77">
      <g>
       <use xlink:href="#m50cd72bd54" x="39.825926" y="127.66301" style="stroke: #000000; stroke-width: 0.5"/>
      </g>
     </g>
     <g id="line2d_78">
      <g>
       <use xlink:href="#m883bff2339" x="597.825926" y="127.66301" style="stroke: #000000; stroke-width: 0.5"/>
      </g>
     </g>
    </g>
    <g id="ytick_12">
     <g id="line2d_79">
      <g>
       <use xlink:href="#m50cd72bd54" x="39.825926" y="124.091722" style="stroke: #000000; stroke-width: 0.5"/>
      </g>
     </g>
     <g id="line2d_80">
      <g>
       <use xlink:href="#m883bff2339" x="597.825926" y="124.091722" style="stroke: #000000; stroke-width: 0.5"/>
      </g>
     </g>
    </g>
    <g id="ytick_13">
     <g id="line2d_81">
      <g>
       <use xlink:href="#m50cd72bd54" x="39.825926" y="120.520434" style="stroke: #000000; stroke-width: 0.5"/>
      </g>
     </g>
     <g id="line2d_82">
      <g>
       <use xlink:href="#m883bff2339" x="597.825926" y="120.520434" style="stroke: #000000; stroke-width: 0.5"/>
      </g>
     </g>
    </g>
    <g id="ytick_14">
     <g id="line2d_83">
      <g>
       <use xlink:href="#m50cd72bd54" x="39.825926" y="113.377859" style="stroke: #000000; stroke-width: 0.5"/>
      </g>
     </g>
     <g id="line2d_84">
      <g>
       <use xlink:href="#m883bff2339" x="597.825926" y="113.377859" style="stroke: #000000; stroke-width: 0.5"/>
      </g>
     </g>
    </g>
    <g id="ytick_15">
     <g id="line2d_85">
      <g>
       <use xlink:href="#m50cd72bd54" x="39.825926" y="109.806571" style="stroke: #000000; stroke-width: 0.5"/>
      </g>
     </g>
     <g id="line2d_86">
      <g>
       <use xlink:href="#m883bff2339" x="597.825926" y="109.806571" style="stroke: #000000; stroke-width: 0.5"/>
      </g>
     </g>
    </g>
    <g id="ytick_16">
     <g id="line2d_87">
      <g>
       <use xlink:href="#m50cd72bd54" x="39.825926" y="106.235283" style="stroke: #000000; stroke-width: 0.5"/>
      </g>
     </g>
     <g id="line2d_88">
      <g>
       <use xlink:href="#m883bff2339" x="597.825926" y="106.235283" style="stroke: #000000; stroke-width: 0.5"/>
      </g>
     </g>
    </g>
    <g id="ytick_17">
     <g id="line2d_89">
      <g>
       <use xlink:href="#m50cd72bd54" x="39.825926" y="102.663996" style="stroke: #000000; stroke-width: 0.5"/>
      </g>
     </g>
     <g id="line2d_90">
      <g>
       <use xlink:href="#m883bff2339" x="597.825926" y="102.663996" style="stroke: #000000; stroke-width: 0.5"/>
      </g>
     </g>
    </g>
    <g id="ytick_18">
     <g id="line2d_91">
      <g>
       <use xlink:href="#m50cd72bd54" x="39.825926" y="95.52142" style="stroke: #000000; stroke-width: 0.5"/>
      </g>
     </g>
     <g id="line2d_92">
      <g>
       <use xlink:href="#m883bff2339" x="597.825926" y="95.52142" style="stroke: #000000; stroke-width: 0.5"/>
      </g>
     </g>
    </g>
    <g id="ytick_19">
     <g id="line2d_93">
      <g>
       <use xlink:href="#m50cd72bd54" x="39.825926" y="91.950132" style="stroke: #000000; stroke-width: 0.5"/>
      </g>
     </g>
     <g id="line2d_94">
      <g>
       <use xlink:href="#m883bff2339" x="597.825926" y="91.950132" style="stroke: #000000; stroke-width: 0.5"/>
      </g>
     </g>
    </g>
    <g id="ytick_20">
     <g id="line2d_95">
      <g>
       <use xlink:href="#m50cd72bd54" x="39.825926" y="88.378845" style="stroke: #000000; stroke-width: 0.5"/>
      </g>
     </g>
     <g id="line2d_96">
      <g>
       <use xlink:href="#m883bff2339" x="597.825926" y="88.378845" style="stroke: #000000; stroke-width: 0.5"/>
      </g>
     </g>
    </g>
    <g id="ytick_21">
     <g id="line2d_97">
      <g>
       <use xlink:href="#m50cd72bd54" x="39.825926" y="84.807557" style="stroke: #000000; stroke-width: 0.5"/>
      </g>
     </g>
     <g id="line2d_98">
      <g>
       <use xlink:href="#m883bff2339" x="597.825926" y="84.807557" style="stroke: #000000; stroke-width: 0.5"/>
      </g>
     </g>
    </g>
    <g id="ytick_22">
     <g id="line2d_99">
      <g>
       <use xlink:href="#m50cd72bd54" x="39.825926" y="77.664981" style="stroke: #000000; stroke-width: 0.5"/>
      </g>
     </g>
     <g id="line2d_100">
      <g>
       <use xlink:href="#m883bff2339" x="597.825926" y="77.664981" style="stroke: #000000; stroke-width: 0.5"/>
      </g>
     </g>
    </g>
    <g id="ytick_23">
     <g id="line2d_101">
      <g>
       <use xlink:href="#m50cd72bd54" x="39.825926" y="74.093694" style="stroke: #000000; stroke-width: 0.5"/>
      </g>
     </g>
     <g id="line2d_102">
      <g>
       <use xlink:href="#m883bff2339" x="597.825926" y="74.093694" style="stroke: #000000; stroke-width: 0.5"/>
      </g>
     </g>
    </g>
    <g id="ytick_24">
     <g id="line2d_103">
      <g>
       <use xlink:href="#m50cd72bd54" x="39.825926" y="70.522406" style="stroke: #000000; stroke-width: 0.5"/>
      </g>
     </g>
     <g id="line2d_104">
      <g>
       <use xlink:href="#m883bff2339" x="597.825926" y="70.522406" style="stroke: #000000; stroke-width: 0.5"/>
      </g>
     </g>
    </g>
    <g id="ytick_25">
     <g id="line2d_105">
      <g>
       <use xlink:href="#m50cd72bd54" x="39.825926" y="66.951118" style="stroke: #000000; stroke-width: 0.5"/>
      </g>
     </g>
     <g id="line2d_106">
      <g>
       <use xlink:href="#m883bff2339" x="597.825926" y="66.951118" style="stroke: #000000; stroke-width: 0.5"/>
      </g>
     </g>
    </g>
    <g id="ytick_26">
     <g id="line2d_107">
      <g>
       <use xlink:href="#m50cd72bd54" x="39.825926" y="59.808542" style="stroke: #000000; stroke-width: 0.5"/>
      </g>
     </g>
     <g id="line2d_108">
      <g>
       <use xlink:href="#m883bff2339" x="597.825926" y="59.808542" style="stroke: #000000; stroke-width: 0.5"/>
      </g>
     </g>
    </g>
    <g id="ytick_27">
     <g id="line2d_109">
      <g>
       <use xlink:href="#m50cd72bd54" x="39.825926" y="56.237255" style="stroke: #000000; stroke-width: 0.5"/>
      </g>
     </g>
     <g id="line2d_110">
      <g>
       <use xlink:href="#m883bff2339" x="597.825926" y="56.237255" style="stroke: #000000; stroke-width: 0.5"/>
      </g>
     </g>
    </g>
    <g id="ytick_28">
     <g id="line2d_111">
      <g>
       <use xlink:href="#m50cd72bd54" x="39.825926" y="52.665967" style="stroke: #000000; stroke-width: 0.5"/>
      </g>
     </g>
     <g id="line2d_112">
      <g>
       <use xlink:href="#m883bff2339" x="597.825926" y="52.665967" style="stroke: #000000; stroke-width: 0.5"/>
      </g>
     </g>
    </g>
    <g id="ytick_29">
     <g id="line2d_113">
      <g>
       <use xlink:href="#m50cd72bd54" x="39.825926" y="49.094679" style="stroke: #000000; stroke-width: 0.5"/>
      </g>
     </g>
     <g id="line2d_114">
      <g>
       <use xlink:href="#m883bff2339" x="597.825926" y="49.094679" style="stroke: #000000; stroke-width: 0.5"/>
      </g>
     </g>
    </g>
    <g id="ytick_30">
     <g id="line2d_115">
      <g>
       <use xlink:href="#m50cd72bd54" x="39.825926" y="41.952104" style="stroke: #000000; stroke-width: 0.5"/>
      </g>
     </g>
     <g id="line2d_116">
      <g>
       <use xlink:href="#m883bff2339" x="597.825926" y="41.952104" style="stroke: #000000; stroke-width: 0.5"/>
      </g>
     </g>
    </g>
    <g id="ytick_31">
     <g id="line2d_117">
      <g>
       <use xlink:href="#m50cd72bd54" x="39.825926" y="38.380816" style="stroke: #000000; stroke-width: 0.5"/>
      </g>
     </g>
     <g id="line2d_118">
      <g>
       <use xlink:href="#m883bff2339" x="597.825926" y="38.380816" style="stroke: #000000; stroke-width: 0.5"/>
      </g>
     </g>
    </g>
    <g id="ytick_32">
     <g id="line2d_119">
      <g>
       <use xlink:href="#m50cd72bd54" x="39.825926" y="34.809528" style="stroke: #000000; stroke-width: 0.5"/>
      </g>
     </g>
     <g id="line2d_120">
      <g>
       <use xlink:href="#m883bff2339" x="597.825926" y="34.809528" style="stroke: #000000; stroke-width: 0.5"/>
      </g>
     </g>
    </g>
    <g id="ytick_33">
     <g id="line2d_121">
      <g>
       <use xlink:href="#m50cd72bd54" x="39.825926" y="31.23824" style="stroke: #000000; stroke-width: 0.5"/>
      </g>
     </g>
     <g id="line2d_122">
      <g>
       <use xlink:href="#m883bff2339" x="597.825926" y="31.23824" style="stroke: #000000; stroke-width: 0.5"/>
      </g>
     </g>
    </g>
    <g id="ytick_34">
     <g id="line2d_123">
      <g>
       <use xlink:href="#m50cd72bd54" x="39.825926" y="24.095665" style="stroke: #000000; stroke-width: 0.5"/>
      </g>
     </g>
     <g id="line2d_124">
      <g>
       <use xlink:href="#m883bff2339" x="597.825926" y="24.095665" style="stroke: #000000; stroke-width: 0.5"/>
      </g>
     </g>
    </g>
    <g id="ytick_35">
     <g id="line2d_125">
      <g>
       <use xlink:href="#m50cd72bd54" x="39.825926" y="20.524377" style="stroke: #000000; stroke-width: 0.5"/>
      </g>
     </g>
     <g id="line2d_126">
      <g>
       <use xlink:href="#m883bff2339" x="597.825926" y="20.524377" style="stroke: #000000; stroke-width: 0.5"/>
      </g>
     </g>
    </g>
    <g id="ytick_36">
     <g id="line2d_127">
      <g>
       <use xlink:href="#m50cd72bd54" x="39.825926" y="16.953089" style="stroke: #000000; stroke-width: 0.5"/>
      </g>
     </g>
     <g id="line2d_128">
      <g>
       <use xlink:href="#m883bff2339" x="597.825926" y="16.953089" style="stroke: #000000; stroke-width: 0.5"/>
      </g>
     </g>
    </g>
    <g id="ytick_37">
     <g id="line2d_129">
      <g>
       <use xlink:href="#m50cd72bd54" x="39.825926" y="13.381802" style="stroke: #000000; stroke-width: 0.5"/>
      </g>
     </g>
     <g id="line2d_130">
      <g>
       <use xlink:href="#m883bff2339" x="597.825926" y="13.381802" style="stroke: #000000; stroke-width: 0.5"/>
      </g>
     </g>
    </g>
    <g id="ytick_38">
     <g id="line2d_131">
      <g>
       <use xlink:href="#m50cd72bd54" x="39.825926" y="6.239226" style="stroke: #000000; stroke-width: 0.5"/>
      </g>
     </g>
     <g id="line2d_132">
      <g>
       <use xlink:href="#m883bff2339" x="597.825926" y="6.239226" style="stroke: #000000; stroke-width: 0.5"/>
      </g>
     </g>
    </g>
    <g id="text_16">
     <!-- Displacement -->
     <g transform="translate(9.134802 96.329658)rotate(-90)scale(0.08 -0.08)">
      <defs>
       <path id="CMR17-44" d="M 333 4352 
L 333 4186 
C 774 4186 845 4186 845 3900 
L 845 452 
C 845 166 774 166 333 166 
L 333 0 
L 2368 0 
C 3398 0 4224 943 4224 2141 
C 4224 3346 3411 4352 2368 4352 
L 333 4352 
z
M 1523 166 
C 1267 166 1254 197 1254 414 
L 1254 3938 
C 1254 4155 1267 4186 1523 4186 
L 2240 4186 
C 2771 4186 3750 3874 3750 2141 
C 3750 1242 3488 879 3366 707 
C 3213 510 2848 166 2240 166 
L 1523 166 
z
" transform="scale(0.015625)"/>
       <path id="CMR17-73" d="M 1978 2697 
C 1978 2813 1971 2819 1933 2819 
C 1907 2819 1901 2813 1824 2717 
C 1805 2691 1747 2626 1728 2601 
C 1523 2819 1235 2819 1126 2819 
C 416 2819 160 2447 160 2076 
C 160 1498 813 1365 998 1325 
C 1402 1243 1542 1217 1677 1101 
C 1760 1025 1901 884 1901 654 
C 1901 384 1747 38 1158 38 
C 602 38 403 460 288 1021 
C 269 1110 269 1117 218 1117 
C 166 1117 160 1110 160 983 
L 160 63 
C 160 -51 166 -58 205 -58 
C 237 -58 243 -51 275 0 
C 314 57 410 211 448 276 
C 576 103 800 -64 1158 -64 
C 1792 -64 2131 283 2131 784 
C 2131 1112 1958 1285 1875 1362 
C 1683 1561 1459 1606 1190 1657 
C 838 1735 390 1825 390 2217 
C 390 2383 480 2737 1126 2737 
C 1811 2737 1850 2094 1862 1888 
C 1869 1856 1901 1849 1920 1849 
C 1978 1849 1978 1869 1978 1978 
L 1978 2697 
z
" transform="scale(0.015625)"/>
       <path id="CMR17-70" d="M 1408 -1063 
C 998 -1063 973 -1037 973 -789 
L 973 402 
C 1158 134 1427 -38 1766 -38 
C 2406 -38 3053 523 3053 1388 
C 3053 2191 2496 2802 1837 2802 
C 1453 2802 1139 2592 960 2338 
L 960 2802 
L 198 2732 
L 198 2567 
C 576 2567 634 2528 634 2223 
L 634 -789 
C 634 -1031 608 -1063 198 -1063 
L 198 -1228 
C 352 -1216 634 -1216 800 -1216 
C 966 -1216 1254 -1216 1408 -1228 
L 1408 -1063 
z
M 973 2012 
C 973 2102 973 2235 1222 2471 
C 1254 2497 1472 2688 1792 2688 
C 2259 2688 2643 2108 2643 1382 
C 2643 656 2234 64 1728 64 
C 1498 64 1248 172 1056 472 
C 973 612 973 650 973 752 
L 973 2012 
z
" transform="scale(0.015625)"/>
       <path id="CMR17-6c" d="M 979 4396 
L 218 4326 
L 218 4160 
C 595 4160 653 4122 653 3817 
L 653 426 
C 653 184 627 153 218 153 
L 218 -13 
C 371 0 653 0 813 0 
C 979 0 1261 0 1414 -13 
L 1414 153 
C 1005 153 979 178 979 426 
L 979 4396 
z
" transform="scale(0.015625)"/>
       <path id="CMR17-61" d="M 2304 1653 
C 2304 2072 2304 2294 2035 2543 
C 1798 2752 1523 2816 1306 2816 
C 800 2816 435 2407 435 1971 
C 435 1728 627 1728 666 1728 
C 749 1728 896 1778 896 1954 
C 896 2112 774 2181 666 2181 
C 640 2181 608 2174 589 2168 
C 723 2592 1069 2714 1293 2714 
C 1613 2714 1965 2429 1965 1885 
L 1965 1600 
C 1587 1600 1133 1549 774 1357 
C 371 1133 256 813 256 570 
C 256 77 832 -64 1171 -64 
C 1523 -64 1850 139 1990 511 
C 2003 233 2182 -18 2464 -18 
C 2598 -18 2938 70 2938 567 
L 2938 920 
L 2822 920 
L 2822 562 
C 2822 178 2650 128 2566 128 
C 2304 128 2304 458 2304 738 
L 2304 1653 
z
M 1965 870 
C 1965 317 1568 38 1216 38 
C 896 38 646 275 646 570 
C 646 761 730 1100 1101 1305 
C 1408 1478 1760 1504 1965 1504 
L 1965 870 
z
" transform="scale(0.015625)"/>
       <path id="CMR17-63" d="M 2234 2240 
C 2112 2240 1933 2240 1933 2017 
C 1933 1838 2080 1787 2163 1787 
C 2208 1787 2394 1807 2394 2024 
C 2394 2467 1958 2803 1466 2803 
C 787 2803 211 2178 211 1363 
C 211 516 813 -64 1466 -64 
C 2259 -64 2458 677 2458 748 
C 2458 774 2451 793 2406 793 
C 2362 793 2355 787 2330 703 
C 2163 180 1798 51 1523 51 
C 1114 51 621 427 621 1369 
C 621 2338 1094 2688 1472 2688 
C 1722 2688 2093 2573 2234 2240 
z
" transform="scale(0.015625)"/>
       <path id="CMR17-6e" d="M 2656 1933 
C 2656 2259 2592 2790 1837 2790 
C 1331 2790 1069 2400 973 2144 
L 966 2144 
L 966 2790 
L 211 2720 
L 211 2554 
C 589 2554 646 2515 646 2208 
L 646 428 
C 646 184 621 153 211 153 
L 211 -13 
C 365 0 646 0 813 0 
C 979 0 1267 0 1421 -13 
L 1421 153 
C 1011 153 986 178 986 428 
L 986 1658 
C 986 2247 1344 2688 1792 2688 
C 2266 2688 2317 2266 2317 1958 
L 2317 428 
C 2317 184 2291 153 1882 153 
L 1882 -13 
C 2035 0 2317 0 2483 0 
C 2650 0 2938 0 3091 -13 
L 3091 153 
C 2682 153 2656 178 2656 428 
L 2656 1933 
z
" transform="scale(0.015625)"/>
       <path id="CMR17-74" d="M 966 2560 
L 1862 2560 
L 1862 2725 
L 966 2725 
L 966 3904 
L 851 3904 
C 838 3245 614 2668 70 2668 
L 70 2560 
L 627 2560 
L 627 771 
C 627 650 627 -64 1370 -64 
C 1747 -64 1965 306 1965 777 
L 1965 1140 
L 1850 1140 
L 1850 783 
C 1850 344 1677 51 1408 51 
C 1222 51 966 178 966 758 
L 966 2560 
z
" transform="scale(0.015625)"/>
      </defs>
      <use xlink:href="#CMR17-44" transform="scale(0.996264)"/>
      <use xlink:href="#CMR17-69" transform="translate(70.393556 0)scale(0.996264)"/>
      <use xlink:href="#CMR17-73" transform="translate(95.264614 0)scale(0.996264)"/>
      <use xlink:href="#CMR17-70" transform="translate(131.065952 0)scale(0.996264)"/>
      <use xlink:href="#CMR17-6c" transform="translate(181.961322 0)scale(0.996264)"/>
      <use xlink:href="#CMR17-61" transform="translate(206.83238 0)scale(0.996264)"/>
      <use xlink:href="#CMR17-63" transform="translate(252.522857 0)scale(0.996264)"/>
      <use xlink:href="#CMR17-65" transform="translate(293.008518 0)scale(0.996264)"/>
      <use xlink:href="#CMR17-6d" transform="translate(333.494178 0)scale(0.996264)"/>
      <use xlink:href="#CMR17-65" transform="translate(410.413768 0)scale(0.996264)"/>
      <use xlink:href="#CMR17-6e" transform="translate(450.899429 0)scale(0.996264)"/>
      <use xlink:href="#CMR17-74" transform="translate(499.192345 0)scale(0.996264)"/>
     </g>
    </g>
   </g>
   <g id="line2d_133">
    <path d="M 65.189563 9.810518 
L 66.458802 9.899632 
L 67.728042 10.165577 
L 69.420361 10.790967 
L 71.112681 11.719477 
L 72.805 12.943006 
L 74.497319 14.452213 
L 76.189639 16.236642 
L 78.305038 18.836528 
L 80.420437 21.823616 
L 82.535836 25.170902 
L 85.074314 29.622095 
L 88.035876 35.346125 
L 90.997434 41.555735 
L 94.805152 50.100103 
L 99.882109 62.136165 
L 111.305267 89.475764 
L 115.112983 97.953299 
L 118.497621 104.972391 
L 121.459181 110.62427 
L 123.997659 115.052306 
L 126.536137 119.057518 
L 129.074618 122.60858 
L 131.190021 125.201855 
L 133.305417 127.4491 
L 135.420813 129.340566 
L 137.113134 130.592691 
L 138.805455 131.610021 
L 140.497768 132.391177 
L 142.190089 132.935853 
L 143.88241 133.244746 
L 145.574731 133.319653 
L 147.267052 133.163308 
L 148.959373 132.779491 
L 150.651687 132.172905 
L 152.344008 131.349193 
L 154.036329 130.314868 
L 156.151732 128.737076 
L 158.267127 126.857905 
L 160.38253 124.695282 
L 162.921008 121.753692 
L 165.459478 118.468924 
L 168.421046 114.255553 
L 171.80568 109.019153 
L 175.613397 102.715676 
L 181.113434 93.13992 
L 190.844278 76.141643 
L 195.075077 69.236405 
L 198.459704 64.103449 
L 201.421271 59.96705 
L 204.382824 56.212437 
L 206.921301 53.329868 
L 209.459794 50.780929 
L 211.998272 48.584291 
L 214.11366 47.033677 
L 216.229063 45.744495 
L 218.344466 44.721328 
L 220.459854 43.966839 
L 222.575257 43.481779 
L 224.69066 43.265026 
L 226.806064 43.313658 
L 228.921467 43.622934 
L 231.036855 44.18641 
L 233.152258 44.996001 
L 235.267661 46.042051 
L 237.383049 47.313434 
L 239.921542 49.118874 
L 242.46002 51.206768 
L 245.421572 53.964466 
L 248.383124 57.025593 
L 251.767766 60.833652 
L 255.998573 65.946982 
L 262.344767 74.036704 
L 270.806364 84.802096 
L 275.037155 89.847519 
L 278.844872 94.049199 
L 282.229514 97.443688 
L 285.191081 100.108795 
L 288.152634 102.458347 
L 290.691127 104.20253 
L 293.229589 105.684543 
L 295.768067 106.894951 
L 298.306545 107.827122 
L 300.421948 108.38862 
L 302.537351 108.753629 
L 304.652754 108.922887 
L 306.768142 108.898467 
L 308.883545 108.683735 
L 311.422023 108.181453 
L 313.960501 107.422135 
L 316.498994 106.418377 
L 319.037456 105.18501 
L 321.999024 103.4783 
L 324.960591 101.51161 
L 328.345218 98.987368 
L 332.152965 95.857456 
L 336.8068 91.725927 
L 344.845323 84.211405 
L 351.614607 77.988941 
L 356.268503 74.00511 
L 360.07622 71.024729 
L 363.460847 68.637856 
L 366.845504 66.534879 
L 369.807041 64.950973 
L 372.768608 63.622812 
L 375.730176 62.562406 
L 378.268653 61.872827 
L 380.807101 61.38879 
L 383.345609 61.111001 
L 385.884087 61.038139 
L 388.422564 61.166861 
L 390.961042 61.491896 
L 393.92261 62.109639 
L 396.884147 62.970573 
L 399.845714 64.057507 
L 403.230371 65.550883 
L 406.614998 67.280119 
L 410.422715 69.461871 
L 415.07658 72.389299 
L 421.845864 76.950118 
L 431.999775 83.799363 
L 437.076761 86.938946 
L 441.307537 89.294919 
L 445.115254 91.162498 
L 448.499881 92.592434 
L 451.884538 93.785465 
L 455.269165 94.726882 
L 458.230732 95.336339 
L 461.192299 95.74193 
L 464.153867 95.942902 
L 467.115404 95.941277 
L 470.076971 95.74175 
L 473.461598 95.280814 
L 476.846225 94.585594 
L 480.230882 93.674452 
L 484.038599 92.418438 
L 488.269405 90.777447 
L 493.346361 88.540471 
L 499.692555 85.477678 
L 514.077272 78.442916 
L 519.154228 76.243385 
L 523.808124 74.472991 
L 528.0389 73.111273 
L 531.846647 72.112925 
L 535.654333 71.346285 
L 539.46208 70.821488 
L 543.269766 70.543023 
L 547.077513 70.50976 
L 550.885229 70.715191 
L 554.692916 71.1477 
L 558.500663 71.790997 
L 562.731469 72.727927 
L 567.385335 73.989916 
L 572.46229 75.585335 
L 572.46229 75.585335 
" clip-path="url(#p11a6e917f3)" style="fill: none; stroke: #000000; stroke-linecap: square"/>
   </g>
   <g id="line2d_134">
    <path d="M 65.189563 9.777273 
L 66.458802 9.866778 
L 68.151122 10.249514 
L 69.843441 10.922952 
L 71.53576 11.884857 
L 73.22808 13.137757 
L 74.920399 14.683508 
L 76.612719 16.519472 
L 78.728118 19.20848 
L 80.843517 22.306335 
L 82.958916 25.772328 
L 85.497396 30.354578 
L 88.458956 36.192456 
L 91.843594 43.39593 
L 95.651311 52.033205 
L 101.151348 65.147124 
L 110.459106 87.422288 
L 114.689905 96.93296 
L 118.074543 104.031077 
L 121.036103 109.764077 
L 123.574581 114.260585 
L 126.113058 118.326458 
L 128.651536 121.927837 
L 130.766939 124.556132 
L 132.882335 126.834979 
L 134.99773 128.758 
L 136.690059 130.037632 
L 138.382372 131.085989 
L 140.074693 131.902643 
L 141.767007 132.487737 
L 143.459335 132.841886 
L 145.151649 132.966446 
L 146.843977 132.863423 
L 148.536291 132.535687 
L 150.228612 131.986929 
L 151.920925 131.221857 
L 153.613254 130.246095 
L 155.72865 128.740316 
L 157.844045 126.930841 
L 159.959448 124.834918 
L 162.497926 121.968963 
L 165.036404 118.755041 
L 167.997964 114.618616 
L 171.382598 109.462903 
L 175.190322 103.24021 
L 180.69036 93.758003 
L 190.844278 76.139097 
L 195.075077 69.29105 
L 198.459704 64.203859 
L 201.421271 60.104999 
L 204.382824 56.384543 
L 206.921301 53.529708 
L 209.459794 51.010306 
L 211.575197 49.183986 
L 213.690585 47.618352 
L 215.805973 46.322075 
L 217.921376 45.300245 
L 220.03678 44.553798 
L 222.152183 44.079705 
L 224.267586 43.871612 
L 226.382989 43.921069 
L 228.498392 44.218718 
L 230.61378 44.755212 
L 232.729168 45.521778 
L 234.844571 46.510273 
L 236.959974 47.712775 
L 239.498452 49.426733 
L 242.036945 51.421183 
L 244.575408 53.677007 
L 247.53696 56.607975 
L 250.921602 60.297289 
L 254.729334 64.787772 
L 260.229379 71.669547 
L 270.806364 84.985823 
L 275.037155 89.934588 
L 278.844872 94.050759 
L 282.229514 97.377253 
L 285.191081 99.99183 
L 288.152634 102.299954 
L 290.691127 104.015521 
L 293.229589 105.474696 
L 295.768067 106.667363 
L 298.306545 107.586516 
L 300.845038 108.228284 
L 302.960441 108.550655 
L 305.075829 108.681197 
L 307.191217 108.622519 
L 309.72971 108.307989 
L 312.268187 107.735777 
L 314.806665 106.917127 
L 317.345143 105.86527 
L 319.883605 104.595243 
L 322.845203 102.860267 
L 325.80674 100.880598 
L 329.191397 98.359682 
L 332.999114 95.25583 
L 338.076039 90.806368 
L 354.576175 76.061433 
L 358.806981 72.722781 
L 362.614697 70.020309 
L 365.999324 67.902241 
L 368.960892 66.293303 
L 371.922429 64.92961 
L 374.884027 63.823358 
L 377.845564 62.98276 
L 380.384042 62.477004 
L 382.922519 62.169831 
L 385.460997 62.059622 
L 387.999475 62.142731 
L 390.961042 62.476836 
L 393.92261 63.055632 
L 396.884147 63.865406 
L 399.845714 64.890192 
L 403.230371 66.301468 
L 407.038088 68.159363 
L 411.268864 70.503473 
L 416.345819 73.606758 
L 424.384342 78.846952 
L 431.999775 83.727296 
L 436.653671 86.469073 
L 440.884447 88.713937 
L 444.692194 90.489803 
L 448.499881 92.005915 
L 451.884538 93.120217 
L 455.269165 94.005849 
L 458.653791 94.657964 
L 462.038449 95.074673 
L 465.423076 95.256692 
L 468.807733 95.207014 
L 472.19236 94.930911 
L 475.576986 94.43605 
L 478.961644 93.732832 
L 482.76936 92.709536 
L 486.577107 91.464092 
L 490.807883 89.856896 
L 495.884838 87.687065 
L 503.500272 84.153908 
L 512.808033 79.873375 
L 517.884989 77.770143 
L 522.538885 76.078156 
L 526.769661 74.775348 
L 531.000467 73.719563 
L 534.808184 72.990446 
L 538.6159 72.473492 
L 542.423617 72.16642 
L 546.231364 72.063264 
L 550.46214 72.177037 
L 554.692916 72.516828 
L 559.346812 73.131465 
L 564.000708 73.975047 
L 569.077663 75.127214 
L 572.46229 76.014183 
L 572.46229 76.014183 
" clip-path="url(#p11a6e917f3)" style="fill: none; stroke-dasharray: 3.7,1.6; stroke-dashoffset: 0; stroke: #ff0000"/>
   </g>
   <g id="patch_3">
    <path d="M 39.825926 139.5 
L 39.825926 3.6 
" style="fill: none; stroke: #000000; stroke-width: 0.5; stroke-linejoin: miter; stroke-linecap: square"/>
   </g>
   <g id="patch_4">
    <path d="M 597.825926 139.5 
L 597.825926 3.6 
" style="fill: none; stroke: #000000; stroke-width: 0.5; stroke-linejoin: miter; stroke-linecap: square"/>
   </g>
   <g id="patch_5">
    <path d="M 39.825926 139.5 
L 597.825926 139.5 
" style="fill: none; stroke: #000000; stroke-width: 0.5; stroke-linejoin: miter; stroke-linecap: square"/>
   </g>
   <g id="patch_6">
    <path d="M 39.825926 3.6 
L 597.825926 3.6 
" style="fill: none; stroke: #000000; stroke-width: 0.5; stroke-linejoin: miter; stroke-linecap: square"/>
   </g>
   <g id="legend_1">
    <g id="line2d_135">
     <path d="M 499.652921 13.6 
L 507.652921 13.6 
L 515.652921 13.6 
" style="fill: none; stroke: #000000; stroke-linecap: square"/>
    </g>
    <g id="text_17">
     <!-- Original function -->
     <g transform="translate(522.052921 16.4)scale(0.08 -0.08)">
      <defs>
       <path id="CMR17-4f" d="M 4307 2135 
C 4307 3437 3366 4416 2304 4416 
C 1216 4416 294 3424 294 2135 
C 294 845 1229 -128 2298 -128 
C 3392 -128 4307 864 4307 2135 
z
M 2304 -13 
C 1574 -13 781 711 781 2217 
C 781 3716 1651 4301 2298 4301 
C 2976 4301 3821 3698 3821 2217 
C 3821 686 3008 -13 2304 -13 
z
" transform="scale(0.015625)"/>
       <path id="CMR17-72" d="M 960 1497 
C 960 2112 1222 2688 1702 2688 
C 1747 2688 1792 2682 1837 2662 
C 1837 2662 1696 2617 1696 2452 
C 1696 2298 1818 2234 1914 2234 
C 1990 2234 2131 2279 2131 2458 
C 2131 2663 1926 2790 1709 2790 
C 1222 2790 1011 2317 947 2093 
L 941 2093 
L 941 2790 
L 198 2720 
L 198 2554 
C 576 2554 634 2515 634 2208 
L 634 428 
C 634 184 608 153 198 153 
L 198 -13 
C 352 0 646 0 813 0 
C 998 0 1325 0 1498 -13 
L 1498 153 
C 1037 153 960 153 960 440 
L 960 1497 
z
" transform="scale(0.015625)"/>
       <path id="CMR17-67" d="M 710 1164 
C 832 1068 1043 960 1299 960 
C 1805 960 2240 1357 2240 1888 
C 2240 2054 2189 2310 1997 2509 
C 2176 2692 2438 2752 2586 2752 
C 2611 2752 2650 2752 2682 2734 
C 2656 2728 2598 2703 2598 2605 
C 2598 2527 2656 2471 2739 2471 
C 2835 2471 2886 2533 2886 2614 
C 2886 2731 2790 2854 2586 2854 
C 2330 2854 2106 2738 1926 2580 
C 1734 2753 1504 2816 1299 2816 
C 794 2816 358 2419 358 1888 
C 358 1522 570 1292 634 1228 
C 442 1004 442 743 442 711 
C 442 545 506 302 723 168 
C 390 85 128 -169 128 -486 
C 128 -943 736 -1280 1466 -1280 
C 2170 -1280 2803 -956 2803 -479 
C 2803 384 1856 384 1363 384 
C 1216 384 954 384 922 391 
C 723 423 589 602 589 826 
C 589 883 589 1024 710 1164 
z
M 1299 1068 
C 736 1068 736 1760 736 1889 
C 736 2016 736 2708 1299 2708 
C 1862 2708 1862 2016 1862 1889 
C 1862 1760 1862 1068 1299 1068 
z
M 1466 -1171 
C 826 -1171 384 -835 384 -486 
C 384 -289 493 -105 634 -4 
C 794 104 858 104 1293 104 
C 1818 104 2547 104 2547 -486 
C 2547 -835 2106 -1171 1466 -1171 
z
" transform="scale(0.015625)"/>
       <path id="CMR17-66" d="M 979 2560 
L 1709 2560 
L 1709 2725 
L 966 2725 
L 966 3494 
C 966 4022 1235 4352 1510 4352 
C 1594 4352 1690 4327 1754 4282 
C 1702 4269 1568 4225 1568 4067 
C 1568 3901 1696 3850 1786 3850 
C 1875 3850 2003 3901 2003 4067 
C 2003 4308 1773 4454 1517 4454 
C 1152 4454 653 4156 653 3481 
L 653 2725 
L 141 2725 
L 141 2560 
L 653 2560 
L 653 427 
C 653 184 627 153 218 153 
L 218 -13 
C 371 0 666 0 832 0 
C 1018 0 1344 0 1517 -13 
L 1517 153 
C 1056 153 979 153 979 439 
L 979 2560 
z
" transform="scale(0.015625)"/>
       <path id="CMR17-75" d="M 1882 2693 
L 1882 2528 
C 2259 2528 2317 2489 2317 2186 
L 2317 1032 
C 2317 500 2029 38 1555 38 
C 1030 38 986 348 986 678 
L 986 2763 
L 211 2693 
L 211 2528 
C 467 2528 640 2528 646 2274 
L 646 1058 
C 646 633 646 361 813 183 
C 896 101 1056 -64 1517 -64 
C 2061 -64 2272 377 2323 506 
L 2330 506 
L 2330 -63 
L 3091 -63 
L 3091 128 
C 2714 128 2656 166 2656 473 
L 2656 2763 
L 1882 2693 
z
" transform="scale(0.015625)"/>
       <path id="CMR17-6f" d="M 2758 1356 
C 2758 2176 2163 2816 1466 2816 
C 768 2816 173 2176 173 1356 
C 173 551 768 -64 1466 -64 
C 2163 -64 2758 551 2758 1356 
z
M 1466 51 
C 1165 51 909 230 762 480 
C 602 767 582 1126 582 1408 
C 582 1677 595 2010 762 2298 
C 890 2509 1139 2714 1466 2714 
C 1754 2714 1997 2554 2150 2330 
C 2349 2029 2349 1607 2349 1408 
C 2349 1158 2336 775 2163 467 
C 1984 173 1709 51 1466 51 
z
" transform="scale(0.015625)"/>
      </defs>
      <use xlink:href="#CMR17-4f" transform="scale(0.996264)"/>
      <use xlink:href="#CMR17-72" transform="translate(71.714788 0)scale(0.996264)"/>
      <use xlink:href="#CMR17-69" transform="translate(106.995556 0)scale(0.996264)"/>
      <use xlink:href="#CMR17-67" transform="translate(131.866615 0)scale(0.996264)"/>
      <use xlink:href="#CMR17-69" transform="translate(177.557092 0)scale(0.996264)"/>
      <use xlink:href="#CMR17-6e" transform="translate(202.42815 0)scale(0.996264)"/>
      <use xlink:href="#CMR17-61" transform="translate(253.32352 0)scale(0.996264)"/>
      <use xlink:href="#CMR17-6c" transform="translate(299.013997 0)scale(0.996264)"/>
      <use xlink:href="#CMR17-66" transform="translate(353.961022 0)scale(0.996264)"/>
      <use xlink:href="#CMR17-75" transform="translate(381.434534 0)scale(0.996264)"/>
      <use xlink:href="#CMR17-6e" transform="translate(432.329904 0)scale(0.996264)"/>
      <use xlink:href="#CMR17-63" transform="translate(483.225274 0)scale(0.996264)"/>
      <use xlink:href="#CMR17-74" transform="translate(523.710934 0)scale(0.996264)"/>
      <use xlink:href="#CMR17-69" transform="translate(558.991702 0)scale(0.996264)"/>
      <use xlink:href="#CMR17-6f" transform="translate(583.862761 0)scale(0.996264)"/>
      <use xlink:href="#CMR17-6e" transform="translate(629.553238 0)scale(0.996264)"/>
     </g>
    </g>
    <g id="PathCollection_3">
     <g>
      <use xlink:href="#m5ec116b37f" x="507.652921" y="25.449746" style="fill: #ffa500; stroke: #ffa500"/>
     </g>
    </g>
    <g id="text_18">
     <!-- Residual points -->
     <g transform="translate(522.052921 27.549746)scale(0.08 -0.08)">
      <defs>
       <path id="CMR17-52" d="M 2509 2146 
C 3117 2268 3629 2676 3629 3186 
C 3629 3785 2950 4326 2054 4326 
L 333 4326 
L 333 4160 
C 774 4160 845 4160 845 3873 
L 845 415 
C 845 128 774 128 333 128 
L 333 -26 
C 518 -26 851 -26 1050 -26 
C 1248 -26 1581 -26 1766 -26 
L 1766 128 
C 1325 128 1254 128 1254 417 
L 1254 2112 
L 2003 2112 
C 2368 2112 2573 1964 2662 1881 
C 2918 1632 2918 1459 2918 1024 
C 2918 595 2918 377 3110 160 
C 3354 -102 3680 -128 3821 -128 
C 4294 -128 4365 396 4365 503 
C 4365 540 4365 585 4307 585 
C 4256 585 4250 547 4250 522 
C 4218 112 4032 -26 3834 -26 
C 3482 -26 3443 375 3405 764 
C 3386 898 3373 993 3360 1133 
C 3322 1452 3270 1917 2509 2146 
z
M 1984 2214 
L 1254 2214 
L 1254 3913 
C 1254 4129 1267 4160 1523 4160 
L 1990 4160 
C 2522 4160 3142 3977 3142 3190 
C 3142 2372 2464 2214 1984 2214 
z
" transform="scale(0.015625)"/>
       <path id="CMR17-64" d="M 1869 4326 
L 1869 4160 
C 2246 4160 2304 4122 2304 3820 
L 2304 2345 
C 2278 2377 2016 2790 1498 2790 
C 845 2790 211 2208 211 1364 
C 211 525 806 -64 1434 -64 
C 1978 -64 2259 337 2291 380 
L 2291 -63 
L 3066 -63 
L 3066 128 
C 2688 128 2630 166 2630 473 
L 2630 4396 
L 1869 4326 
z
M 2291 755 
C 2291 563 2176 390 2029 262 
C 1811 70 1594 38 1472 38 
C 1286 38 621 134 621 1356 
C 621 2612 1363 2688 1530 2688 
C 1824 2688 2061 2522 2208 2291 
C 2291 2157 2291 2138 2291 2023 
L 2291 755 
z
" transform="scale(0.015625)"/>
      </defs>
      <use xlink:href="#CMR17-52" transform="scale(0.996264)"/>
      <use xlink:href="#CMR17-65" transform="translate(67.791102 0)scale(0.996264)"/>
      <use xlink:href="#CMR17-73" transform="translate(108.276762 0)scale(0.996264)"/>
      <use xlink:href="#CMR17-69" transform="translate(144.0781 0)scale(0.996264)"/>
      <use xlink:href="#CMR17-64" transform="translate(168.949159 0)scale(0.996264)"/>
      <use xlink:href="#CMR17-75" transform="translate(219.844528 0)scale(0.996264)"/>
      <use xlink:href="#CMR17-61" transform="translate(270.739898 0)scale(0.996264)"/>
      <use xlink:href="#CMR17-6c" transform="translate(316.430375 0)scale(0.996264)"/>
      <use xlink:href="#CMR17-70" transform="translate(371.3774 0)scale(0.996264)"/>
      <use xlink:href="#CMR17-6f" transform="translate(424.875209 0)scale(0.996264)"/>
      <use xlink:href="#CMR17-69" transform="translate(470.565686 0)scale(0.996264)"/>
      <use xlink:href="#CMR17-6e" transform="translate(495.436744 0)scale(0.996264)"/>
      <use xlink:href="#CMR17-74" transform="translate(543.72966 0)scale(0.996264)"/>
      <use xlink:href="#CMR17-73" transform="translate(579.010428 0)scale(0.996264)"/>
     </g>
    </g>
    <g id="line2d_136">
     <path d="M 499.652921 35.899491 
L 507.652921 35.899491 
L 515.652921 35.899491 
" style="fill: none; stroke-dasharray: 3.7,1.6; stroke-dashoffset: 0; stroke: #ff0000"/>
    </g>
    <g id="text_19">
     <!-- Predicted function -->
     <g transform="translate(522.052921 38.699491)scale(0.08 -0.08)">
      <defs>
       <path id="CMR17-50" d="M 1267 2042 
L 2291 2042 
C 3117 2042 3718 2578 3718 3184 
C 3718 3791 3130 4352 2291 4352 
L 333 4352 
L 333 4186 
C 774 4186 845 4186 845 3899 
L 845 446 
C 845 160 774 160 333 160 
L 333 0 
C 518 0 858 0 1056 0 
C 1254 0 1594 0 1779 0 
L 1779 160 
C 1338 160 1267 160 1267 446 
L 1267 2042 
z
M 1254 2176 
L 1254 3938 
C 1254 4155 1267 4186 1523 4186 
L 2170 4186 
C 2995 4186 3232 3714 3232 3184 
C 3232 2604 2950 2176 2170 2176 
L 1254 2176 
z
" transform="scale(0.015625)"/>
      </defs>
      <use xlink:href="#CMR17-50" transform="scale(0.996264)"/>
      <use xlink:href="#CMR17-72" transform="translate(62.586301 0)scale(0.996264)"/>
      <use xlink:href="#CMR17-65" transform="translate(97.867068 0)scale(0.996264)"/>
      <use xlink:href="#CMR17-64" transform="translate(138.352729 0)scale(0.996264)"/>
      <use xlink:href="#CMR17-69" transform="translate(189.248099 0)scale(0.996264)"/>
      <use xlink:href="#CMR17-63" transform="translate(214.119157 0)scale(0.996264)"/>
      <use xlink:href="#CMR17-74" transform="translate(254.604818 0)scale(0.996264)"/>
      <use xlink:href="#CMR17-65" transform="translate(289.885585 0)scale(0.996264)"/>
      <use xlink:href="#CMR17-64" transform="translate(330.371246 0)scale(0.996264)"/>
      <use xlink:href="#CMR17-66" transform="translate(411.342582 0)scale(0.996264)"/>
      <use xlink:href="#CMR17-75" transform="translate(438.816094 0)scale(0.996264)"/>
      <use xlink:href="#CMR17-6e" transform="translate(489.711464 0)scale(0.996264)"/>
      <use xlink:href="#CMR17-63" transform="translate(540.606834 0)scale(0.996264)"/>
      <use xlink:href="#CMR17-74" transform="translate(581.092494 0)scale(0.996264)"/>
      <use xlink:href="#CMR17-69" transform="translate(616.373262 0)scale(0.996264)"/>
      <use xlink:href="#CMR17-6f" transform="translate(641.244321 0)scale(0.996264)"/>
      <use xlink:href="#CMR17-6e" transform="translate(686.934798 0)scale(0.996264)"/>
     </g>
    </g>
    <g id="PathCollection_4">
     <g>
      <use xlink:href="#m876d7f6d29" x="507.652921" y="47.749237" style="fill: #0000ff; stroke: #0000ff"/>
     </g>
    </g>
    <g id="text_20">
     <!-- Training points -->
     <g transform="translate(522.052921 49.849237)scale(0.08 -0.08)">
      <use xlink:href="#CMR17-54" transform="scale(0.996264)"/>
      <use xlink:href="#CMR17-72" transform="translate(58.702625 0)scale(0.996264)"/>
      <use xlink:href="#CMR17-61" transform="translate(93.983393 0)scale(0.996264)"/>
      <use xlink:href="#CMR17-69" transform="translate(139.67387 0)scale(0.996264)"/>
      <use xlink:href="#CMR17-6e" transform="translate(164.544929 0)scale(0.996264)"/>
      <use xlink:href="#CMR17-69" transform="translate(215.440298 0)scale(0.996264)"/>
      <use xlink:href="#CMR17-6e" transform="translate(240.311357 0)scale(0.996264)"/>
      <use xlink:href="#CMR17-67" transform="translate(291.206727 0)scale(0.996264)"/>
      <use xlink:href="#CMR17-70" transform="translate(366.97317 0)scale(0.996264)"/>
      <use xlink:href="#CMR17-6f" transform="translate(420.470979 0)scale(0.996264)"/>
      <use xlink:href="#CMR17-69" transform="translate(466.161456 0)scale(0.996264)"/>
      <use xlink:href="#CMR17-6e" transform="translate(491.032514 0)scale(0.996264)"/>
      <use xlink:href="#CMR17-74" transform="translate(539.32543 0)scale(0.996264)"/>
      <use xlink:href="#CMR17-73" transform="translate(574.606198 0)scale(0.996264)"/>
     </g>
    </g>
   </g>
  </g>
 </g>
 <defs>
  <clipPath id="p11a6e917f3">
   <rect x="39.825926" y="3.6" width="558" height="135.9"/>
  </clipPath>
 </defs>
</svg>
